<?xml version="1.0" encoding="utf-8" standalone="no"?>
<!DOCTYPE svg PUBLIC "-//W3C//DTD SVG 1.1//EN"
  "http://www.w3.org/Graphics/SVG/1.1/DTD/svg11.dtd">
<svg height="390pt" version="1.1" viewBox="0 0 565 390" width="565pt" xmlns="http://www.w3.org/2000/svg" xmlns:xlink="http://www.w3.org/1999/xlink">
 <metadata>
  <rdf:RDF xmlns:cc="http://creativecommons.org/ns#" xmlns:dc="http://purl.org/dc/elements/1.1/" xmlns:rdf="http://www.w3.org/1999/02/22-rdf-syntax-ns#">
   <cc:Work>
    <dc:type rdf:resource="http://purl.org/dc/dcmitype/StillImage"/>
    <dc:date>2025-02-10T05:33:36.129229</dc:date>
    <dc:format>image/svg+xml</dc:format>
    <dc:creator>
     <cc:Agent>
      <dc:title>Matplotlib v3.4.3, https://matplotlib.org/</dc:title>
     </cc:Agent>
    </dc:creator>
   </cc:Work>
  </rdf:RDF>
 </metadata>
 <defs>
  <style type="text/css">*{stroke-linecap:butt;stroke-linejoin:round;}</style>
 </defs>
 <g id="figure_1">
  <g id="patch_1">
   <path d="M 0 390 
L 565 390 
L 565 0 
L 0 0 
z
" style="fill:#ffffff;"/>
  </g>
  <g id="axes_1">
   <g id="patch_2">
    <path d="M 30.525 359.526879 
L 554.2 359.526879 
L 554.2 10.8 
L 30.525 10.8 
z
" style="fill:#ffffff;"/>
   </g>
   <g id="matplotlib.axis_1">
    <g id="xtick_1">
     <g id="text_1">
      <!-- 15 -->
      <g transform="translate(35.760029 378.023551)rotate(-45)scale(0.08 -0.08)">
       <defs>
        <path d="M 794 531 
L 1825 531 
L 1825 4091 
L 703 3866 
L 703 4441 
L 1819 4666 
L 2450 4666 
L 2450 531 
L 3481 531 
L 3481 0 
L 794 0 
L 794 531 
z
" id="DejaVuSans-31" transform="scale(0.015625)"/>
        <path d="M 691 4666 
L 3169 4666 
L 3169 4134 
L 1269 4134 
L 1269 2991 
Q 1406 3038 1543 3061 
Q 1681 3084 1819 3084 
Q 2600 3084 3056 2656 
Q 3513 2228 3513 1497 
Q 3513 744 3044 326 
Q 2575 -91 1722 -91 
Q 1428 -91 1123 -41 
Q 819 9 494 109 
L 494 744 
Q 775 591 1075 516 
Q 1375 441 1709 441 
Q 2250 441 2565 725 
Q 2881 1009 2881 1497 
Q 2881 1984 2565 2268 
Q 2250 2553 1709 2553 
Q 1456 2553 1204 2497 
Q 953 2441 691 2322 
L 691 4666 
z
" id="DejaVuSans-35" transform="scale(0.015625)"/>
       </defs>
       <use xlink:href="#DejaVuSans-31"/>
       <use x="63.623047" xlink:href="#DejaVuSans-35"/>
      </g>
     </g>
    </g>
    <g id="xtick_2">
     <g id="text_2">
      <!-- 17 -->
      <g transform="translate(50.306556 378.023551)rotate(-45)scale(0.08 -0.08)">
       <defs>
        <path d="M 525 4666 
L 3525 4666 
L 3525 4397 
L 1831 0 
L 1172 0 
L 2766 4134 
L 525 4134 
L 525 4666 
z
" id="DejaVuSans-37" transform="scale(0.015625)"/>
       </defs>
       <use xlink:href="#DejaVuSans-31"/>
       <use x="63.623047" xlink:href="#DejaVuSans-37"/>
      </g>
     </g>
    </g>
    <g id="xtick_3">
     <g id="text_3">
      <!-- 26 -->
      <g transform="translate(64.853084 378.023551)rotate(-45)scale(0.08 -0.08)">
       <defs>
        <path d="M 1228 531 
L 3431 531 
L 3431 0 
L 469 0 
L 469 531 
Q 828 903 1448 1529 
Q 2069 2156 2228 2338 
Q 2531 2678 2651 2914 
Q 2772 3150 2772 3378 
Q 2772 3750 2511 3984 
Q 2250 4219 1831 4219 
Q 1534 4219 1204 4116 
Q 875 4013 500 3803 
L 500 4441 
Q 881 4594 1212 4672 
Q 1544 4750 1819 4750 
Q 2544 4750 2975 4387 
Q 3406 4025 3406 3419 
Q 3406 3131 3298 2873 
Q 3191 2616 2906 2266 
Q 2828 2175 2409 1742 
Q 1991 1309 1228 531 
z
" id="DejaVuSans-32" transform="scale(0.015625)"/>
        <path d="M 2113 2584 
Q 1688 2584 1439 2293 
Q 1191 2003 1191 1497 
Q 1191 994 1439 701 
Q 1688 409 2113 409 
Q 2538 409 2786 701 
Q 3034 994 3034 1497 
Q 3034 2003 2786 2293 
Q 2538 2584 2113 2584 
z
M 3366 4563 
L 3366 3988 
Q 3128 4100 2886 4159 
Q 2644 4219 2406 4219 
Q 1781 4219 1451 3797 
Q 1122 3375 1075 2522 
Q 1259 2794 1537 2939 
Q 1816 3084 2150 3084 
Q 2853 3084 3261 2657 
Q 3669 2231 3669 1497 
Q 3669 778 3244 343 
Q 2819 -91 2113 -91 
Q 1303 -91 875 529 
Q 447 1150 447 2328 
Q 447 3434 972 4092 
Q 1497 4750 2381 4750 
Q 2619 4750 2861 4703 
Q 3103 4656 3366 4563 
z
" id="DejaVuSans-36" transform="scale(0.015625)"/>
       </defs>
       <use xlink:href="#DejaVuSans-32"/>
       <use x="63.623047" xlink:href="#DejaVuSans-36"/>
      </g>
     </g>
    </g>
    <g id="xtick_4">
     <g id="text_4">
      <!-- 14 -->
      <g transform="translate(79.399612 378.023551)rotate(-45)scale(0.08 -0.08)">
       <defs>
        <path d="M 2419 4116 
L 825 1625 
L 2419 1625 
L 2419 4116 
z
M 2253 4666 
L 3047 4666 
L 3047 1625 
L 3713 1625 
L 3713 1100 
L 3047 1100 
L 3047 0 
L 2419 0 
L 2419 1100 
L 313 1100 
L 313 1709 
L 2253 4666 
z
" id="DejaVuSans-34" transform="scale(0.015625)"/>
       </defs>
       <use xlink:href="#DejaVuSans-31"/>
       <use x="63.623047" xlink:href="#DejaVuSans-34"/>
      </g>
     </g>
    </g>
    <g id="xtick_5">
     <g id="text_5">
      <!-- 25 -->
      <g transform="translate(93.94614 378.023551)rotate(-45)scale(0.08 -0.08)">
       <use xlink:href="#DejaVuSans-32"/>
       <use x="63.623047" xlink:href="#DejaVuSans-35"/>
      </g>
     </g>
    </g>
    <g id="xtick_6">
     <g id="text_6">
      <!-- 19 -->
      <g transform="translate(108.492667 378.023551)rotate(-45)scale(0.08 -0.08)">
       <defs>
        <path d="M 703 97 
L 703 672 
Q 941 559 1184 500 
Q 1428 441 1663 441 
Q 2288 441 2617 861 
Q 2947 1281 2994 2138 
Q 2813 1869 2534 1725 
Q 2256 1581 1919 1581 
Q 1219 1581 811 2004 
Q 403 2428 403 3163 
Q 403 3881 828 4315 
Q 1253 4750 1959 4750 
Q 2769 4750 3195 4129 
Q 3622 3509 3622 2328 
Q 3622 1225 3098 567 
Q 2575 -91 1691 -91 
Q 1453 -91 1209 -44 
Q 966 3 703 97 
z
M 1959 2075 
Q 2384 2075 2632 2365 
Q 2881 2656 2881 3163 
Q 2881 3666 2632 3958 
Q 2384 4250 1959 4250 
Q 1534 4250 1286 3958 
Q 1038 3666 1038 3163 
Q 1038 2656 1286 2365 
Q 1534 2075 1959 2075 
z
" id="DejaVuSans-39" transform="scale(0.015625)"/>
       </defs>
       <use xlink:href="#DejaVuSans-31"/>
       <use x="63.623047" xlink:href="#DejaVuSans-39"/>
      </g>
     </g>
    </g>
    <g id="xtick_7">
     <g id="text_7">
      <!-- 28 -->
      <g transform="translate(123.039195 378.023551)rotate(-45)scale(0.08 -0.08)">
       <defs>
        <path d="M 2034 2216 
Q 1584 2216 1326 1975 
Q 1069 1734 1069 1313 
Q 1069 891 1326 650 
Q 1584 409 2034 409 
Q 2484 409 2743 651 
Q 3003 894 3003 1313 
Q 3003 1734 2745 1975 
Q 2488 2216 2034 2216 
z
M 1403 2484 
Q 997 2584 770 2862 
Q 544 3141 544 3541 
Q 544 4100 942 4425 
Q 1341 4750 2034 4750 
Q 2731 4750 3128 4425 
Q 3525 4100 3525 3541 
Q 3525 3141 3298 2862 
Q 3072 2584 2669 2484 
Q 3125 2378 3379 2068 
Q 3634 1759 3634 1313 
Q 3634 634 3220 271 
Q 2806 -91 2034 -91 
Q 1263 -91 848 271 
Q 434 634 434 1313 
Q 434 1759 690 2068 
Q 947 2378 1403 2484 
z
M 1172 3481 
Q 1172 3119 1398 2916 
Q 1625 2713 2034 2713 
Q 2441 2713 2670 2916 
Q 2900 3119 2900 3481 
Q 2900 3844 2670 4047 
Q 2441 4250 2034 4250 
Q 1625 4250 1398 4047 
Q 1172 3844 1172 3481 
z
" id="DejaVuSans-38" transform="scale(0.015625)"/>
       </defs>
       <use xlink:href="#DejaVuSans-32"/>
       <use x="63.623047" xlink:href="#DejaVuSans-38"/>
      </g>
     </g>
    </g>
    <g id="xtick_8">
     <g id="text_8">
      <!-- 20 -->
      <g transform="translate(137.585723 378.023551)rotate(-45)scale(0.08 -0.08)">
       <defs>
        <path d="M 2034 4250 
Q 1547 4250 1301 3770 
Q 1056 3291 1056 2328 
Q 1056 1369 1301 889 
Q 1547 409 2034 409 
Q 2525 409 2770 889 
Q 3016 1369 3016 2328 
Q 3016 3291 2770 3770 
Q 2525 4250 2034 4250 
z
M 2034 4750 
Q 2819 4750 3233 4129 
Q 3647 3509 3647 2328 
Q 3647 1150 3233 529 
Q 2819 -91 2034 -91 
Q 1250 -91 836 529 
Q 422 1150 422 2328 
Q 422 3509 836 4129 
Q 1250 4750 2034 4750 
z
" id="DejaVuSans-30" transform="scale(0.015625)"/>
       </defs>
       <use xlink:href="#DejaVuSans-32"/>
       <use x="63.623047" xlink:href="#DejaVuSans-30"/>
      </g>
     </g>
    </g>
    <g id="xtick_9">
     <g id="text_9">
      <!-- 23 -->
      <g transform="translate(152.132251 378.023551)rotate(-45)scale(0.08 -0.08)">
       <defs>
        <path d="M 2597 2516 
Q 3050 2419 3304 2112 
Q 3559 1806 3559 1356 
Q 3559 666 3084 287 
Q 2609 -91 1734 -91 
Q 1441 -91 1130 -33 
Q 819 25 488 141 
L 488 750 
Q 750 597 1062 519 
Q 1375 441 1716 441 
Q 2309 441 2620 675 
Q 2931 909 2931 1356 
Q 2931 1769 2642 2001 
Q 2353 2234 1838 2234 
L 1294 2234 
L 1294 2753 
L 1863 2753 
Q 2328 2753 2575 2939 
Q 2822 3125 2822 3475 
Q 2822 3834 2567 4026 
Q 2313 4219 1838 4219 
Q 1578 4219 1281 4162 
Q 984 4106 628 3988 
L 628 4550 
Q 988 4650 1302 4700 
Q 1616 4750 1894 4750 
Q 2613 4750 3031 4423 
Q 3450 4097 3450 3541 
Q 3450 3153 3228 2886 
Q 3006 2619 2597 2516 
z
" id="DejaVuSans-33" transform="scale(0.015625)"/>
       </defs>
       <use xlink:href="#DejaVuSans-32"/>
       <use x="63.623047" xlink:href="#DejaVuSans-33"/>
      </g>
     </g>
    </g>
    <g id="xtick_10">
     <g id="text_10">
      <!-- 16 -->
      <g transform="translate(166.678779 378.023551)rotate(-45)scale(0.08 -0.08)">
       <use xlink:href="#DejaVuSans-31"/>
       <use x="63.623047" xlink:href="#DejaVuSans-36"/>
      </g>
     </g>
    </g>
    <g id="xtick_11">
     <g id="text_11">
      <!-- 21 -->
      <g transform="translate(181.225306 378.023551)rotate(-45)scale(0.08 -0.08)">
       <use xlink:href="#DejaVuSans-32"/>
       <use x="63.623047" xlink:href="#DejaVuSans-31"/>
      </g>
     </g>
    </g>
    <g id="xtick_12">
     <g id="text_12">
      <!-- 18 -->
      <g transform="translate(195.771834 378.023551)rotate(-45)scale(0.08 -0.08)">
       <use xlink:href="#DejaVuSans-31"/>
       <use x="63.623047" xlink:href="#DejaVuSans-38"/>
      </g>
     </g>
    </g>
    <g id="xtick_13">
     <g id="text_13">
      <!-- 22 -->
      <g transform="translate(210.318362 378.023551)rotate(-45)scale(0.08 -0.08)">
       <use xlink:href="#DejaVuSans-32"/>
       <use x="63.623047" xlink:href="#DejaVuSans-32"/>
      </g>
     </g>
    </g>
    <g id="xtick_14">
     <g id="text_14">
      <!-- 24 -->
      <g transform="translate(224.86489 378.023551)rotate(-45)scale(0.08 -0.08)">
       <use xlink:href="#DejaVuSans-32"/>
       <use x="63.623047" xlink:href="#DejaVuSans-34"/>
      </g>
     </g>
    </g>
    <g id="xtick_15">
     <g id="text_15">
      <!-- 27 -->
      <g transform="translate(239.411417 378.023551)rotate(-45)scale(0.08 -0.08)">
       <use xlink:href="#DejaVuSans-32"/>
       <use x="63.623047" xlink:href="#DejaVuSans-37"/>
      </g>
     </g>
    </g>
    <g id="xtick_16">
     <g id="text_16">
      <!-- 4 -->
      <g transform="translate(255.757532 374.424378)rotate(-45)scale(0.08 -0.08)">
       <use xlink:href="#DejaVuSans-34"/>
      </g>
     </g>
    </g>
    <g id="xtick_17">
     <g id="text_17">
      <!-- 8 -->
      <g transform="translate(270.30406 374.424378)rotate(-45)scale(0.08 -0.08)">
       <use xlink:href="#DejaVuSans-38"/>
      </g>
     </g>
    </g>
    <g id="xtick_18">
     <g id="text_18">
      <!-- 2 -->
      <g transform="translate(284.850588 374.424378)rotate(-45)scale(0.08 -0.08)">
       <use xlink:href="#DejaVuSans-32"/>
      </g>
     </g>
    </g>
    <g id="xtick_19">
     <g id="text_19">
      <!-- 5 -->
      <g transform="translate(299.397115 374.424378)rotate(-45)scale(0.08 -0.08)">
       <use xlink:href="#DejaVuSans-35"/>
      </g>
     </g>
    </g>
    <g id="xtick_20">
     <g id="text_20">
      <!-- 31 -->
      <g transform="translate(312.144056 378.023551)rotate(-45)scale(0.08 -0.08)">
       <use xlink:href="#DejaVuSans-33"/>
       <use x="63.623047" xlink:href="#DejaVuSans-31"/>
      </g>
     </g>
    </g>
    <g id="xtick_21">
     <g id="text_21">
      <!-- 7 -->
      <g transform="translate(328.490171 374.424378)rotate(-45)scale(0.08 -0.08)">
       <use xlink:href="#DejaVuSans-37"/>
      </g>
     </g>
    </g>
    <g id="xtick_22">
     <g id="text_22">
      <!-- 32 -->
      <g transform="translate(341.237112 378.023551)rotate(-45)scale(0.08 -0.08)">
       <use xlink:href="#DejaVuSans-33"/>
       <use x="63.623047" xlink:href="#DejaVuSans-32"/>
      </g>
     </g>
    </g>
    <g id="xtick_23">
     <g id="text_23">
      <!-- 33 -->
      <g transform="translate(355.78364 378.023551)rotate(-45)scale(0.08 -0.08)">
       <use xlink:href="#DejaVuSans-33"/>
       <use x="63.623047" xlink:href="#DejaVuSans-33"/>
      </g>
     </g>
    </g>
    <g id="xtick_24">
     <g id="text_24">
      <!-- 34 -->
      <g transform="translate(370.330167 378.023551)rotate(-45)scale(0.08 -0.08)">
       <use xlink:href="#DejaVuSans-33"/>
       <use x="63.623047" xlink:href="#DejaVuSans-34"/>
      </g>
     </g>
    </g>
    <g id="xtick_25">
     <g id="text_25">
      <!-- 35 -->
      <g transform="translate(384.876695 378.023551)rotate(-45)scale(0.08 -0.08)">
       <use xlink:href="#DejaVuSans-33"/>
       <use x="63.623047" xlink:href="#DejaVuSans-35"/>
      </g>
     </g>
    </g>
    <g id="xtick_26">
     <g id="text_26">
      <!-- 29 -->
      <g transform="translate(399.423223 378.023551)rotate(-45)scale(0.08 -0.08)">
       <use xlink:href="#DejaVuSans-32"/>
       <use x="63.623047" xlink:href="#DejaVuSans-39"/>
      </g>
     </g>
    </g>
    <g id="xtick_27">
     <g id="text_27">
      <!-- 11 -->
      <g transform="translate(413.969751 378.023551)rotate(-45)scale(0.08 -0.08)">
       <use xlink:href="#DejaVuSans-31"/>
       <use x="63.623047" xlink:href="#DejaVuSans-31"/>
      </g>
     </g>
    </g>
    <g id="xtick_28">
     <g id="text_28">
      <!-- 30 -->
      <g transform="translate(428.516279 378.023551)rotate(-45)scale(0.08 -0.08)">
       <use xlink:href="#DejaVuSans-33"/>
       <use x="63.623047" xlink:href="#DejaVuSans-30"/>
      </g>
     </g>
    </g>
    <g id="xtick_29">
     <g id="text_29">
      <!-- 13 -->
      <g transform="translate(443.062806 378.023551)rotate(-45)scale(0.08 -0.08)">
       <use xlink:href="#DejaVuSans-31"/>
       <use x="63.623047" xlink:href="#DejaVuSans-33"/>
      </g>
     </g>
    </g>
    <g id="xtick_30">
     <g id="text_30">
      <!-- 10 -->
      <g transform="translate(457.609334 378.023551)rotate(-45)scale(0.08 -0.08)">
       <use xlink:href="#DejaVuSans-31"/>
       <use x="63.623047" xlink:href="#DejaVuSans-30"/>
      </g>
     </g>
    </g>
    <g id="xtick_31">
     <g id="text_31">
      <!-- 12 -->
      <g transform="translate(472.155862 378.023551)rotate(-45)scale(0.08 -0.08)">
       <use xlink:href="#DejaVuSans-31"/>
       <use x="63.623047" xlink:href="#DejaVuSans-32"/>
      </g>
     </g>
    </g>
    <g id="xtick_32">
     <g id="text_32">
      <!-- 3 -->
      <g transform="translate(488.501976 374.424378)rotate(-45)scale(0.08 -0.08)">
       <use xlink:href="#DejaVuSans-33"/>
      </g>
     </g>
    </g>
    <g id="xtick_33">
     <g id="text_33">
      <!-- 6 -->
      <g transform="translate(503.048504 374.424378)rotate(-45)scale(0.08 -0.08)">
       <use xlink:href="#DejaVuSans-36"/>
      </g>
     </g>
    </g>
    <g id="xtick_34">
     <g id="text_34">
      <!-- 1 -->
      <g transform="translate(517.595032 374.424378)rotate(-45)scale(0.08 -0.08)">
       <use xlink:href="#DejaVuSans-31"/>
      </g>
     </g>
    </g>
    <g id="xtick_35">
     <g id="text_35">
      <!-- 0 -->
      <g transform="translate(532.14156 374.424378)rotate(-45)scale(0.08 -0.08)">
       <use xlink:href="#DejaVuSans-30"/>
      </g>
     </g>
    </g>
    <g id="xtick_36">
     <g id="text_36">
      <!-- 9 -->
      <g transform="translate(546.688088 374.424378)rotate(-45)scale(0.08 -0.08)">
       <use xlink:href="#DejaVuSans-39"/>
      </g>
     </g>
    </g>
   </g>
   <g id="matplotlib.axis_2">
    <g id="ytick_1">
     <g id="line2d_1">
      <defs>
       <path d="M 0 0 
L -3.5 0 
" id="m47085d18cc" style="stroke:#000000;stroke-width:0.8;"/>
      </defs>
      <g>
       <use style="stroke:#000000;stroke-width:0.8;" x="30.525" xlink:href="#m47085d18cc" y="359.526879"/>
      </g>
     </g>
     <g id="text_37">
      <!-- 0 -->
      <g transform="translate(17.1625 363.326097)scale(0.1 -0.1)">
       <use xlink:href="#DejaVuSans-30"/>
      </g>
     </g>
    </g>
    <g id="ytick_2">
     <g id="line2d_2">
      <g>
       <use style="stroke:#000000;stroke-width:0.8;" x="30.525" xlink:href="#m47085d18cc" y="303.442104"/>
      </g>
     </g>
     <g id="text_38">
      <!-- 2 -->
      <g transform="translate(17.1625 307.241323)scale(0.1 -0.1)">
       <use xlink:href="#DejaVuSans-32"/>
      </g>
     </g>
    </g>
    <g id="ytick_3">
     <g id="line2d_3">
      <g>
       <use style="stroke:#000000;stroke-width:0.8;" x="30.525" xlink:href="#m47085d18cc" y="247.35733"/>
      </g>
     </g>
     <g id="text_39">
      <!-- 4 -->
      <g transform="translate(17.1625 251.156549)scale(0.1 -0.1)">
       <use xlink:href="#DejaVuSans-34"/>
      </g>
     </g>
    </g>
    <g id="ytick_4">
     <g id="line2d_4">
      <g>
       <use style="stroke:#000000;stroke-width:0.8;" x="30.525" xlink:href="#m47085d18cc" y="191.272555"/>
      </g>
     </g>
     <g id="text_40">
      <!-- 6 -->
      <g transform="translate(17.1625 195.071774)scale(0.1 -0.1)">
       <use xlink:href="#DejaVuSans-36"/>
      </g>
     </g>
    </g>
    <g id="ytick_5">
     <g id="line2d_5">
      <g>
       <use style="stroke:#000000;stroke-width:0.8;" x="30.525" xlink:href="#m47085d18cc" y="135.187781"/>
      </g>
     </g>
     <g id="text_41">
      <!-- 8 -->
      <g transform="translate(17.1625 138.987)scale(0.1 -0.1)">
       <use xlink:href="#DejaVuSans-38"/>
      </g>
     </g>
    </g>
    <g id="ytick_6">
     <g id="line2d_6">
      <g>
       <use style="stroke:#000000;stroke-width:0.8;" x="30.525" xlink:href="#m47085d18cc" y="79.103007"/>
      </g>
     </g>
     <g id="text_42">
      <!-- 10 -->
      <g transform="translate(10.8 82.902225)scale(0.1 -0.1)">
       <use xlink:href="#DejaVuSans-31"/>
       <use x="63.623047" xlink:href="#DejaVuSans-30"/>
      </g>
     </g>
    </g>
    <g id="ytick_7">
     <g id="line2d_7">
      <g>
       <use style="stroke:#000000;stroke-width:0.8;" x="30.525" xlink:href="#m47085d18cc" y="23.018232"/>
      </g>
     </g>
     <g id="text_43">
      <!-- 12 -->
      <g transform="translate(10.8 26.817451)scale(0.1 -0.1)">
       <use xlink:href="#DejaVuSans-31"/>
       <use x="63.623047" xlink:href="#DejaVuSans-32"/>
      </g>
     </g>
    </g>
   </g>
   <g id="LineCollection_1">
    <path clip-path="url(#p9f69398e18)" d="M 37.798264 359.526879 
L 37.798264 358.476107 
L 52.344792 358.476107 
L 52.344792 359.526879 
" style="fill:none;stroke:#ff7f0e;stroke-width:1.5;"/>
    <path clip-path="url(#p9f69398e18)" d="M 81.437847 359.526879 
L 81.437847 358.476107 
L 95.984375 358.476107 
L 95.984375 359.526879 
" style="fill:none;stroke:#ff7f0e;stroke-width:1.5;"/>
    <path clip-path="url(#p9f69398e18)" d="M 66.891319 359.526879 
L 66.891319 357.64179 
L 88.711111 357.64179 
L 88.711111 358.476107 
" style="fill:none;stroke:#ff7f0e;stroke-width:1.5;"/>
    <path clip-path="url(#p9f69398e18)" d="M 45.071528 358.476107 
L 45.071528 354.836854 
L 77.801215 354.836854 
L 77.801215 357.64179 
" style="fill:none;stroke:#ff7f0e;stroke-width:1.5;"/>
    <path clip-path="url(#p9f69398e18)" d="M 139.623958 359.526879 
L 139.623958 358.686681 
L 154.170486 358.686681 
L 154.170486 359.526879 
" style="fill:none;stroke:#ff7f0e;stroke-width:1.5;"/>
    <path clip-path="url(#p9f69398e18)" d="M 125.077431 359.526879 
L 125.077431 356.994352 
L 146.897222 356.994352 
L 146.897222 358.686681 
" style="fill:none;stroke:#ff7f0e;stroke-width:1.5;"/>
    <path clip-path="url(#p9f69398e18)" d="M 110.530903 359.526879 
L 110.530903 354.885447 
L 135.987326 354.885447 
L 135.987326 356.994352 
" style="fill:none;stroke:#ff7f0e;stroke-width:1.5;"/>
    <path clip-path="url(#p9f69398e18)" d="M 168.717014 359.526879 
L 168.717014 358.686681 
L 183.263542 358.686681 
L 183.263542 359.526879 
" style="fill:none;stroke:#ff7f0e;stroke-width:1.5;"/>
    <path clip-path="url(#p9f69398e18)" d="M 197.810069 359.526879 
L 197.810069 358.476107 
L 212.356597 358.476107 
L 212.356597 359.526879 
" style="fill:none;stroke:#ff7f0e;stroke-width:1.5;"/>
    <path clip-path="url(#p9f69398e18)" d="M 226.903125 359.526879 
L 226.903125 357.633811 
L 241.449653 357.633811 
L 241.449653 359.526879 
" style="fill:none;stroke:#ff7f0e;stroke-width:1.5;"/>
    <path clip-path="url(#p9f69398e18)" d="M 205.083333 358.476107 
L 205.083333 355.527933 
L 234.176389 355.527933 
L 234.176389 357.633811 
" style="fill:none;stroke:#ff7f0e;stroke-width:1.5;"/>
    <path clip-path="url(#p9f69398e18)" d="M 175.990278 358.686681 
L 175.990278 351.903889 
L 219.629861 351.903889 
L 219.629861 355.527933 
" style="fill:none;stroke:#ff7f0e;stroke-width:1.5;"/>
    <path clip-path="url(#p9f69398e18)" d="M 123.259115 354.885447 
L 123.259115 350.769805 
L 197.810069 350.769805 
L 197.810069 351.903889 
" style="fill:none;stroke:#ff7f0e;stroke-width:1.5;"/>
    <path clip-path="url(#p9f69398e18)" d="M 61.436372 354.836854 
L 61.436372 339.768706 
L 160.534592 339.768706 
L 160.534592 350.769805 
" style="fill:none;stroke:#ff7f0e;stroke-width:1.5;"/>
   </g>
   <g id="LineCollection_2">
    <path clip-path="url(#p9f69398e18)" d="M 255.996181 359.526879 
L 255.996181 357.731908 
L 270.542708 357.731908 
L 270.542708 359.526879 
" style="fill:none;stroke:#2ca02c;stroke-width:1.5;"/>
    <path clip-path="url(#p9f69398e18)" d="M 285.089236 359.526879 
L 285.089236 356.995587 
L 299.635764 356.995587 
L 299.635764 359.526879 
" style="fill:none;stroke:#2ca02c;stroke-width:1.5;"/>
    <path clip-path="url(#p9f69398e18)" d="M 263.269444 357.731908 
L 263.269444 355.947092 
L 292.3625 355.947092 
L 292.3625 356.995587 
" style="fill:none;stroke:#2ca02c;stroke-width:1.5;"/>
    <path clip-path="url(#p9f69398e18)" d="M 343.275347 359.526879 
L 343.275347 356.995587 
L 357.821875 356.995587 
L 357.821875 359.526879 
" style="fill:none;stroke:#2ca02c;stroke-width:1.5;"/>
    <path clip-path="url(#p9f69398e18)" d="M 328.728819 359.526879 
L 328.728819 355.239906 
L 350.548611 355.239906 
L 350.548611 356.995587 
" style="fill:none;stroke:#2ca02c;stroke-width:1.5;"/>
    <path clip-path="url(#p9f69398e18)" d="M 314.182292 359.526879 
L 314.182292 353.133744 
L 339.638715 353.133744 
L 339.638715 355.239906 
" style="fill:none;stroke:#2ca02c;stroke-width:1.5;"/>
    <path clip-path="url(#p9f69398e18)" d="M 277.815972 355.947092 
L 277.815972 345.235786 
L 326.910503 345.235786 
L 326.910503 353.133744 
" style="fill:none;stroke:#2ca02c;stroke-width:1.5;"/>
    <path clip-path="url(#p9f69398e18)" d="M 372.368403 359.526879 
L 372.368403 358.264833 
L 386.914931 358.264833 
L 386.914931 359.526879 
" style="fill:none;stroke:#2ca02c;stroke-width:1.5;"/>
    <path clip-path="url(#p9f69398e18)" d="M 416.007986 359.526879 
L 416.007986 357.846483 
L 430.554514 357.846483 
L 430.554514 359.526879 
" style="fill:none;stroke:#2ca02c;stroke-width:1.5;"/>
    <path clip-path="url(#p9f69398e18)" d="M 401.461458 359.526879 
L 401.461458 355.883667 
L 423.28125 355.883667 
L 423.28125 357.846483 
" style="fill:none;stroke:#2ca02c;stroke-width:1.5;"/>
    <path clip-path="url(#p9f69398e18)" d="M 379.641667 358.264833 
L 379.641667 351.761505 
L 412.371354 351.761505 
L 412.371354 355.883667 
" style="fill:none;stroke:#2ca02c;stroke-width:1.5;"/>
    <path clip-path="url(#p9f69398e18)" d="M 459.647569 359.526879 
L 459.647569 357.425334 
L 474.194097 357.425334 
L 474.194097 359.526879 
" style="fill:none;stroke:#2ca02c;stroke-width:1.5;"/>
    <path clip-path="url(#p9f69398e18)" d="M 445.101042 359.526879 
L 445.101042 356.603995 
L 466.920833 356.603995 
L 466.920833 357.425334 
" style="fill:none;stroke:#2ca02c;stroke-width:1.5;"/>
    <path clip-path="url(#p9f69398e18)" d="M 488.740625 359.526879 
L 488.740625 358.895856 
L 503.287153 358.895856 
L 503.287153 359.526879 
" style="fill:none;stroke:#2ca02c;stroke-width:1.5;"/>
    <path clip-path="url(#p9f69398e18)" d="M 532.380208 359.526879 
L 532.380208 359.526879 
L 546.926736 359.526879 
L 546.926736 359.526879 
" style="fill:none;stroke:#2ca02c;stroke-width:1.5;"/>
    <path clip-path="url(#p9f69398e18)" d="M 517.833681 359.526879 
L 517.833681 356.271903 
L 539.653472 356.271903 
L 539.653472 359.526879 
" style="fill:none;stroke:#2ca02c;stroke-width:1.5;"/>
    <path clip-path="url(#p9f69398e18)" d="M 496.013889 358.895856 
L 496.013889 352.916354 
L 528.743576 352.916354 
L 528.743576 356.271903 
" style="fill:none;stroke:#2ca02c;stroke-width:1.5;"/>
    <path clip-path="url(#p9f69398e18)" d="M 456.010937 356.603995 
L 456.010937 349.265882 
L 512.378733 349.265882 
L 512.378733 352.916354 
" style="fill:none;stroke:#2ca02c;stroke-width:1.5;"/>
    <path clip-path="url(#p9f69398e18)" d="M 396.00651 351.761505 
L 396.00651 341.934373 
L 484.194835 341.934373 
L 484.194835 349.265882 
" style="fill:none;stroke:#2ca02c;stroke-width:1.5;"/>
    <path clip-path="url(#p9f69398e18)" d="M 302.363238 345.235786 
L 302.363238 321.081239 
L 440.100673 321.081239 
L 440.100673 341.934373 
" style="fill:none;stroke:#2ca02c;stroke-width:1.5;"/>
   </g>
   <g id="LineCollection_3">
    <path clip-path="url(#p9f69398e18)" d="M 110.985482 339.768706 
L 110.985482 27.406042 
L 371.231955 27.406042 
L 371.231955 321.081239 
" style="fill:none;stroke:#1f77b4;stroke-width:1.5;"/>
   </g>
   <g id="patch_3">
    <path d="M 30.525 359.526879 
L 30.525 10.8 
" style="fill:none;stroke:#000000;stroke-linecap:square;stroke-linejoin:miter;stroke-width:0.8;"/>
   </g>
   <g id="patch_4">
    <path d="M 554.2 359.526879 
L 554.2 10.8 
" style="fill:none;stroke:#000000;stroke-linecap:square;stroke-linejoin:miter;stroke-width:0.8;"/>
   </g>
   <g id="patch_5">
    <path d="M 30.525 359.526879 
L 554.2 359.526879 
" style="fill:none;stroke:#000000;stroke-linecap:square;stroke-linejoin:miter;stroke-width:0.8;"/>
   </g>
   <g id="patch_6">
    <path d="M 30.525 10.8 
L 554.2 10.8 
" style="fill:none;stroke:#000000;stroke-linecap:square;stroke-linejoin:miter;stroke-width:0.8;"/>
   </g>
  </g>
 </g>
 <defs>
  <clipPath id="p9f69398e18">
   <rect height="348.726879" width="523.675" x="30.525" y="10.8"/>
  </clipPath>
 </defs>
</svg>
