<?xml version="1.0" encoding="utf-8" standalone="no"?>
<!DOCTYPE svg PUBLIC "-//W3C//DTD SVG 1.1//EN"
  "http://www.w3.org/Graphics/SVG/1.1/DTD/svg11.dtd">
<svg height="313pt" version="1.1" viewBox="0 0 442 313" width="442pt" xmlns="http://www.w3.org/2000/svg" xmlns:xlink="http://www.w3.org/1999/xlink">
 <metadata>
  <rdf:RDF xmlns:cc="http://creativecommons.org/ns#" xmlns:dc="http://purl.org/dc/elements/1.1/" xmlns:rdf="http://www.w3.org/1999/02/22-rdf-syntax-ns#">
   <cc:Work>
    <dc:type rdf:resource="http://purl.org/dc/dcmitype/StillImage"/>
    <dc:date>2025-01-27T21:38:26.697228</dc:date>
    <dc:format>image/svg+xml</dc:format>
    <dc:creator>
     <cc:Agent>
      <dc:title>Matplotlib v3.4.3, https://matplotlib.org/</dc:title>
     </cc:Agent>
    </dc:creator>
   </cc:Work>
  </rdf:RDF>
 </metadata>
 <defs>
  <style type="text/css">*{stroke-linecap:butt;stroke-linejoin:round;}</style>
 </defs>
 <g id="figure_1">
  <g id="patch_1">
   <path d="M 0 313 
L 442 313 
L 442 0 
L 0 0 
z
" style="fill:#ffffff;"/>
  </g>
  <g id="axes_1">
   <g id="patch_2">
    <path d="M 33.703125 182.349375 
L 431.151146 182.349375 
L 431.151146 10.8 
L 33.703125 10.8 
z
" style="fill:#ffffff;"/>
   </g>
   <g id="matplotlib.axis_1">
    <g id="xtick_1">
     <g id="text_1">
      <!-- Apple -->
      <g transform="translate(38.670817 206.430625)rotate(-90)scale(0.06 -0.06)">
       <defs>
        <path d="M 2188 4044 
L 1331 1722 
L 3047 1722 
L 2188 4044 
z
M 1831 4666 
L 2547 4666 
L 4325 0 
L 3669 0 
L 3244 1197 
L 1141 1197 
L 716 0 
L 50 0 
L 1831 4666 
z
" id="DejaVuSans-41" transform="scale(0.015625)"/>
        <path d="M 1159 525 
L 1159 -1331 
L 581 -1331 
L 581 3500 
L 1159 3500 
L 1159 2969 
Q 1341 3281 1617 3432 
Q 1894 3584 2278 3584 
Q 2916 3584 3314 3078 
Q 3713 2572 3713 1747 
Q 3713 922 3314 415 
Q 2916 -91 2278 -91 
Q 1894 -91 1617 61 
Q 1341 213 1159 525 
z
M 3116 1747 
Q 3116 2381 2855 2742 
Q 2594 3103 2138 3103 
Q 1681 3103 1420 2742 
Q 1159 2381 1159 1747 
Q 1159 1113 1420 752 
Q 1681 391 2138 391 
Q 2594 391 2855 752 
Q 3116 1113 3116 1747 
z
" id="DejaVuSans-70" transform="scale(0.015625)"/>
        <path d="M 603 4863 
L 1178 4863 
L 1178 0 
L 603 0 
L 603 4863 
z
" id="DejaVuSans-6c" transform="scale(0.015625)"/>
        <path d="M 3597 1894 
L 3597 1613 
L 953 1613 
Q 991 1019 1311 708 
Q 1631 397 2203 397 
Q 2534 397 2845 478 
Q 3156 559 3463 722 
L 3463 178 
Q 3153 47 2828 -22 
Q 2503 -91 2169 -91 
Q 1331 -91 842 396 
Q 353 884 353 1716 
Q 353 2575 817 3079 
Q 1281 3584 2069 3584 
Q 2775 3584 3186 3129 
Q 3597 2675 3597 1894 
z
M 3022 2063 
Q 3016 2534 2758 2815 
Q 2500 3097 2075 3097 
Q 1594 3097 1305 2825 
Q 1016 2553 972 2059 
L 3022 2063 
z
" id="DejaVuSans-65" transform="scale(0.015625)"/>
       </defs>
       <use xlink:href="#DejaVuSans-41"/>
       <use x="68.408203" xlink:href="#DejaVuSans-70"/>
       <use x="131.884766" xlink:href="#DejaVuSans-70"/>
       <use x="195.361328" xlink:href="#DejaVuSans-6c"/>
       <use x="223.144531" xlink:href="#DejaVuSans-65"/>
      </g>
     </g>
    </g>
    <g id="xtick_2">
     <g id="text_2">
      <!-- Taiwan Semiconductor Manufacturing -->
      <g transform="translate(45.294951 302.2)rotate(-90)scale(0.06 -0.06)">
       <defs>
        <path d="M -19 4666 
L 3928 4666 
L 3928 4134 
L 2272 4134 
L 2272 0 
L 1638 0 
L 1638 4134 
L -19 4134 
L -19 4666 
z
" id="DejaVuSans-54" transform="scale(0.015625)"/>
        <path d="M 2194 1759 
Q 1497 1759 1228 1600 
Q 959 1441 959 1056 
Q 959 750 1161 570 
Q 1363 391 1709 391 
Q 2188 391 2477 730 
Q 2766 1069 2766 1631 
L 2766 1759 
L 2194 1759 
z
M 3341 1997 
L 3341 0 
L 2766 0 
L 2766 531 
Q 2569 213 2275 61 
Q 1981 -91 1556 -91 
Q 1019 -91 701 211 
Q 384 513 384 1019 
Q 384 1609 779 1909 
Q 1175 2209 1959 2209 
L 2766 2209 
L 2766 2266 
Q 2766 2663 2505 2880 
Q 2244 3097 1772 3097 
Q 1472 3097 1187 3025 
Q 903 2953 641 2809 
L 641 3341 
Q 956 3463 1253 3523 
Q 1550 3584 1831 3584 
Q 2591 3584 2966 3190 
Q 3341 2797 3341 1997 
z
" id="DejaVuSans-61" transform="scale(0.015625)"/>
        <path d="M 603 3500 
L 1178 3500 
L 1178 0 
L 603 0 
L 603 3500 
z
M 603 4863 
L 1178 4863 
L 1178 4134 
L 603 4134 
L 603 4863 
z
" id="DejaVuSans-69" transform="scale(0.015625)"/>
        <path d="M 269 3500 
L 844 3500 
L 1563 769 
L 2278 3500 
L 2956 3500 
L 3675 769 
L 4391 3500 
L 4966 3500 
L 4050 0 
L 3372 0 
L 2619 2869 
L 1863 0 
L 1184 0 
L 269 3500 
z
" id="DejaVuSans-77" transform="scale(0.015625)"/>
        <path d="M 3513 2113 
L 3513 0 
L 2938 0 
L 2938 2094 
Q 2938 2591 2744 2837 
Q 2550 3084 2163 3084 
Q 1697 3084 1428 2787 
Q 1159 2491 1159 1978 
L 1159 0 
L 581 0 
L 581 3500 
L 1159 3500 
L 1159 2956 
Q 1366 3272 1645 3428 
Q 1925 3584 2291 3584 
Q 2894 3584 3203 3211 
Q 3513 2838 3513 2113 
z
" id="DejaVuSans-6e" transform="scale(0.015625)"/>
        <path id="DejaVuSans-20" transform="scale(0.015625)"/>
        <path d="M 3425 4513 
L 3425 3897 
Q 3066 4069 2747 4153 
Q 2428 4238 2131 4238 
Q 1616 4238 1336 4038 
Q 1056 3838 1056 3469 
Q 1056 3159 1242 3001 
Q 1428 2844 1947 2747 
L 2328 2669 
Q 3034 2534 3370 2195 
Q 3706 1856 3706 1288 
Q 3706 609 3251 259 
Q 2797 -91 1919 -91 
Q 1588 -91 1214 -16 
Q 841 59 441 206 
L 441 856 
Q 825 641 1194 531 
Q 1563 422 1919 422 
Q 2459 422 2753 634 
Q 3047 847 3047 1241 
Q 3047 1584 2836 1778 
Q 2625 1972 2144 2069 
L 1759 2144 
Q 1053 2284 737 2584 
Q 422 2884 422 3419 
Q 422 4038 858 4394 
Q 1294 4750 2059 4750 
Q 2388 4750 2728 4690 
Q 3069 4631 3425 4513 
z
" id="DejaVuSans-53" transform="scale(0.015625)"/>
        <path d="M 3328 2828 
Q 3544 3216 3844 3400 
Q 4144 3584 4550 3584 
Q 5097 3584 5394 3201 
Q 5691 2819 5691 2113 
L 5691 0 
L 5113 0 
L 5113 2094 
Q 5113 2597 4934 2840 
Q 4756 3084 4391 3084 
Q 3944 3084 3684 2787 
Q 3425 2491 3425 1978 
L 3425 0 
L 2847 0 
L 2847 2094 
Q 2847 2600 2669 2842 
Q 2491 3084 2119 3084 
Q 1678 3084 1418 2786 
Q 1159 2488 1159 1978 
L 1159 0 
L 581 0 
L 581 3500 
L 1159 3500 
L 1159 2956 
Q 1356 3278 1631 3431 
Q 1906 3584 2284 3584 
Q 2666 3584 2933 3390 
Q 3200 3197 3328 2828 
z
" id="DejaVuSans-6d" transform="scale(0.015625)"/>
        <path d="M 3122 3366 
L 3122 2828 
Q 2878 2963 2633 3030 
Q 2388 3097 2138 3097 
Q 1578 3097 1268 2742 
Q 959 2388 959 1747 
Q 959 1106 1268 751 
Q 1578 397 2138 397 
Q 2388 397 2633 464 
Q 2878 531 3122 666 
L 3122 134 
Q 2881 22 2623 -34 
Q 2366 -91 2075 -91 
Q 1284 -91 818 406 
Q 353 903 353 1747 
Q 353 2603 823 3093 
Q 1294 3584 2113 3584 
Q 2378 3584 2631 3529 
Q 2884 3475 3122 3366 
z
" id="DejaVuSans-63" transform="scale(0.015625)"/>
        <path d="M 1959 3097 
Q 1497 3097 1228 2736 
Q 959 2375 959 1747 
Q 959 1119 1226 758 
Q 1494 397 1959 397 
Q 2419 397 2687 759 
Q 2956 1122 2956 1747 
Q 2956 2369 2687 2733 
Q 2419 3097 1959 3097 
z
M 1959 3584 
Q 2709 3584 3137 3096 
Q 3566 2609 3566 1747 
Q 3566 888 3137 398 
Q 2709 -91 1959 -91 
Q 1206 -91 779 398 
Q 353 888 353 1747 
Q 353 2609 779 3096 
Q 1206 3584 1959 3584 
z
" id="DejaVuSans-6f" transform="scale(0.015625)"/>
        <path d="M 2906 2969 
L 2906 4863 
L 3481 4863 
L 3481 0 
L 2906 0 
L 2906 525 
Q 2725 213 2448 61 
Q 2172 -91 1784 -91 
Q 1150 -91 751 415 
Q 353 922 353 1747 
Q 353 2572 751 3078 
Q 1150 3584 1784 3584 
Q 2172 3584 2448 3432 
Q 2725 3281 2906 2969 
z
M 947 1747 
Q 947 1113 1208 752 
Q 1469 391 1925 391 
Q 2381 391 2643 752 
Q 2906 1113 2906 1747 
Q 2906 2381 2643 2742 
Q 2381 3103 1925 3103 
Q 1469 3103 1208 2742 
Q 947 2381 947 1747 
z
" id="DejaVuSans-64" transform="scale(0.015625)"/>
        <path d="M 544 1381 
L 544 3500 
L 1119 3500 
L 1119 1403 
Q 1119 906 1312 657 
Q 1506 409 1894 409 
Q 2359 409 2629 706 
Q 2900 1003 2900 1516 
L 2900 3500 
L 3475 3500 
L 3475 0 
L 2900 0 
L 2900 538 
Q 2691 219 2414 64 
Q 2138 -91 1772 -91 
Q 1169 -91 856 284 
Q 544 659 544 1381 
z
M 1991 3584 
L 1991 3584 
z
" id="DejaVuSans-75" transform="scale(0.015625)"/>
        <path d="M 1172 4494 
L 1172 3500 
L 2356 3500 
L 2356 3053 
L 1172 3053 
L 1172 1153 
Q 1172 725 1289 603 
Q 1406 481 1766 481 
L 2356 481 
L 2356 0 
L 1766 0 
Q 1100 0 847 248 
Q 594 497 594 1153 
L 594 3053 
L 172 3053 
L 172 3500 
L 594 3500 
L 594 4494 
L 1172 4494 
z
" id="DejaVuSans-74" transform="scale(0.015625)"/>
        <path d="M 2631 2963 
Q 2534 3019 2420 3045 
Q 2306 3072 2169 3072 
Q 1681 3072 1420 2755 
Q 1159 2438 1159 1844 
L 1159 0 
L 581 0 
L 581 3500 
L 1159 3500 
L 1159 2956 
Q 1341 3275 1631 3429 
Q 1922 3584 2338 3584 
Q 2397 3584 2469 3576 
Q 2541 3569 2628 3553 
L 2631 2963 
z
" id="DejaVuSans-72" transform="scale(0.015625)"/>
        <path d="M 628 4666 
L 1569 4666 
L 2759 1491 
L 3956 4666 
L 4897 4666 
L 4897 0 
L 4281 0 
L 4281 4097 
L 3078 897 
L 2444 897 
L 1241 4097 
L 1241 0 
L 628 0 
L 628 4666 
z
" id="DejaVuSans-4d" transform="scale(0.015625)"/>
        <path d="M 2375 4863 
L 2375 4384 
L 1825 4384 
Q 1516 4384 1395 4259 
Q 1275 4134 1275 3809 
L 1275 3500 
L 2222 3500 
L 2222 3053 
L 1275 3053 
L 1275 0 
L 697 0 
L 697 3053 
L 147 3053 
L 147 3500 
L 697 3500 
L 697 3744 
Q 697 4328 969 4595 
Q 1241 4863 1831 4863 
L 2375 4863 
z
" id="DejaVuSans-66" transform="scale(0.015625)"/>
        <path d="M 2906 1791 
Q 2906 2416 2648 2759 
Q 2391 3103 1925 3103 
Q 1463 3103 1205 2759 
Q 947 2416 947 1791 
Q 947 1169 1205 825 
Q 1463 481 1925 481 
Q 2391 481 2648 825 
Q 2906 1169 2906 1791 
z
M 3481 434 
Q 3481 -459 3084 -895 
Q 2688 -1331 1869 -1331 
Q 1566 -1331 1297 -1286 
Q 1028 -1241 775 -1147 
L 775 -588 
Q 1028 -725 1275 -790 
Q 1522 -856 1778 -856 
Q 2344 -856 2625 -561 
Q 2906 -266 2906 331 
L 2906 616 
Q 2728 306 2450 153 
Q 2172 0 1784 0 
Q 1141 0 747 490 
Q 353 981 353 1791 
Q 353 2603 747 3093 
Q 1141 3584 1784 3584 
Q 2172 3584 2450 3431 
Q 2728 3278 2906 2969 
L 2906 3500 
L 3481 3500 
L 3481 434 
z
" id="DejaVuSans-67" transform="scale(0.015625)"/>
       </defs>
       <use xlink:href="#DejaVuSans-54"/>
       <use x="44.583984" xlink:href="#DejaVuSans-61"/>
       <use x="105.863281" xlink:href="#DejaVuSans-69"/>
       <use x="133.646484" xlink:href="#DejaVuSans-77"/>
       <use x="215.433594" xlink:href="#DejaVuSans-61"/>
       <use x="276.712891" xlink:href="#DejaVuSans-6e"/>
       <use x="340.091797" xlink:href="#DejaVuSans-20"/>
       <use x="371.878906" xlink:href="#DejaVuSans-53"/>
       <use x="435.355469" xlink:href="#DejaVuSans-65"/>
       <use x="496.878906" xlink:href="#DejaVuSans-6d"/>
       <use x="594.291016" xlink:href="#DejaVuSans-69"/>
       <use x="622.074219" xlink:href="#DejaVuSans-63"/>
       <use x="677.054688" xlink:href="#DejaVuSans-6f"/>
       <use x="738.236328" xlink:href="#DejaVuSans-6e"/>
       <use x="801.615234" xlink:href="#DejaVuSans-64"/>
       <use x="865.091797" xlink:href="#DejaVuSans-75"/>
       <use x="928.470703" xlink:href="#DejaVuSans-63"/>
       <use x="983.451172" xlink:href="#DejaVuSans-74"/>
       <use x="1022.660156" xlink:href="#DejaVuSans-6f"/>
       <use x="1083.841797" xlink:href="#DejaVuSans-72"/>
       <use x="1124.955078" xlink:href="#DejaVuSans-20"/>
       <use x="1156.742188" xlink:href="#DejaVuSans-4d"/>
       <use x="1243.021484" xlink:href="#DejaVuSans-61"/>
       <use x="1304.300781" xlink:href="#DejaVuSans-6e"/>
       <use x="1367.679688" xlink:href="#DejaVuSans-75"/>
       <use x="1431.058594" xlink:href="#DejaVuSans-66"/>
       <use x="1466.263672" xlink:href="#DejaVuSans-61"/>
       <use x="1527.542969" xlink:href="#DejaVuSans-63"/>
       <use x="1582.523438" xlink:href="#DejaVuSans-74"/>
       <use x="1621.732422" xlink:href="#DejaVuSans-75"/>
       <use x="1685.111328" xlink:href="#DejaVuSans-72"/>
       <use x="1726.224609" xlink:href="#DejaVuSans-69"/>
       <use x="1754.007812" xlink:href="#DejaVuSans-6e"/>
       <use x="1817.386719" xlink:href="#DejaVuSans-67"/>
      </g>
     </g>
    </g>
    <g id="xtick_3">
     <g id="text_3">
      <!-- Intel -->
      <g transform="translate(51.919084 202.632812)rotate(-90)scale(0.06 -0.06)">
       <defs>
        <path d="M 628 4666 
L 1259 4666 
L 1259 0 
L 628 0 
L 628 4666 
z
" id="DejaVuSans-49" transform="scale(0.015625)"/>
       </defs>
       <use xlink:href="#DejaVuSans-49"/>
       <use x="29.492188" xlink:href="#DejaVuSans-6e"/>
       <use x="92.871094" xlink:href="#DejaVuSans-74"/>
       <use x="132.080078" xlink:href="#DejaVuSans-65"/>
       <use x="193.603516" xlink:href="#DejaVuSans-6c"/>
      </g>
     </g>
    </g>
    <g id="xtick_4">
     <g id="text_4">
      <!-- Texas instruments -->
      <g transform="translate(58.543218 243.874375)rotate(-90)scale(0.06 -0.06)">
       <defs>
        <path d="M 3513 3500 
L 2247 1797 
L 3578 0 
L 2900 0 
L 1881 1375 
L 863 0 
L 184 0 
L 1544 1831 
L 300 3500 
L 978 3500 
L 1906 2253 
L 2834 3500 
L 3513 3500 
z
" id="DejaVuSans-78" transform="scale(0.015625)"/>
        <path d="M 2834 3397 
L 2834 2853 
Q 2591 2978 2328 3040 
Q 2066 3103 1784 3103 
Q 1356 3103 1142 2972 
Q 928 2841 928 2578 
Q 928 2378 1081 2264 
Q 1234 2150 1697 2047 
L 1894 2003 
Q 2506 1872 2764 1633 
Q 3022 1394 3022 966 
Q 3022 478 2636 193 
Q 2250 -91 1575 -91 
Q 1294 -91 989 -36 
Q 684 19 347 128 
L 347 722 
Q 666 556 975 473 
Q 1284 391 1588 391 
Q 1994 391 2212 530 
Q 2431 669 2431 922 
Q 2431 1156 2273 1281 
Q 2116 1406 1581 1522 
L 1381 1569 
Q 847 1681 609 1914 
Q 372 2147 372 2553 
Q 372 3047 722 3315 
Q 1072 3584 1716 3584 
Q 2034 3584 2315 3537 
Q 2597 3491 2834 3397 
z
" id="DejaVuSans-73" transform="scale(0.015625)"/>
       </defs>
       <use xlink:href="#DejaVuSans-54"/>
       <use x="44.083984" xlink:href="#DejaVuSans-65"/>
       <use x="103.857422" xlink:href="#DejaVuSans-78"/>
       <use x="163.037109" xlink:href="#DejaVuSans-61"/>
       <use x="224.316406" xlink:href="#DejaVuSans-73"/>
       <use x="276.416016" xlink:href="#DejaVuSans-20"/>
       <use x="308.203125" xlink:href="#DejaVuSans-69"/>
       <use x="335.986328" xlink:href="#DejaVuSans-6e"/>
       <use x="399.365234" xlink:href="#DejaVuSans-73"/>
       <use x="451.464844" xlink:href="#DejaVuSans-74"/>
       <use x="490.673828" xlink:href="#DejaVuSans-72"/>
       <use x="531.787109" xlink:href="#DejaVuSans-75"/>
       <use x="595.166016" xlink:href="#DejaVuSans-6d"/>
       <use x="692.578125" xlink:href="#DejaVuSans-65"/>
       <use x="754.101562" xlink:href="#DejaVuSans-6e"/>
       <use x="817.480469" xlink:href="#DejaVuSans-74"/>
       <use x="856.689453" xlink:href="#DejaVuSans-73"/>
      </g>
     </g>
    </g>
    <g id="xtick_5">
     <g id="text_5">
      <!-- Dell -->
      <g transform="translate(65.167352 200.995)rotate(-90)scale(0.06 -0.06)">
       <defs>
        <path d="M 1259 4147 
L 1259 519 
L 2022 519 
Q 2988 519 3436 956 
Q 3884 1394 3884 2338 
Q 3884 3275 3436 3711 
Q 2988 4147 2022 4147 
L 1259 4147 
z
M 628 4666 
L 1925 4666 
Q 3281 4666 3915 4102 
Q 4550 3538 4550 2338 
Q 4550 1131 3912 565 
Q 3275 0 1925 0 
L 628 0 
L 628 4666 
z
" id="DejaVuSans-44" transform="scale(0.015625)"/>
       </defs>
       <use xlink:href="#DejaVuSans-44"/>
       <use x="77.001953" xlink:href="#DejaVuSans-65"/>
       <use x="138.525391" xlink:href="#DejaVuSans-6c"/>
       <use x="166.308594" xlink:href="#DejaVuSans-6c"/>
      </g>
     </g>
    </g>
    <g id="xtick_6">
     <g id="text_6">
      <!-- HP -->
      <g transform="translate(71.791485 197.479375)rotate(-90)scale(0.06 -0.06)">
       <defs>
        <path d="M 628 4666 
L 1259 4666 
L 1259 2753 
L 3553 2753 
L 3553 4666 
L 4184 4666 
L 4184 0 
L 3553 0 
L 3553 2222 
L 1259 2222 
L 1259 0 
L 628 0 
L 628 4666 
z
" id="DejaVuSans-48" transform="scale(0.015625)"/>
        <path d="M 1259 4147 
L 1259 2394 
L 2053 2394 
Q 2494 2394 2734 2622 
Q 2975 2850 2975 3272 
Q 2975 3691 2734 3919 
Q 2494 4147 2053 4147 
L 1259 4147 
z
M 628 4666 
L 2053 4666 
Q 2838 4666 3239 4311 
Q 3641 3956 3641 3272 
Q 3641 2581 3239 2228 
Q 2838 1875 2053 1875 
L 1259 1875 
L 1259 0 
L 628 0 
L 628 4666 
z
" id="DejaVuSans-50" transform="scale(0.015625)"/>
       </defs>
       <use xlink:href="#DejaVuSans-48"/>
       <use x="75.195312" xlink:href="#DejaVuSans-50"/>
      </g>
     </g>
    </g>
    <g id="xtick_7">
     <g id="text_7">
      <!-- Symantec -->
      <g transform="translate(78.415619 219.376563)rotate(-90)scale(0.06 -0.06)">
       <defs>
        <path d="M 2059 -325 
Q 1816 -950 1584 -1140 
Q 1353 -1331 966 -1331 
L 506 -1331 
L 506 -850 
L 844 -850 
Q 1081 -850 1212 -737 
Q 1344 -625 1503 -206 
L 1606 56 
L 191 3500 
L 800 3500 
L 1894 763 
L 2988 3500 
L 3597 3500 
L 2059 -325 
z
" id="DejaVuSans-79" transform="scale(0.015625)"/>
       </defs>
       <use xlink:href="#DejaVuSans-53"/>
       <use x="63.476562" xlink:href="#DejaVuSans-79"/>
       <use x="122.65625" xlink:href="#DejaVuSans-6d"/>
       <use x="220.068359" xlink:href="#DejaVuSans-61"/>
       <use x="281.347656" xlink:href="#DejaVuSans-6e"/>
       <use x="344.726562" xlink:href="#DejaVuSans-74"/>
       <use x="383.935547" xlink:href="#DejaVuSans-65"/>
       <use x="445.458984" xlink:href="#DejaVuSans-63"/>
      </g>
     </g>
    </g>
    <g id="xtick_8">
     <g id="text_8">
      <!-- Cisco -->
      <g transform="translate(85.039753 205.301875)rotate(-90)scale(0.06 -0.06)">
       <defs>
        <path d="M 4122 4306 
L 4122 3641 
Q 3803 3938 3442 4084 
Q 3081 4231 2675 4231 
Q 1875 4231 1450 3742 
Q 1025 3253 1025 2328 
Q 1025 1406 1450 917 
Q 1875 428 2675 428 
Q 3081 428 3442 575 
Q 3803 722 4122 1019 
L 4122 359 
Q 3791 134 3420 21 
Q 3050 -91 2638 -91 
Q 1578 -91 968 557 
Q 359 1206 359 2328 
Q 359 3453 968 4101 
Q 1578 4750 2638 4750 
Q 3056 4750 3426 4639 
Q 3797 4528 4122 4306 
z
" id="DejaVuSans-43" transform="scale(0.015625)"/>
       </defs>
       <use xlink:href="#DejaVuSans-43"/>
       <use x="69.824219" xlink:href="#DejaVuSans-69"/>
       <use x="97.607422" xlink:href="#DejaVuSans-73"/>
       <use x="149.707031" xlink:href="#DejaVuSans-63"/>
       <use x="204.6875" xlink:href="#DejaVuSans-6f"/>
      </g>
     </g>
    </g>
    <g id="xtick_9">
     <g id="text_9">
      <!-- Microsoft -->
      <g transform="translate(91.663886 216.65125)rotate(-90)scale(0.06 -0.06)">
       <use xlink:href="#DejaVuSans-4d"/>
       <use x="86.279297" xlink:href="#DejaVuSans-69"/>
       <use x="114.0625" xlink:href="#DejaVuSans-63"/>
       <use x="169.042969" xlink:href="#DejaVuSans-72"/>
       <use x="207.90625" xlink:href="#DejaVuSans-6f"/>
       <use x="269.087891" xlink:href="#DejaVuSans-73"/>
       <use x="321.1875" xlink:href="#DejaVuSans-6f"/>
       <use x="382.369141" xlink:href="#DejaVuSans-66"/>
       <use x="415.824219" xlink:href="#DejaVuSans-74"/>
      </g>
     </g>
    </g>
    <g id="xtick_10">
     <g id="text_10">
      <!-- Yahoo -->
      <g transform="translate(98.28802 207.010938)rotate(-90)scale(0.06 -0.06)">
       <defs>
        <path d="M -13 4666 
L 666 4666 
L 1959 2747 
L 3244 4666 
L 3922 4666 
L 2272 2222 
L 2272 0 
L 1638 0 
L 1638 2222 
L -13 4666 
z
" id="DejaVuSans-59" transform="scale(0.015625)"/>
        <path d="M 3513 2113 
L 3513 0 
L 2938 0 
L 2938 2094 
Q 2938 2591 2744 2837 
Q 2550 3084 2163 3084 
Q 1697 3084 1428 2787 
Q 1159 2491 1159 1978 
L 1159 0 
L 581 0 
L 581 4863 
L 1159 4863 
L 1159 2956 
Q 1366 3272 1645 3428 
Q 1925 3584 2291 3584 
Q 2894 3584 3203 3211 
Q 3513 2838 3513 2113 
z
" id="DejaVuSans-68" transform="scale(0.015625)"/>
       </defs>
       <use xlink:href="#DejaVuSans-59"/>
       <use x="47.333984" xlink:href="#DejaVuSans-61"/>
       <use x="108.613281" xlink:href="#DejaVuSans-68"/>
       <use x="171.992188" xlink:href="#DejaVuSans-6f"/>
       <use x="233.173828" xlink:href="#DejaVuSans-6f"/>
      </g>
     </g>
    </g>
    <g id="xtick_11">
     <g id="text_11">
      <!-- Amazon -->
      <g transform="translate(104.912154 213.597813)rotate(-90)scale(0.06 -0.06)">
       <defs>
        <path d="M 353 3500 
L 3084 3500 
L 3084 2975 
L 922 459 
L 3084 459 
L 3084 0 
L 275 0 
L 275 525 
L 2438 3041 
L 353 3041 
L 353 3500 
z
" id="DejaVuSans-7a" transform="scale(0.015625)"/>
       </defs>
       <use xlink:href="#DejaVuSans-41"/>
       <use x="68.408203" xlink:href="#DejaVuSans-6d"/>
       <use x="165.820312" xlink:href="#DejaVuSans-61"/>
       <use x="227.099609" xlink:href="#DejaVuSans-7a"/>
       <use x="279.589844" xlink:href="#DejaVuSans-6f"/>
       <use x="340.771484" xlink:href="#DejaVuSans-6e"/>
      </g>
     </g>
    </g>
    <g id="xtick_12">
     <g id="text_12">
      <!-- Google/Alphabet -->
      <g transform="translate(111.536287 239.442813)rotate(-90)scale(0.06 -0.06)">
       <defs>
        <path d="M 3809 666 
L 3809 1919 
L 2778 1919 
L 2778 2438 
L 4434 2438 
L 4434 434 
Q 4069 175 3628 42 
Q 3188 -91 2688 -91 
Q 1594 -91 976 548 
Q 359 1188 359 2328 
Q 359 3472 976 4111 
Q 1594 4750 2688 4750 
Q 3144 4750 3555 4637 
Q 3966 4525 4313 4306 
L 4313 3634 
Q 3963 3931 3569 4081 
Q 3175 4231 2741 4231 
Q 1884 4231 1454 3753 
Q 1025 3275 1025 2328 
Q 1025 1384 1454 906 
Q 1884 428 2741 428 
Q 3075 428 3337 486 
Q 3600 544 3809 666 
z
" id="DejaVuSans-47" transform="scale(0.015625)"/>
        <path d="M 1625 4666 
L 2156 4666 
L 531 -594 
L 0 -594 
L 1625 4666 
z
" id="DejaVuSans-2f" transform="scale(0.015625)"/>
        <path d="M 3116 1747 
Q 3116 2381 2855 2742 
Q 2594 3103 2138 3103 
Q 1681 3103 1420 2742 
Q 1159 2381 1159 1747 
Q 1159 1113 1420 752 
Q 1681 391 2138 391 
Q 2594 391 2855 752 
Q 3116 1113 3116 1747 
z
M 1159 2969 
Q 1341 3281 1617 3432 
Q 1894 3584 2278 3584 
Q 2916 3584 3314 3078 
Q 3713 2572 3713 1747 
Q 3713 922 3314 415 
Q 2916 -91 2278 -91 
Q 1894 -91 1617 61 
Q 1341 213 1159 525 
L 1159 0 
L 581 0 
L 581 4863 
L 1159 4863 
L 1159 2969 
z
" id="DejaVuSans-62" transform="scale(0.015625)"/>
       </defs>
       <use xlink:href="#DejaVuSans-47"/>
       <use x="77.490234" xlink:href="#DejaVuSans-6f"/>
       <use x="138.671875" xlink:href="#DejaVuSans-6f"/>
       <use x="199.853516" xlink:href="#DejaVuSans-67"/>
       <use x="263.330078" xlink:href="#DejaVuSans-6c"/>
       <use x="291.113281" xlink:href="#DejaVuSans-65"/>
       <use x="352.636719" xlink:href="#DejaVuSans-2f"/>
       <use x="386.328125" xlink:href="#DejaVuSans-41"/>
       <use x="454.736328" xlink:href="#DejaVuSans-6c"/>
       <use x="482.519531" xlink:href="#DejaVuSans-70"/>
       <use x="545.996094" xlink:href="#DejaVuSans-68"/>
       <use x="609.375" xlink:href="#DejaVuSans-61"/>
       <use x="670.654297" xlink:href="#DejaVuSans-62"/>
       <use x="734.130859" xlink:href="#DejaVuSans-65"/>
       <use x="795.654297" xlink:href="#DejaVuSans-74"/>
      </g>
     </g>
    </g>
    <g id="xtick_13">
     <g id="text_13">
      <!-- AIG -->
      <g transform="translate(118.160421 199.872813)rotate(-90)scale(0.06 -0.06)">
       <use xlink:href="#DejaVuSans-41"/>
       <use x="68.408203" xlink:href="#DejaVuSans-49"/>
       <use x="97.900391" xlink:href="#DejaVuSans-47"/>
      </g>
     </g>
    </g>
    <g id="xtick_14">
     <g id="text_14">
      <!-- Valero Energy -->
      <g transform="translate(124.784555 230.941563)rotate(-90)scale(0.06 -0.06)">
       <defs>
        <path d="M 1831 0 
L 50 4666 
L 709 4666 
L 2188 738 
L 3669 4666 
L 4325 4666 
L 2547 0 
L 1831 0 
z
" id="DejaVuSans-56" transform="scale(0.015625)"/>
        <path d="M 628 4666 
L 3578 4666 
L 3578 4134 
L 1259 4134 
L 1259 2753 
L 3481 2753 
L 3481 2222 
L 1259 2222 
L 1259 531 
L 3634 531 
L 3634 0 
L 628 0 
L 628 4666 
z
" id="DejaVuSans-45" transform="scale(0.015625)"/>
       </defs>
       <use xlink:href="#DejaVuSans-56"/>
       <use x="60.658203" xlink:href="#DejaVuSans-61"/>
       <use x="121.9375" xlink:href="#DejaVuSans-6c"/>
       <use x="149.720703" xlink:href="#DejaVuSans-65"/>
       <use x="211.244141" xlink:href="#DejaVuSans-72"/>
       <use x="250.107422" xlink:href="#DejaVuSans-6f"/>
       <use x="311.289062" xlink:href="#DejaVuSans-20"/>
       <use x="343.076172" xlink:href="#DejaVuSans-45"/>
       <use x="406.259766" xlink:href="#DejaVuSans-6e"/>
       <use x="469.638672" xlink:href="#DejaVuSans-65"/>
       <use x="531.162109" xlink:href="#DejaVuSans-72"/>
       <use x="570.525391" xlink:href="#DejaVuSans-67"/>
       <use x="634.001953" xlink:href="#DejaVuSans-79"/>
      </g>
     </g>
    </g>
    <g id="xtick_15">
     <g id="text_15">
      <!-- American express -->
      <g transform="translate(131.408688 243.030625)rotate(-90)scale(0.06 -0.06)">
       <use xlink:href="#DejaVuSans-41"/>
       <use x="68.408203" xlink:href="#DejaVuSans-6d"/>
       <use x="165.820312" xlink:href="#DejaVuSans-65"/>
       <use x="227.34375" xlink:href="#DejaVuSans-72"/>
       <use x="268.457031" xlink:href="#DejaVuSans-69"/>
       <use x="296.240234" xlink:href="#DejaVuSans-63"/>
       <use x="351.220703" xlink:href="#DejaVuSans-61"/>
       <use x="412.5" xlink:href="#DejaVuSans-6e"/>
       <use x="475.878906" xlink:href="#DejaVuSans-20"/>
       <use x="507.666016" xlink:href="#DejaVuSans-65"/>
       <use x="567.439453" xlink:href="#DejaVuSans-78"/>
       <use x="626.619141" xlink:href="#DejaVuSans-70"/>
       <use x="690.095703" xlink:href="#DejaVuSans-72"/>
       <use x="728.958984" xlink:href="#DejaVuSans-65"/>
       <use x="790.482422" xlink:href="#DejaVuSans-73"/>
       <use x="842.582031" xlink:href="#DejaVuSans-73"/>
      </g>
     </g>
    </g>
    <g id="xtick_16">
     <g id="text_16">
      <!-- Goldman Sachs -->
      <g transform="translate(138.032822 236.089375)rotate(-90)scale(0.06 -0.06)">
       <use xlink:href="#DejaVuSans-47"/>
       <use x="77.490234" xlink:href="#DejaVuSans-6f"/>
       <use x="138.671875" xlink:href="#DejaVuSans-6c"/>
       <use x="166.455078" xlink:href="#DejaVuSans-64"/>
       <use x="229.931641" xlink:href="#DejaVuSans-6d"/>
       <use x="327.34375" xlink:href="#DejaVuSans-61"/>
       <use x="388.623047" xlink:href="#DejaVuSans-6e"/>
       <use x="452.001953" xlink:href="#DejaVuSans-20"/>
       <use x="483.789062" xlink:href="#DejaVuSans-53"/>
       <use x="547.265625" xlink:href="#DejaVuSans-61"/>
       <use x="608.544922" xlink:href="#DejaVuSans-63"/>
       <use x="663.525391" xlink:href="#DejaVuSans-68"/>
       <use x="726.904297" xlink:href="#DejaVuSans-73"/>
      </g>
     </g>
    </g>
    <g id="xtick_17">
     <g id="text_17">
      <!-- Wells Fargo -->
      <g transform="translate(144.656956 223.409688)rotate(-90)scale(0.06 -0.06)">
       <defs>
        <path d="M 213 4666 
L 850 4666 
L 1831 722 
L 2809 4666 
L 3519 4666 
L 4500 722 
L 5478 4666 
L 6119 4666 
L 4947 0 
L 4153 0 
L 3169 4050 
L 2175 0 
L 1381 0 
L 213 4666 
z
" id="DejaVuSans-57" transform="scale(0.015625)"/>
        <path d="M 628 4666 
L 3309 4666 
L 3309 4134 
L 1259 4134 
L 1259 2759 
L 3109 2759 
L 3109 2228 
L 1259 2228 
L 1259 0 
L 628 0 
L 628 4666 
z
" id="DejaVuSans-46" transform="scale(0.015625)"/>
       </defs>
       <use xlink:href="#DejaVuSans-57"/>
       <use x="93.001953" xlink:href="#DejaVuSans-65"/>
       <use x="154.525391" xlink:href="#DejaVuSans-6c"/>
       <use x="182.308594" xlink:href="#DejaVuSans-6c"/>
       <use x="210.091797" xlink:href="#DejaVuSans-73"/>
       <use x="262.191406" xlink:href="#DejaVuSans-20"/>
       <use x="293.978516" xlink:href="#DejaVuSans-46"/>
       <use x="342.373047" xlink:href="#DejaVuSans-61"/>
       <use x="403.652344" xlink:href="#DejaVuSans-72"/>
       <use x="443.015625" xlink:href="#DejaVuSans-67"/>
       <use x="506.492188" xlink:href="#DejaVuSans-6f"/>
      </g>
     </g>
    </g>
    <g id="xtick_18">
     <g id="text_18">
      <!-- Bank of America -->
      <g transform="translate(151.281089 238.766875)rotate(-90)scale(0.06 -0.06)">
       <defs>
        <path d="M 1259 2228 
L 1259 519 
L 2272 519 
Q 2781 519 3026 730 
Q 3272 941 3272 1375 
Q 3272 1813 3026 2020 
Q 2781 2228 2272 2228 
L 1259 2228 
z
M 1259 4147 
L 1259 2741 
L 2194 2741 
Q 2656 2741 2882 2914 
Q 3109 3088 3109 3444 
Q 3109 3797 2882 3972 
Q 2656 4147 2194 4147 
L 1259 4147 
z
M 628 4666 
L 2241 4666 
Q 2963 4666 3353 4366 
Q 3744 4066 3744 3513 
Q 3744 3084 3544 2831 
Q 3344 2578 2956 2516 
Q 3422 2416 3680 2098 
Q 3938 1781 3938 1306 
Q 3938 681 3513 340 
Q 3088 0 2303 0 
L 628 0 
L 628 4666 
z
" id="DejaVuSans-42" transform="scale(0.015625)"/>
        <path d="M 581 4863 
L 1159 4863 
L 1159 1991 
L 2875 3500 
L 3609 3500 
L 1753 1863 
L 3688 0 
L 2938 0 
L 1159 1709 
L 1159 0 
L 581 0 
L 581 4863 
z
" id="DejaVuSans-6b" transform="scale(0.015625)"/>
       </defs>
       <use xlink:href="#DejaVuSans-42"/>
       <use x="68.603516" xlink:href="#DejaVuSans-61"/>
       <use x="129.882812" xlink:href="#DejaVuSans-6e"/>
       <use x="193.261719" xlink:href="#DejaVuSans-6b"/>
       <use x="251.171875" xlink:href="#DejaVuSans-20"/>
       <use x="282.958984" xlink:href="#DejaVuSans-6f"/>
       <use x="344.140625" xlink:href="#DejaVuSans-66"/>
       <use x="379.345703" xlink:href="#DejaVuSans-20"/>
       <use x="411.132812" xlink:href="#DejaVuSans-41"/>
       <use x="479.541016" xlink:href="#DejaVuSans-6d"/>
       <use x="576.953125" xlink:href="#DejaVuSans-65"/>
       <use x="638.476562" xlink:href="#DejaVuSans-72"/>
       <use x="679.589844" xlink:href="#DejaVuSans-69"/>
       <use x="707.373047" xlink:href="#DejaVuSans-63"/>
       <use x="762.353516" xlink:href="#DejaVuSans-61"/>
      </g>
     </g>
    </g>
    <g id="xtick_19">
     <g id="text_19">
      <!-- JPMorgan Chase -->
      <g transform="translate(157.905223 237.62875)rotate(-90)scale(0.06 -0.06)">
       <defs>
        <path d="M 628 4666 
L 1259 4666 
L 1259 325 
Q 1259 -519 939 -900 
Q 619 -1281 -91 -1281 
L -331 -1281 
L -331 -750 
L -134 -750 
Q 284 -750 456 -515 
Q 628 -281 628 325 
L 628 4666 
z
" id="DejaVuSans-4a" transform="scale(0.015625)"/>
       </defs>
       <use xlink:href="#DejaVuSans-4a"/>
       <use x="29.492188" xlink:href="#DejaVuSans-50"/>
       <use x="89.794922" xlink:href="#DejaVuSans-4d"/>
       <use x="176.074219" xlink:href="#DejaVuSans-6f"/>
       <use x="237.255859" xlink:href="#DejaVuSans-72"/>
       <use x="276.619141" xlink:href="#DejaVuSans-67"/>
       <use x="340.095703" xlink:href="#DejaVuSans-61"/>
       <use x="401.375" xlink:href="#DejaVuSans-6e"/>
       <use x="464.753906" xlink:href="#DejaVuSans-20"/>
       <use x="496.541016" xlink:href="#DejaVuSans-43"/>
       <use x="566.365234" xlink:href="#DejaVuSans-68"/>
       <use x="629.744141" xlink:href="#DejaVuSans-61"/>
       <use x="691.023438" xlink:href="#DejaVuSans-73"/>
       <use x="743.123047" xlink:href="#DejaVuSans-65"/>
      </g>
     </g>
    </g>
    <g id="xtick_20">
     <g id="text_20">
      <!-- Ford -->
      <g transform="translate(164.529357 202.424688)rotate(-90)scale(0.06 -0.06)">
       <use xlink:href="#DejaVuSans-46"/>
       <use x="53.894531" xlink:href="#DejaVuSans-6f"/>
       <use x="115.076172" xlink:href="#DejaVuSans-72"/>
       <use x="154.439453" xlink:href="#DejaVuSans-64"/>
      </g>
     </g>
    </g>
    <g id="xtick_21">
     <g id="text_21">
      <!-- Canon -->
      <g transform="translate(171.15349 208.492188)rotate(-90)scale(0.06 -0.06)">
       <use xlink:href="#DejaVuSans-43"/>
       <use x="69.824219" xlink:href="#DejaVuSans-61"/>
       <use x="131.103516" xlink:href="#DejaVuSans-6e"/>
       <use x="194.482422" xlink:href="#DejaVuSans-6f"/>
       <use x="255.664062" xlink:href="#DejaVuSans-6e"/>
      </g>
     </g>
    </g>
    <g id="xtick_22">
     <g id="text_22">
      <!-- Sony -->
      <g transform="translate(177.777624 204.183438)rotate(-90)scale(0.06 -0.06)">
       <use xlink:href="#DejaVuSans-53"/>
       <use x="63.476562" xlink:href="#DejaVuSans-6f"/>
       <use x="124.658203" xlink:href="#DejaVuSans-6e"/>
       <use x="188.037109" xlink:href="#DejaVuSans-79"/>
      </g>
     </g>
    </g>
    <g id="xtick_23">
     <g id="text_23">
      <!-- Mitsubishi -->
      <g transform="translate(184.401758 219.544375)rotate(-90)scale(0.06 -0.06)">
       <use xlink:href="#DejaVuSans-4d"/>
       <use x="86.279297" xlink:href="#DejaVuSans-69"/>
       <use x="114.0625" xlink:href="#DejaVuSans-74"/>
       <use x="153.271484" xlink:href="#DejaVuSans-73"/>
       <use x="205.371094" xlink:href="#DejaVuSans-75"/>
       <use x="268.75" xlink:href="#DejaVuSans-62"/>
       <use x="332.226562" xlink:href="#DejaVuSans-69"/>
       <use x="360.009766" xlink:href="#DejaVuSans-73"/>
       <use x="412.109375" xlink:href="#DejaVuSans-68"/>
       <use x="475.488281" xlink:href="#DejaVuSans-69"/>
      </g>
     </g>
    </g>
    <g id="xtick_24">
     <g id="text_24">
      <!-- Honda -->
      <g transform="translate(191.025891 208.82125)rotate(-90)scale(0.06 -0.06)">
       <use xlink:href="#DejaVuSans-48"/>
       <use x="75.195312" xlink:href="#DejaVuSans-6f"/>
       <use x="136.376953" xlink:href="#DejaVuSans-6e"/>
       <use x="199.755859" xlink:href="#DejaVuSans-64"/>
       <use x="263.232422" xlink:href="#DejaVuSans-61"/>
      </g>
     </g>
    </g>
    <g id="xtick_25">
     <g id="text_25">
      <!-- Toyota -->
      <g transform="translate(197.650025 208.916875)rotate(-90)scale(0.06 -0.06)">
       <use xlink:href="#DejaVuSans-54"/>
       <use x="44.083984" xlink:href="#DejaVuSans-6f"/>
       <use x="105.265625" xlink:href="#DejaVuSans-79"/>
       <use x="164.445312" xlink:href="#DejaVuSans-6f"/>
       <use x="225.626953" xlink:href="#DejaVuSans-74"/>
       <use x="264.835938" xlink:href="#DejaVuSans-61"/>
      </g>
     </g>
    </g>
    <g id="xtick_26">
     <g id="text_26">
      <!-- Navistar -->
      <g transform="translate(204.274159 214.354375)rotate(-90)scale(0.06 -0.06)">
       <defs>
        <path d="M 628 4666 
L 1478 4666 
L 3547 763 
L 3547 4666 
L 4159 4666 
L 4159 0 
L 3309 0 
L 1241 3903 
L 1241 0 
L 628 0 
L 628 4666 
z
" id="DejaVuSans-4e" transform="scale(0.015625)"/>
        <path d="M 191 3500 
L 800 3500 
L 1894 563 
L 2988 3500 
L 3597 3500 
L 2284 0 
L 1503 0 
L 191 3500 
z
" id="DejaVuSans-76" transform="scale(0.015625)"/>
       </defs>
       <use xlink:href="#DejaVuSans-4e"/>
       <use x="74.804688" xlink:href="#DejaVuSans-61"/>
       <use x="136.083984" xlink:href="#DejaVuSans-76"/>
       <use x="195.263672" xlink:href="#DejaVuSans-69"/>
       <use x="223.046875" xlink:href="#DejaVuSans-73"/>
       <use x="275.146484" xlink:href="#DejaVuSans-74"/>
       <use x="314.355469" xlink:href="#DejaVuSans-61"/>
       <use x="375.634766" xlink:href="#DejaVuSans-72"/>
      </g>
     </g>
    </g>
    <g id="xtick_27">
     <g id="text_27">
      <!-- IBM -->
      <g transform="translate(210.898293 200.412813)rotate(-90)scale(0.06 -0.06)">
       <use xlink:href="#DejaVuSans-49"/>
       <use x="29.492188" xlink:href="#DejaVuSans-42"/>
       <use x="98.095703" xlink:href="#DejaVuSans-4d"/>
      </g>
     </g>
    </g>
    <g id="xtick_28">
     <g id="text_28">
      <!-- General Electrics -->
      <g transform="translate(217.522426 240.26125)rotate(-90)scale(0.06 -0.06)">
       <use xlink:href="#DejaVuSans-47"/>
       <use x="77.490234" xlink:href="#DejaVuSans-65"/>
       <use x="139.013672" xlink:href="#DejaVuSans-6e"/>
       <use x="202.392578" xlink:href="#DejaVuSans-65"/>
       <use x="263.916016" xlink:href="#DejaVuSans-72"/>
       <use x="305.029297" xlink:href="#DejaVuSans-61"/>
       <use x="366.308594" xlink:href="#DejaVuSans-6c"/>
       <use x="394.091797" xlink:href="#DejaVuSans-20"/>
       <use x="425.878906" xlink:href="#DejaVuSans-45"/>
       <use x="489.0625" xlink:href="#DejaVuSans-6c"/>
       <use x="516.845703" xlink:href="#DejaVuSans-65"/>
       <use x="578.369141" xlink:href="#DejaVuSans-63"/>
       <use x="633.349609" xlink:href="#DejaVuSans-74"/>
       <use x="672.558594" xlink:href="#DejaVuSans-72"/>
       <use x="713.671875" xlink:href="#DejaVuSans-69"/>
       <use x="741.455078" xlink:href="#DejaVuSans-63"/>
       <use x="796.435547" xlink:href="#DejaVuSans-73"/>
      </g>
     </g>
    </g>
    <g id="xtick_29">
     <g id="text_29">
      <!-- 3M -->
      <g transform="translate(224.14656 198.34375)rotate(-90)scale(0.06 -0.06)">
       <defs>
        <path d="M 2597 2516 
Q 3050 2419 3304 2112 
Q 3559 1806 3559 1356 
Q 3559 666 3084 287 
Q 2609 -91 1734 -91 
Q 1441 -91 1130 -33 
Q 819 25 488 141 
L 488 750 
Q 750 597 1062 519 
Q 1375 441 1716 441 
Q 2309 441 2620 675 
Q 2931 909 2931 1356 
Q 2931 1769 2642 2001 
Q 2353 2234 1838 2234 
L 1294 2234 
L 1294 2753 
L 1863 2753 
Q 2328 2753 2575 2939 
Q 2822 3125 2822 3475 
Q 2822 3834 2567 4026 
Q 2313 4219 1838 4219 
Q 1578 4219 1281 4162 
Q 984 4106 628 3988 
L 628 4550 
Q 988 4650 1302 4700 
Q 1616 4750 1894 4750 
Q 2613 4750 3031 4423 
Q 3450 4097 3450 3541 
Q 3450 3153 3228 2886 
Q 3006 2619 2597 2516 
z
" id="DejaVuSans-33" transform="scale(0.015625)"/>
       </defs>
       <use xlink:href="#DejaVuSans-33"/>
       <use x="63.623047" xlink:href="#DejaVuSans-4d"/>
      </g>
     </g>
    </g>
    <g id="xtick_30">
     <g id="text_30">
      <!-- Caterpillar -->
      <g transform="translate(230.770694 220.679688)rotate(-90)scale(0.06 -0.06)">
       <use xlink:href="#DejaVuSans-43"/>
       <use x="69.824219" xlink:href="#DejaVuSans-61"/>
       <use x="131.103516" xlink:href="#DejaVuSans-74"/>
       <use x="170.3125" xlink:href="#DejaVuSans-65"/>
       <use x="231.835938" xlink:href="#DejaVuSans-72"/>
       <use x="272.949219" xlink:href="#DejaVuSans-70"/>
       <use x="336.425781" xlink:href="#DejaVuSans-69"/>
       <use x="364.208984" xlink:href="#DejaVuSans-6c"/>
       <use x="391.992188" xlink:href="#DejaVuSans-6c"/>
       <use x="419.775391" xlink:href="#DejaVuSans-61"/>
       <use x="481.054688" xlink:href="#DejaVuSans-72"/>
      </g>
     </g>
    </g>
    <g id="xtick_31">
     <g id="text_31">
      <!-- DuPont de Nemours -->
      <g transform="translate(237.394827 249.40375)rotate(-90)scale(0.06 -0.06)">
       <use xlink:href="#DejaVuSans-44"/>
       <use x="77.001953" xlink:href="#DejaVuSans-75"/>
       <use x="140.380859" xlink:href="#DejaVuSans-50"/>
       <use x="197.058594" xlink:href="#DejaVuSans-6f"/>
       <use x="258.240234" xlink:href="#DejaVuSans-6e"/>
       <use x="321.619141" xlink:href="#DejaVuSans-74"/>
       <use x="360.828125" xlink:href="#DejaVuSans-20"/>
       <use x="392.615234" xlink:href="#DejaVuSans-64"/>
       <use x="456.091797" xlink:href="#DejaVuSans-65"/>
       <use x="517.615234" xlink:href="#DejaVuSans-20"/>
       <use x="549.402344" xlink:href="#DejaVuSans-4e"/>
       <use x="624.207031" xlink:href="#DejaVuSans-65"/>
       <use x="685.730469" xlink:href="#DejaVuSans-6d"/>
       <use x="783.142578" xlink:href="#DejaVuSans-6f"/>
       <use x="844.324219" xlink:href="#DejaVuSans-75"/>
       <use x="907.703125" xlink:href="#DejaVuSans-72"/>
       <use x="948.816406" xlink:href="#DejaVuSans-73"/>
      </g>
     </g>
    </g>
    <g id="xtick_32">
     <g id="text_32">
      <!-- Xerox -->
      <g transform="translate(244.018961 206.247813)rotate(-90)scale(0.06 -0.06)">
       <defs>
        <path d="M 403 4666 
L 1081 4666 
L 2241 2931 
L 3406 4666 
L 4084 4666 
L 2584 2425 
L 4184 0 
L 3506 0 
L 2194 1984 
L 872 0 
L 191 0 
L 1856 2491 
L 403 4666 
z
" id="DejaVuSans-58" transform="scale(0.015625)"/>
       </defs>
       <use xlink:href="#DejaVuSans-58"/>
       <use x="64.005859" xlink:href="#DejaVuSans-65"/>
       <use x="125.529297" xlink:href="#DejaVuSans-72"/>
       <use x="164.392578" xlink:href="#DejaVuSans-6f"/>
       <use x="222.449219" xlink:href="#DejaVuSans-78"/>
      </g>
     </g>
    </g>
    <g id="xtick_33">
     <g id="text_33">
      <!-- Schlumberger -->
      <g transform="translate(250.643095 231.40375)rotate(-90)scale(0.06 -0.06)">
       <use xlink:href="#DejaVuSans-53"/>
       <use x="63.476562" xlink:href="#DejaVuSans-63"/>
       <use x="118.457031" xlink:href="#DejaVuSans-68"/>
       <use x="181.835938" xlink:href="#DejaVuSans-6c"/>
       <use x="209.619141" xlink:href="#DejaVuSans-75"/>
       <use x="272.998047" xlink:href="#DejaVuSans-6d"/>
       <use x="370.410156" xlink:href="#DejaVuSans-62"/>
       <use x="433.886719" xlink:href="#DejaVuSans-65"/>
       <use x="495.410156" xlink:href="#DejaVuSans-72"/>
       <use x="534.773438" xlink:href="#DejaVuSans-67"/>
       <use x="598.25" xlink:href="#DejaVuSans-65"/>
       <use x="659.773438" xlink:href="#DejaVuSans-72"/>
      </g>
     </g>
    </g>
    <g id="xtick_34">
     <g id="text_34">
      <!-- ConocoPhillips -->
      <g transform="translate(257.267228 232.676875)rotate(-90)scale(0.06 -0.06)">
       <use xlink:href="#DejaVuSans-43"/>
       <use x="69.824219" xlink:href="#DejaVuSans-6f"/>
       <use x="131.005859" xlink:href="#DejaVuSans-6e"/>
       <use x="194.384766" xlink:href="#DejaVuSans-6f"/>
       <use x="255.566406" xlink:href="#DejaVuSans-63"/>
       <use x="310.546875" xlink:href="#DejaVuSans-6f"/>
       <use x="371.728516" xlink:href="#DejaVuSans-50"/>
       <use x="432.03125" xlink:href="#DejaVuSans-68"/>
       <use x="495.410156" xlink:href="#DejaVuSans-69"/>
       <use x="523.193359" xlink:href="#DejaVuSans-6c"/>
       <use x="550.976562" xlink:href="#DejaVuSans-6c"/>
       <use x="578.759766" xlink:href="#DejaVuSans-69"/>
       <use x="606.542969" xlink:href="#DejaVuSans-70"/>
       <use x="670.019531" xlink:href="#DejaVuSans-73"/>
      </g>
     </g>
    </g>
    <g id="xtick_35">
     <g id="text_35">
      <!-- Chevron -->
      <g transform="translate(263.891362 214.39)rotate(-90)scale(0.06 -0.06)">
       <use xlink:href="#DejaVuSans-43"/>
       <use x="69.824219" xlink:href="#DejaVuSans-68"/>
       <use x="133.203125" xlink:href="#DejaVuSans-65"/>
       <use x="194.726562" xlink:href="#DejaVuSans-76"/>
       <use x="253.90625" xlink:href="#DejaVuSans-72"/>
       <use x="292.769531" xlink:href="#DejaVuSans-6f"/>
       <use x="353.951172" xlink:href="#DejaVuSans-6e"/>
      </g>
     </g>
    </g>
    <g id="xtick_36">
     <g id="text_36">
      <!-- Exxon -->
      <g transform="translate(270.515496 207.529375)rotate(-90)scale(0.06 -0.06)">
       <use xlink:href="#DejaVuSans-45"/>
       <use x="63.183594" xlink:href="#DejaVuSans-78"/>
       <use x="122.363281" xlink:href="#DejaVuSans-78"/>
       <use x="178.417969" xlink:href="#DejaVuSans-6f"/>
       <use x="239.599609" xlink:href="#DejaVuSans-6e"/>
      </g>
     </g>
    </g>
    <g id="xtick_37">
     <g id="text_37">
      <!-- Home Depot -->
      <g transform="translate(277.139629 227.120313)rotate(-90)scale(0.06 -0.06)">
       <use xlink:href="#DejaVuSans-48"/>
       <use x="75.195312" xlink:href="#DejaVuSans-6f"/>
       <use x="136.376953" xlink:href="#DejaVuSans-6d"/>
       <use x="233.789062" xlink:href="#DejaVuSans-65"/>
       <use x="295.3125" xlink:href="#DejaVuSans-20"/>
       <use x="327.099609" xlink:href="#DejaVuSans-44"/>
       <use x="404.101562" xlink:href="#DejaVuSans-65"/>
       <use x="465.625" xlink:href="#DejaVuSans-70"/>
       <use x="529.101562" xlink:href="#DejaVuSans-6f"/>
       <use x="590.283203" xlink:href="#DejaVuSans-74"/>
      </g>
     </g>
    </g>
    <g id="xtick_38">
     <g id="text_38">
      <!-- Wal-Mart -->
      <g transform="translate(283.763763 216.080312)rotate(-90)scale(0.06 -0.06)">
       <defs>
        <path d="M 313 2009 
L 1997 2009 
L 1997 1497 
L 313 1497 
L 313 2009 
z
" id="DejaVuSans-2d" transform="scale(0.015625)"/>
       </defs>
       <use xlink:href="#DejaVuSans-57"/>
       <use x="92.501953" xlink:href="#DejaVuSans-61"/>
       <use x="153.78125" xlink:href="#DejaVuSans-6c"/>
       <use x="181.564453" xlink:href="#DejaVuSans-2d"/>
       <use x="217.648438" xlink:href="#DejaVuSans-4d"/>
       <use x="303.927734" xlink:href="#DejaVuSans-61"/>
       <use x="365.207031" xlink:href="#DejaVuSans-72"/>
       <use x="406.320312" xlink:href="#DejaVuSans-74"/>
      </g>
     </g>
    </g>
    <g id="xtick_39">
     <g id="text_39">
      <!-- Philip Morris -->
      <g transform="translate(290.387897 225.955)rotate(-90)scale(0.06 -0.06)">
       <use xlink:href="#DejaVuSans-50"/>
       <use x="60.302734" xlink:href="#DejaVuSans-68"/>
       <use x="123.681641" xlink:href="#DejaVuSans-69"/>
       <use x="151.464844" xlink:href="#DejaVuSans-6c"/>
       <use x="179.248047" xlink:href="#DejaVuSans-69"/>
       <use x="207.03125" xlink:href="#DejaVuSans-70"/>
       <use x="270.507812" xlink:href="#DejaVuSans-20"/>
       <use x="302.294922" xlink:href="#DejaVuSans-4d"/>
       <use x="388.574219" xlink:href="#DejaVuSans-6f"/>
       <use x="449.755859" xlink:href="#DejaVuSans-72"/>
       <use x="489.119141" xlink:href="#DejaVuSans-72"/>
       <use x="530.232422" xlink:href="#DejaVuSans-69"/>
       <use x="558.015625" xlink:href="#DejaVuSans-73"/>
      </g>
     </g>
    </g>
    <g id="xtick_40">
     <g id="text_40">
      <!-- Coca Cola -->
      <g transform="translate(297.01203 219.297813)rotate(-90)scale(0.06 -0.06)">
       <use xlink:href="#DejaVuSans-43"/>
       <use x="69.824219" xlink:href="#DejaVuSans-6f"/>
       <use x="131.005859" xlink:href="#DejaVuSans-63"/>
       <use x="185.986328" xlink:href="#DejaVuSans-61"/>
       <use x="247.265625" xlink:href="#DejaVuSans-20"/>
       <use x="279.052734" xlink:href="#DejaVuSans-43"/>
       <use x="348.876953" xlink:href="#DejaVuSans-6f"/>
       <use x="410.058594" xlink:href="#DejaVuSans-6c"/>
       <use x="437.841797" xlink:href="#DejaVuSans-61"/>
      </g>
     </g>
    </g>
    <g id="xtick_41">
     <g id="text_41">
      <!-- Pepsi -->
      <g transform="translate(303.636164 205.043125)rotate(-90)scale(0.06 -0.06)">
       <use xlink:href="#DejaVuSans-50"/>
       <use x="56.677734" xlink:href="#DejaVuSans-65"/>
       <use x="118.201172" xlink:href="#DejaVuSans-70"/>
       <use x="181.677734" xlink:href="#DejaVuSans-73"/>
       <use x="233.777344" xlink:href="#DejaVuSans-69"/>
      </g>
     </g>
    </g>
    <g id="xtick_42">
     <g id="text_42">
      <!-- Kimberly-Clark -->
      <g transform="translate(310.260298 233.515)rotate(-90)scale(0.06 -0.06)">
       <defs>
        <path d="M 628 4666 
L 1259 4666 
L 1259 2694 
L 3353 4666 
L 4166 4666 
L 1850 2491 
L 4331 0 
L 3500 0 
L 1259 2247 
L 1259 0 
L 628 0 
L 628 4666 
z
" id="DejaVuSans-4b" transform="scale(0.015625)"/>
       </defs>
       <use xlink:href="#DejaVuSans-4b"/>
       <use x="65.576172" xlink:href="#DejaVuSans-69"/>
       <use x="93.359375" xlink:href="#DejaVuSans-6d"/>
       <use x="190.771484" xlink:href="#DejaVuSans-62"/>
       <use x="254.248047" xlink:href="#DejaVuSans-65"/>
       <use x="315.771484" xlink:href="#DejaVuSans-72"/>
       <use x="356.884766" xlink:href="#DejaVuSans-6c"/>
       <use x="384.667969" xlink:href="#DejaVuSans-79"/>
       <use x="442.097656" xlink:href="#DejaVuSans-2d"/>
       <use x="478.181641" xlink:href="#DejaVuSans-43"/>
       <use x="548.005859" xlink:href="#DejaVuSans-6c"/>
       <use x="575.789062" xlink:href="#DejaVuSans-61"/>
       <use x="637.068359" xlink:href="#DejaVuSans-72"/>
       <use x="678.181641" xlink:href="#DejaVuSans-6b"/>
      </g>
     </g>
    </g>
    <g id="xtick_43">
     <g id="text_43">
      <!-- Colgate-Palmolive -->
      <g transform="translate(316.884431 243.355938)rotate(-90)scale(0.06 -0.06)">
       <use xlink:href="#DejaVuSans-43"/>
       <use x="69.824219" xlink:href="#DejaVuSans-6f"/>
       <use x="131.005859" xlink:href="#DejaVuSans-6c"/>
       <use x="158.789062" xlink:href="#DejaVuSans-67"/>
       <use x="222.265625" xlink:href="#DejaVuSans-61"/>
       <use x="283.544922" xlink:href="#DejaVuSans-74"/>
       <use x="322.753906" xlink:href="#DejaVuSans-65"/>
       <use x="384.277344" xlink:href="#DejaVuSans-2d"/>
       <use x="420.361328" xlink:href="#DejaVuSans-50"/>
       <use x="476.164062" xlink:href="#DejaVuSans-61"/>
       <use x="537.443359" xlink:href="#DejaVuSans-6c"/>
       <use x="565.226562" xlink:href="#DejaVuSans-6d"/>
       <use x="662.638672" xlink:href="#DejaVuSans-6f"/>
       <use x="723.820312" xlink:href="#DejaVuSans-6c"/>
       <use x="751.603516" xlink:href="#DejaVuSans-69"/>
       <use x="779.386719" xlink:href="#DejaVuSans-76"/>
       <use x="838.566406" xlink:href="#DejaVuSans-65"/>
      </g>
     </g>
    </g>
    <g id="xtick_44">
     <g id="text_44">
      <!-- Procter Gamble -->
      <g transform="translate(323.508565 235.919688)rotate(-90)scale(0.06 -0.06)">
       <use xlink:href="#DejaVuSans-50"/>
       <use x="58.552734" xlink:href="#DejaVuSans-72"/>
       <use x="97.416016" xlink:href="#DejaVuSans-6f"/>
       <use x="158.597656" xlink:href="#DejaVuSans-63"/>
       <use x="213.578125" xlink:href="#DejaVuSans-74"/>
       <use x="252.787109" xlink:href="#DejaVuSans-65"/>
       <use x="314.310547" xlink:href="#DejaVuSans-72"/>
       <use x="355.423828" xlink:href="#DejaVuSans-20"/>
       <use x="387.210938" xlink:href="#DejaVuSans-47"/>
       <use x="464.701172" xlink:href="#DejaVuSans-61"/>
       <use x="525.980469" xlink:href="#DejaVuSans-6d"/>
       <use x="623.392578" xlink:href="#DejaVuSans-62"/>
       <use x="686.869141" xlink:href="#DejaVuSans-6c"/>
       <use x="714.652344" xlink:href="#DejaVuSans-65"/>
      </g>
     </g>
    </g>
    <g id="xtick_45">
     <g id="text_45">
      <!-- Walgreen -->
      <g transform="translate(330.132699 217.57)rotate(-90)scale(0.06 -0.06)">
       <use xlink:href="#DejaVuSans-57"/>
       <use x="92.501953" xlink:href="#DejaVuSans-61"/>
       <use x="153.78125" xlink:href="#DejaVuSans-6c"/>
       <use x="181.564453" xlink:href="#DejaVuSans-67"/>
       <use x="245.041016" xlink:href="#DejaVuSans-72"/>
       <use x="283.904297" xlink:href="#DejaVuSans-65"/>
       <use x="345.427734" xlink:href="#DejaVuSans-65"/>
       <use x="406.951172" xlink:href="#DejaVuSans-6e"/>
      </g>
     </g>
    </g>
    <g id="xtick_46">
     <g id="text_46">
      <!-- Boeing -->
      <g transform="translate(336.756832 210.1075)rotate(-90)scale(0.06 -0.06)">
       <use xlink:href="#DejaVuSans-42"/>
       <use x="68.603516" xlink:href="#DejaVuSans-6f"/>
       <use x="129.785156" xlink:href="#DejaVuSans-65"/>
       <use x="191.308594" xlink:href="#DejaVuSans-69"/>
       <use x="219.091797" xlink:href="#DejaVuSans-6e"/>
       <use x="282.470703" xlink:href="#DejaVuSans-67"/>
      </g>
     </g>
    </g>
    <g id="xtick_47">
     <g id="text_47">
      <!-- Lookheed Martin -->
      <g transform="translate(343.380966 239.448438)rotate(-90)scale(0.06 -0.06)">
       <defs>
        <path d="M 628 4666 
L 1259 4666 
L 1259 531 
L 3531 531 
L 3531 0 
L 628 0 
L 628 4666 
z
" id="DejaVuSans-4c" transform="scale(0.015625)"/>
       </defs>
       <use xlink:href="#DejaVuSans-4c"/>
       <use x="53.962891" xlink:href="#DejaVuSans-6f"/>
       <use x="115.144531" xlink:href="#DejaVuSans-6f"/>
       <use x="176.326172" xlink:href="#DejaVuSans-6b"/>
       <use x="234.236328" xlink:href="#DejaVuSans-68"/>
       <use x="297.615234" xlink:href="#DejaVuSans-65"/>
       <use x="359.138672" xlink:href="#DejaVuSans-65"/>
       <use x="420.662109" xlink:href="#DejaVuSans-64"/>
       <use x="484.138672" xlink:href="#DejaVuSans-20"/>
       <use x="515.925781" xlink:href="#DejaVuSans-4d"/>
       <use x="602.205078" xlink:href="#DejaVuSans-61"/>
       <use x="663.484375" xlink:href="#DejaVuSans-72"/>
       <use x="704.597656" xlink:href="#DejaVuSans-74"/>
       <use x="743.806641" xlink:href="#DejaVuSans-69"/>
       <use x="771.589844" xlink:href="#DejaVuSans-6e"/>
      </g>
     </g>
    </g>
    <g id="xtick_48">
     <g id="text_48">
      <!-- Northrop Grumman -->
      <g transform="translate(350.0051 247.935625)rotate(-90)scale(0.06 -0.06)">
       <use xlink:href="#DejaVuSans-4e"/>
       <use x="74.804688" xlink:href="#DejaVuSans-6f"/>
       <use x="135.986328" xlink:href="#DejaVuSans-72"/>
       <use x="177.099609" xlink:href="#DejaVuSans-74"/>
       <use x="216.308594" xlink:href="#DejaVuSans-68"/>
       <use x="279.6875" xlink:href="#DejaVuSans-72"/>
       <use x="318.550781" xlink:href="#DejaVuSans-6f"/>
       <use x="379.732422" xlink:href="#DejaVuSans-70"/>
       <use x="443.208984" xlink:href="#DejaVuSans-20"/>
       <use x="474.996094" xlink:href="#DejaVuSans-47"/>
       <use x="552.486328" xlink:href="#DejaVuSans-72"/>
       <use x="593.599609" xlink:href="#DejaVuSans-75"/>
       <use x="656.978516" xlink:href="#DejaVuSans-6d"/>
       <use x="754.390625" xlink:href="#DejaVuSans-6d"/>
       <use x="851.802734" xlink:href="#DejaVuSans-61"/>
       <use x="913.082031" xlink:href="#DejaVuSans-6e"/>
      </g>
     </g>
    </g>
    <g id="xtick_49">
     <g id="text_49">
      <!-- Johnson &amp; Johnson -->
      <g transform="translate(356.629234 245.133438)rotate(-90)scale(0.06 -0.06)">
       <defs>
        <path d="M 1556 2509 
Q 1272 2256 1139 2004 
Q 1006 1753 1006 1478 
Q 1006 1022 1337 719 
Q 1669 416 2169 416 
Q 2466 416 2725 514 
Q 2984 613 3213 813 
L 1556 2509 
z
M 1997 2859 
L 3584 1234 
Q 3769 1513 3872 1830 
Q 3975 2147 3994 2503 
L 4575 2503 
Q 4538 2091 4375 1687 
Q 4213 1284 3922 891 
L 4794 0 
L 4006 0 
L 3559 459 
Q 3234 181 2878 45 
Q 2522 -91 2113 -91 
Q 1359 -91 881 339 
Q 403 769 403 1441 
Q 403 1841 612 2192 
Q 822 2544 1241 2853 
Q 1091 3050 1012 3245 
Q 934 3441 934 3628 
Q 934 4134 1281 4442 
Q 1628 4750 2203 4750 
Q 2463 4750 2720 4694 
Q 2978 4638 3244 4525 
L 3244 3956 
Q 2972 4103 2725 4179 
Q 2478 4256 2266 4256 
Q 1938 4256 1733 4082 
Q 1528 3909 1528 3634 
Q 1528 3475 1620 3314 
Q 1713 3153 1997 2859 
z
" id="DejaVuSans-26" transform="scale(0.015625)"/>
       </defs>
       <use xlink:href="#DejaVuSans-4a"/>
       <use x="29.492188" xlink:href="#DejaVuSans-6f"/>
       <use x="90.673828" xlink:href="#DejaVuSans-68"/>
       <use x="154.052734" xlink:href="#DejaVuSans-6e"/>
       <use x="217.431641" xlink:href="#DejaVuSans-73"/>
       <use x="269.53125" xlink:href="#DejaVuSans-6f"/>
       <use x="330.712891" xlink:href="#DejaVuSans-6e"/>
       <use x="394.091797" xlink:href="#DejaVuSans-20"/>
       <use x="425.878906" xlink:href="#DejaVuSans-26"/>
       <use x="503.857422" xlink:href="#DejaVuSans-20"/>
       <use x="535.644531" xlink:href="#DejaVuSans-4a"/>
       <use x="565.136719" xlink:href="#DejaVuSans-6f"/>
       <use x="626.318359" xlink:href="#DejaVuSans-68"/>
       <use x="689.697266" xlink:href="#DejaVuSans-6e"/>
       <use x="753.076172" xlink:href="#DejaVuSans-73"/>
       <use x="805.175781" xlink:href="#DejaVuSans-6f"/>
       <use x="866.357422" xlink:href="#DejaVuSans-6e"/>
      </g>
     </g>
    </g>
    <g id="xtick_50">
     <g id="text_50">
      <!-- Pfizer -->
      <g transform="translate(363.253367 206.05375)rotate(-90)scale(0.06 -0.06)">
       <use xlink:href="#DejaVuSans-50"/>
       <use x="60.302734" xlink:href="#DejaVuSans-66"/>
       <use x="95.507812" xlink:href="#DejaVuSans-69"/>
       <use x="123.291016" xlink:href="#DejaVuSans-7a"/>
       <use x="175.78125" xlink:href="#DejaVuSans-65"/>
       <use x="237.304688" xlink:href="#DejaVuSans-72"/>
      </g>
     </g>
    </g>
    <g id="xtick_51">
     <g id="text_51">
      <!-- SAP -->
      <g transform="translate(369.877501 200.993125)rotate(-90)scale(0.06 -0.06)">
       <use xlink:href="#DejaVuSans-53"/>
       <use x="65.351562" xlink:href="#DejaVuSans-41"/>
       <use x="133.759766" xlink:href="#DejaVuSans-50"/>
      </g>
     </g>
    </g>
    <g id="xtick_52">
     <g id="text_52">
      <!-- Sanofi-Aventis -->
      <g transform="translate(376.501635 232.06)rotate(-90)scale(0.06 -0.06)">
       <use xlink:href="#DejaVuSans-53"/>
       <use x="63.476562" xlink:href="#DejaVuSans-61"/>
       <use x="124.755859" xlink:href="#DejaVuSans-6e"/>
       <use x="188.134766" xlink:href="#DejaVuSans-6f"/>
       <use x="249.316406" xlink:href="#DejaVuSans-66"/>
       <use x="284.521484" xlink:href="#DejaVuSans-69"/>
       <use x="312.304688" xlink:href="#DejaVuSans-2d"/>
       <use x="346.138672" xlink:href="#DejaVuSans-41"/>
       <use x="408.671875" xlink:href="#DejaVuSans-76"/>
       <use x="467.851562" xlink:href="#DejaVuSans-65"/>
       <use x="529.375" xlink:href="#DejaVuSans-6e"/>
       <use x="592.753906" xlink:href="#DejaVuSans-74"/>
       <use x="631.962891" xlink:href="#DejaVuSans-69"/>
       <use x="659.746094" xlink:href="#DejaVuSans-73"/>
      </g>
     </g>
    </g>
    <g id="xtick_53">
     <g id="text_53">
      <!-- Unilever -->
      <g transform="translate(383.125768 214.278437)rotate(-90)scale(0.06 -0.06)">
       <defs>
        <path d="M 556 4666 
L 1191 4666 
L 1191 1831 
Q 1191 1081 1462 751 
Q 1734 422 2344 422 
Q 2950 422 3222 751 
Q 3494 1081 3494 1831 
L 3494 4666 
L 4128 4666 
L 4128 1753 
Q 4128 841 3676 375 
Q 3225 -91 2344 -91 
Q 1459 -91 1007 375 
Q 556 841 556 1753 
L 556 4666 
z
" id="DejaVuSans-55" transform="scale(0.015625)"/>
       </defs>
       <use xlink:href="#DejaVuSans-55"/>
       <use x="73.193359" xlink:href="#DejaVuSans-6e"/>
       <use x="136.572266" xlink:href="#DejaVuSans-69"/>
       <use x="164.355469" xlink:href="#DejaVuSans-6c"/>
       <use x="192.138672" xlink:href="#DejaVuSans-65"/>
       <use x="253.662109" xlink:href="#DejaVuSans-76"/>
       <use x="312.841797" xlink:href="#DejaVuSans-65"/>
       <use x="374.365234" xlink:href="#DejaVuSans-72"/>
      </g>
     </g>
    </g>
    <g id="xtick_54">
     <g id="text_54">
      <!-- Royal Dutch Shell -->
      <g transform="translate(389.749902 242.141875)rotate(-90)scale(0.06 -0.06)">
       <defs>
        <path d="M 2841 2188 
Q 3044 2119 3236 1894 
Q 3428 1669 3622 1275 
L 4263 0 
L 3584 0 
L 2988 1197 
Q 2756 1666 2539 1819 
Q 2322 1972 1947 1972 
L 1259 1972 
L 1259 0 
L 628 0 
L 628 4666 
L 2053 4666 
Q 2853 4666 3247 4331 
Q 3641 3997 3641 3322 
Q 3641 2881 3436 2590 
Q 3231 2300 2841 2188 
z
M 1259 4147 
L 1259 2491 
L 2053 2491 
Q 2509 2491 2742 2702 
Q 2975 2913 2975 3322 
Q 2975 3731 2742 3939 
Q 2509 4147 2053 4147 
L 1259 4147 
z
" id="DejaVuSans-52" transform="scale(0.015625)"/>
       </defs>
       <use xlink:href="#DejaVuSans-52"/>
       <use x="64.982422" xlink:href="#DejaVuSans-6f"/>
       <use x="126.164062" xlink:href="#DejaVuSans-79"/>
       <use x="185.34375" xlink:href="#DejaVuSans-61"/>
       <use x="246.623047" xlink:href="#DejaVuSans-6c"/>
       <use x="274.40625" xlink:href="#DejaVuSans-20"/>
       <use x="306.193359" xlink:href="#DejaVuSans-44"/>
       <use x="383.195312" xlink:href="#DejaVuSans-75"/>
       <use x="446.574219" xlink:href="#DejaVuSans-74"/>
       <use x="485.783203" xlink:href="#DejaVuSans-63"/>
       <use x="540.763672" xlink:href="#DejaVuSans-68"/>
       <use x="604.142578" xlink:href="#DejaVuSans-20"/>
       <use x="635.929688" xlink:href="#DejaVuSans-53"/>
       <use x="699.40625" xlink:href="#DejaVuSans-68"/>
       <use x="762.785156" xlink:href="#DejaVuSans-65"/>
       <use x="824.308594" xlink:href="#DejaVuSans-6c"/>
       <use x="852.091797" xlink:href="#DejaVuSans-6c"/>
      </g>
     </g>
    </g>
    <g id="xtick_55">
     <g id="text_55">
      <!-- Total -->
      <g transform="translate(396.374036 203.36125)rotate(-90)scale(0.06 -0.06)">
       <use xlink:href="#DejaVuSans-54"/>
       <use x="44.083984" xlink:href="#DejaVuSans-6f"/>
       <use x="105.265625" xlink:href="#DejaVuSans-74"/>
       <use x="144.474609" xlink:href="#DejaVuSans-61"/>
       <use x="205.753906" xlink:href="#DejaVuSans-6c"/>
      </g>
     </g>
    </g>
    <g id="xtick_56">
     <g id="text_56">
      <!-- British American Tobacco -->
      <g transform="translate(402.998169 264.984062)rotate(-90)scale(0.06 -0.06)">
       <use xlink:href="#DejaVuSans-42"/>
       <use x="68.603516" xlink:href="#DejaVuSans-72"/>
       <use x="109.716797" xlink:href="#DejaVuSans-69"/>
       <use x="137.5" xlink:href="#DejaVuSans-74"/>
       <use x="176.708984" xlink:href="#DejaVuSans-69"/>
       <use x="204.492188" xlink:href="#DejaVuSans-73"/>
       <use x="256.591797" xlink:href="#DejaVuSans-68"/>
       <use x="319.970703" xlink:href="#DejaVuSans-20"/>
       <use x="351.757812" xlink:href="#DejaVuSans-41"/>
       <use x="420.166016" xlink:href="#DejaVuSans-6d"/>
       <use x="517.578125" xlink:href="#DejaVuSans-65"/>
       <use x="579.101562" xlink:href="#DejaVuSans-72"/>
       <use x="620.214844" xlink:href="#DejaVuSans-69"/>
       <use x="647.998047" xlink:href="#DejaVuSans-63"/>
       <use x="702.978516" xlink:href="#DejaVuSans-61"/>
       <use x="764.257812" xlink:href="#DejaVuSans-6e"/>
       <use x="827.636719" xlink:href="#DejaVuSans-20"/>
       <use x="859.423828" xlink:href="#DejaVuSans-54"/>
       <use x="903.507812" xlink:href="#DejaVuSans-6f"/>
       <use x="964.689453" xlink:href="#DejaVuSans-62"/>
       <use x="1028.166016" xlink:href="#DejaVuSans-61"/>
       <use x="1089.445312" xlink:href="#DejaVuSans-63"/>
       <use x="1144.425781" xlink:href="#DejaVuSans-63"/>
       <use x="1199.40625" xlink:href="#DejaVuSans-6f"/>
      </g>
     </g>
    </g>
    <g id="xtick_57">
     <g id="text_57">
      <!-- GlaxoSmithKline -->
      <g transform="translate(409.622303 238.615)rotate(-90)scale(0.06 -0.06)">
       <use xlink:href="#DejaVuSans-47"/>
       <use x="77.490234" xlink:href="#DejaVuSans-6c"/>
       <use x="105.273438" xlink:href="#DejaVuSans-61"/>
       <use x="166.552734" xlink:href="#DejaVuSans-78"/>
       <use x="222.607422" xlink:href="#DejaVuSans-6f"/>
       <use x="283.789062" xlink:href="#DejaVuSans-53"/>
       <use x="347.265625" xlink:href="#DejaVuSans-6d"/>
       <use x="444.677734" xlink:href="#DejaVuSans-69"/>
       <use x="472.460938" xlink:href="#DejaVuSans-74"/>
       <use x="511.669922" xlink:href="#DejaVuSans-68"/>
       <use x="575.048828" xlink:href="#DejaVuSans-4b"/>
       <use x="640.625" xlink:href="#DejaVuSans-6c"/>
       <use x="668.408203" xlink:href="#DejaVuSans-69"/>
       <use x="696.191406" xlink:href="#DejaVuSans-6e"/>
       <use x="759.570312" xlink:href="#DejaVuSans-65"/>
      </g>
     </g>
    </g>
    <g id="xtick_58">
     <g id="text_58">
      <!-- Novartis -->
      <g transform="translate(416.246437 214.34875)rotate(-90)scale(0.06 -0.06)">
       <use xlink:href="#DejaVuSans-4e"/>
       <use x="74.804688" xlink:href="#DejaVuSans-6f"/>
       <use x="135.986328" xlink:href="#DejaVuSans-76"/>
       <use x="195.166016" xlink:href="#DejaVuSans-61"/>
       <use x="256.445312" xlink:href="#DejaVuSans-72"/>
       <use x="297.558594" xlink:href="#DejaVuSans-74"/>
       <use x="336.767578" xlink:href="#DejaVuSans-69"/>
       <use x="364.550781" xlink:href="#DejaVuSans-73"/>
      </g>
     </g>
    </g>
    <g id="xtick_59">
     <g id="text_59">
      <!-- MasterCard -->
      <g transform="translate(422.87057 223.876563)rotate(-90)scale(0.06 -0.06)">
       <use xlink:href="#DejaVuSans-4d"/>
       <use x="86.279297" xlink:href="#DejaVuSans-61"/>
       <use x="147.558594" xlink:href="#DejaVuSans-73"/>
       <use x="199.658203" xlink:href="#DejaVuSans-74"/>
       <use x="238.867188" xlink:href="#DejaVuSans-65"/>
       <use x="300.390625" xlink:href="#DejaVuSans-72"/>
       <use x="341.503906" xlink:href="#DejaVuSans-43"/>
       <use x="411.328125" xlink:href="#DejaVuSans-61"/>
       <use x="472.607422" xlink:href="#DejaVuSans-72"/>
       <use x="511.970703" xlink:href="#DejaVuSans-64"/>
      </g>
     </g>
    </g>
    <g id="xtick_60">
     <g id="text_60">
      <!-- McDonalds -->
      <g transform="translate(429.494704 222.1975)rotate(-90)scale(0.06 -0.06)">
       <use xlink:href="#DejaVuSans-4d"/>
       <use x="86.279297" xlink:href="#DejaVuSans-63"/>
       <use x="141.259766" xlink:href="#DejaVuSans-44"/>
       <use x="218.261719" xlink:href="#DejaVuSans-6f"/>
       <use x="279.443359" xlink:href="#DejaVuSans-6e"/>
       <use x="342.822266" xlink:href="#DejaVuSans-61"/>
       <use x="404.101562" xlink:href="#DejaVuSans-6c"/>
       <use x="431.884766" xlink:href="#DejaVuSans-64"/>
       <use x="495.361328" xlink:href="#DejaVuSans-73"/>
      </g>
     </g>
    </g>
   </g>
   <g id="matplotlib.axis_2">
    <g id="ytick_1">
     <g id="line2d_1">
      <defs>
       <path d="M 0 0 
L -3.5 0 
" id="m5ef4803dba" style="stroke:#000000;stroke-width:0.8;"/>
      </defs>
      <g>
       <use style="stroke:#000000;stroke-width:0.8;" x="33.703125" xlink:href="#m5ef4803dba" y="182.349375"/>
      </g>
     </g>
     <g id="text_61">
      <!-- 0.0 -->
      <g transform="translate(10.8 186.148594)scale(0.1 -0.1)">
       <defs>
        <path d="M 2034 4250 
Q 1547 4250 1301 3770 
Q 1056 3291 1056 2328 
Q 1056 1369 1301 889 
Q 1547 409 2034 409 
Q 2525 409 2770 889 
Q 3016 1369 3016 2328 
Q 3016 3291 2770 3770 
Q 2525 4250 2034 4250 
z
M 2034 4750 
Q 2819 4750 3233 4129 
Q 3647 3509 3647 2328 
Q 3647 1150 3233 529 
Q 2819 -91 2034 -91 
Q 1250 -91 836 529 
Q 422 1150 422 2328 
Q 422 3509 836 4129 
Q 1250 4750 2034 4750 
z
" id="DejaVuSans-30" transform="scale(0.015625)"/>
        <path d="M 684 794 
L 1344 794 
L 1344 0 
L 684 0 
L 684 794 
z
" id="DejaVuSans-2e" transform="scale(0.015625)"/>
       </defs>
       <use xlink:href="#DejaVuSans-30"/>
       <use x="63.623047" xlink:href="#DejaVuSans-2e"/>
       <use x="95.410156" xlink:href="#DejaVuSans-30"/>
      </g>
     </g>
    </g>
    <g id="ytick_2">
     <g id="line2d_2">
      <g>
       <use style="stroke:#000000;stroke-width:0.8;" x="33.703125" xlink:href="#m5ef4803dba" y="157.523119"/>
      </g>
     </g>
     <g id="text_62">
      <!-- 0.2 -->
      <g transform="translate(10.8 161.322337)scale(0.1 -0.1)">
       <defs>
        <path d="M 1228 531 
L 3431 531 
L 3431 0 
L 469 0 
L 469 531 
Q 828 903 1448 1529 
Q 2069 2156 2228 2338 
Q 2531 2678 2651 2914 
Q 2772 3150 2772 3378 
Q 2772 3750 2511 3984 
Q 2250 4219 1831 4219 
Q 1534 4219 1204 4116 
Q 875 4013 500 3803 
L 500 4441 
Q 881 4594 1212 4672 
Q 1544 4750 1819 4750 
Q 2544 4750 2975 4387 
Q 3406 4025 3406 3419 
Q 3406 3131 3298 2873 
Q 3191 2616 2906 2266 
Q 2828 2175 2409 1742 
Q 1991 1309 1228 531 
z
" id="DejaVuSans-32" transform="scale(0.015625)"/>
       </defs>
       <use xlink:href="#DejaVuSans-30"/>
       <use x="63.623047" xlink:href="#DejaVuSans-2e"/>
       <use x="95.410156" xlink:href="#DejaVuSans-32"/>
      </g>
     </g>
    </g>
    <g id="ytick_3">
     <g id="line2d_3">
      <g>
       <use style="stroke:#000000;stroke-width:0.8;" x="33.703125" xlink:href="#m5ef4803dba" y="132.696862"/>
      </g>
     </g>
     <g id="text_63">
      <!-- 0.4 -->
      <g transform="translate(10.8 136.496081)scale(0.1 -0.1)">
       <defs>
        <path d="M 2419 4116 
L 825 1625 
L 2419 1625 
L 2419 4116 
z
M 2253 4666 
L 3047 4666 
L 3047 1625 
L 3713 1625 
L 3713 1100 
L 3047 1100 
L 3047 0 
L 2419 0 
L 2419 1100 
L 313 1100 
L 313 1709 
L 2253 4666 
z
" id="DejaVuSans-34" transform="scale(0.015625)"/>
       </defs>
       <use xlink:href="#DejaVuSans-30"/>
       <use x="63.623047" xlink:href="#DejaVuSans-2e"/>
       <use x="95.410156" xlink:href="#DejaVuSans-34"/>
      </g>
     </g>
    </g>
    <g id="ytick_4">
     <g id="line2d_4">
      <g>
       <use style="stroke:#000000;stroke-width:0.8;" x="33.703125" xlink:href="#m5ef4803dba" y="107.870606"/>
      </g>
     </g>
     <g id="text_64">
      <!-- 0.6 -->
      <g transform="translate(10.8 111.669825)scale(0.1 -0.1)">
       <defs>
        <path d="M 2113 2584 
Q 1688 2584 1439 2293 
Q 1191 2003 1191 1497 
Q 1191 994 1439 701 
Q 1688 409 2113 409 
Q 2538 409 2786 701 
Q 3034 994 3034 1497 
Q 3034 2003 2786 2293 
Q 2538 2584 2113 2584 
z
M 3366 4563 
L 3366 3988 
Q 3128 4100 2886 4159 
Q 2644 4219 2406 4219 
Q 1781 4219 1451 3797 
Q 1122 3375 1075 2522 
Q 1259 2794 1537 2939 
Q 1816 3084 2150 3084 
Q 2853 3084 3261 2657 
Q 3669 2231 3669 1497 
Q 3669 778 3244 343 
Q 2819 -91 2113 -91 
Q 1303 -91 875 529 
Q 447 1150 447 2328 
Q 447 3434 972 4092 
Q 1497 4750 2381 4750 
Q 2619 4750 2861 4703 
Q 3103 4656 3366 4563 
z
" id="DejaVuSans-36" transform="scale(0.015625)"/>
       </defs>
       <use xlink:href="#DejaVuSans-30"/>
       <use x="63.623047" xlink:href="#DejaVuSans-2e"/>
       <use x="95.410156" xlink:href="#DejaVuSans-36"/>
      </g>
     </g>
    </g>
    <g id="ytick_5">
     <g id="line2d_5">
      <g>
       <use style="stroke:#000000;stroke-width:0.8;" x="33.703125" xlink:href="#m5ef4803dba" y="83.04435"/>
      </g>
     </g>
     <g id="text_65">
      <!-- 0.8 -->
      <g transform="translate(10.8 86.843569)scale(0.1 -0.1)">
       <defs>
        <path d="M 2034 2216 
Q 1584 2216 1326 1975 
Q 1069 1734 1069 1313 
Q 1069 891 1326 650 
Q 1584 409 2034 409 
Q 2484 409 2743 651 
Q 3003 894 3003 1313 
Q 3003 1734 2745 1975 
Q 2488 2216 2034 2216 
z
M 1403 2484 
Q 997 2584 770 2862 
Q 544 3141 544 3541 
Q 544 4100 942 4425 
Q 1341 4750 2034 4750 
Q 2731 4750 3128 4425 
Q 3525 4100 3525 3541 
Q 3525 3141 3298 2862 
Q 3072 2584 2669 2484 
Q 3125 2378 3379 2068 
Q 3634 1759 3634 1313 
Q 3634 634 3220 271 
Q 2806 -91 2034 -91 
Q 1263 -91 848 271 
Q 434 634 434 1313 
Q 434 1759 690 2068 
Q 947 2378 1403 2484 
z
M 1172 3481 
Q 1172 3119 1398 2916 
Q 1625 2713 2034 2713 
Q 2441 2713 2670 2916 
Q 2900 3119 2900 3481 
Q 2900 3844 2670 4047 
Q 2441 4250 2034 4250 
Q 1625 4250 1398 4047 
Q 1172 3844 1172 3481 
z
" id="DejaVuSans-38" transform="scale(0.015625)"/>
       </defs>
       <use xlink:href="#DejaVuSans-30"/>
       <use x="63.623047" xlink:href="#DejaVuSans-2e"/>
       <use x="95.410156" xlink:href="#DejaVuSans-38"/>
      </g>
     </g>
    </g>
    <g id="ytick_6">
     <g id="line2d_6">
      <g>
       <use style="stroke:#000000;stroke-width:0.8;" x="33.703125" xlink:href="#m5ef4803dba" y="58.218094"/>
      </g>
     </g>
     <g id="text_66">
      <!-- 1.0 -->
      <g transform="translate(10.8 62.017312)scale(0.1 -0.1)">
       <defs>
        <path d="M 794 531 
L 1825 531 
L 1825 4091 
L 703 3866 
L 703 4441 
L 1819 4666 
L 2450 4666 
L 2450 531 
L 3481 531 
L 3481 0 
L 794 0 
L 794 531 
z
" id="DejaVuSans-31" transform="scale(0.015625)"/>
       </defs>
       <use xlink:href="#DejaVuSans-31"/>
       <use x="63.623047" xlink:href="#DejaVuSans-2e"/>
       <use x="95.410156" xlink:href="#DejaVuSans-30"/>
      </g>
     </g>
    </g>
    <g id="ytick_7">
     <g id="line2d_7">
      <g>
       <use style="stroke:#000000;stroke-width:0.8;" x="33.703125" xlink:href="#m5ef4803dba" y="33.391837"/>
      </g>
     </g>
     <g id="text_67">
      <!-- 1.2 -->
      <g transform="translate(10.8 37.191056)scale(0.1 -0.1)">
       <use xlink:href="#DejaVuSans-31"/>
       <use x="63.623047" xlink:href="#DejaVuSans-2e"/>
       <use x="95.410156" xlink:href="#DejaVuSans-32"/>
      </g>
     </g>
    </g>
   </g>
   <g id="LineCollection_1">
    <path clip-path="url(#p52c2912919)" d="M 50.263459 182.349375 
L 50.263459 73.53402 
L 56.887593 73.53402 
L 56.887593 182.349375 
" style="fill:none;stroke:#ff7f0e;stroke-width:1.5;"/>
   </g>
   <g id="LineCollection_2">
    <path clip-path="url(#p52c2912919)" d="M 149.625464 182.349375 
L 149.625464 96.238067 
L 156.249598 96.238067 
L 156.249598 182.349375 
" style="fill:none;stroke:#2ca02c;stroke-width:1.5;"/>
    <path clip-path="url(#p52c2912919)" d="M 143.001331 182.349375 
L 143.001331 84.314586 
L 152.937531 84.314586 
L 152.937531 96.238067 
" style="fill:none;stroke:#2ca02c;stroke-width:1.5;"/>
    <path clip-path="url(#p52c2912919)" d="M 136.377197 182.349375 
L 136.377197 69.87645 
L 147.969431 69.87645 
L 147.969431 84.314586 
" style="fill:none;stroke:#2ca02c;stroke-width:1.5;"/>
   </g>
   <g id="LineCollection_3">
    <path clip-path="url(#p52c2912919)" d="M 169.497865 182.349375 
L 169.497865 76.762264 
L 176.121999 76.762264 
L 176.121999 182.349375 
" style="fill:none;stroke:#d62728;stroke-width:1.5;"/>
   </g>
   <g id="LineCollection_4">
    <path clip-path="url(#p52c2912919)" d="M 189.370266 182.349375 
L 189.370266 89.173265 
L 195.9944 89.173265 
L 195.9944 182.349375 
" style="fill:none;stroke:#9467bd;stroke-width:1.5;"/>
    <path clip-path="url(#p52c2912919)" d="M 182.746133 182.349375 
L 182.746133 71.935131 
L 192.682333 71.935131 
L 192.682333 89.173265 
" style="fill:none;stroke:#9467bd;stroke-width:1.5;"/>
   </g>
   <g id="LineCollection_5">
    <path clip-path="url(#p52c2912919)" d="M 229.115069 182.349375 
L 229.115069 76.485344 
L 235.739202 76.485344 
L 235.739202 182.349375 
" style="fill:none;stroke:#8c564b;stroke-width:1.5;"/>
    <path clip-path="url(#p52c2912919)" d="M 222.490935 182.349375 
L 222.490935 73.982765 
L 232.427135 73.982765 
L 232.427135 76.485344 
" style="fill:none;stroke:#8c564b;stroke-width:1.5;"/>
   </g>
   <g id="LineCollection_6">
    <path clip-path="url(#p52c2912919)" d="M 262.235737 182.349375 
L 262.235737 98.740629 
L 268.859871 98.740629 
L 268.859871 182.349375 
" style="fill:none;stroke:#e377c2;stroke-width:1.5;"/>
    <path clip-path="url(#p52c2912919)" d="M 255.611603 182.349375 
L 255.611603 83.241842 
L 265.547804 83.241842 
L 265.547804 98.740629 
" style="fill:none;stroke:#e377c2;stroke-width:1.5;"/>
    <path clip-path="url(#p52c2912919)" d="M 248.98747 182.349375 
L 248.98747 73.17936 
L 260.579704 73.17936 
L 260.579704 83.241842 
" style="fill:none;stroke:#e377c2;stroke-width:1.5;"/>
   </g>
   <g id="LineCollection_7">
    <path clip-path="url(#p52c2912919)" d="M 341.725341 182.349375 
L 341.725341 82.536483 
L 348.349475 82.536483 
L 348.349475 182.349375 
" style="fill:none;stroke:#7f7f7f;stroke-width:1.5;"/>
   </g>
   <g id="LineCollection_8">
    <path clip-path="url(#p52c2912919)" d="M 388.094277 182.349375 
L 388.094277 109.732829 
L 394.718411 109.732829 
L 394.718411 182.349375 
" style="fill:none;stroke:#bcbd22;stroke-width:1.5;"/>
    <path clip-path="url(#p52c2912919)" d="M 381.470143 182.349375 
L 381.470143 84.860569 
L 391.406344 84.860569 
L 391.406344 109.732829 
" style="fill:none;stroke:#bcbd22;stroke-width:1.5;"/>
    <path clip-path="url(#p52c2912919)" d="M 374.84601 182.349375 
L 374.84601 77.7365 
L 386.438243 77.7365 
L 386.438243 84.860569 
" style="fill:none;stroke:#bcbd22;stroke-width:1.5;"/>
    <path clip-path="url(#p52c2912919)" d="M 368.221876 182.349375 
L 368.221876 72.916242 
L 380.642127 72.916242 
L 380.642127 77.7365 
" style="fill:none;stroke:#bcbd22;stroke-width:1.5;"/>
   </g>
   <g id="LineCollection_9">
    <path clip-path="url(#p52c2912919)" d="M 407.966678 182.349375 
L 407.966678 76.252177 
L 414.590812 76.252177 
L 414.590812 182.349375 
" style="fill:none;stroke:#17becf;stroke-width:1.5;"/>
    <path clip-path="url(#p52c2912919)" d="M 401.342544 182.349375 
L 401.342544 68.504943 
L 411.278745 68.504943 
L 411.278745 76.252177 
" style="fill:none;stroke:#17becf;stroke-width:1.5;"/>
   </g>
   <g id="LineCollection_10">
    <path clip-path="url(#p52c2912919)" d="M 43.639326 182.349375 
L 43.639326 57.566451 
L 53.575526 57.566451 
L 53.575526 73.53402 
" style="fill:none;stroke:#1f77b4;stroke-width:1.5;"/>
    <path clip-path="url(#p52c2912919)" d="M 63.511727 182.349375 
L 63.511727 53.180165 
L 70.13586 53.180165 
L 70.13586 182.349375 
" style="fill:none;stroke:#1f77b4;stroke-width:1.5;"/>
    <path clip-path="url(#p52c2912919)" d="M 83.384128 182.349375 
L 83.384128 61.238918 
L 90.008261 61.238918 
L 90.008261 182.349375 
" style="fill:none;stroke:#1f77b4;stroke-width:1.5;"/>
    <path clip-path="url(#p52c2912919)" d="M 76.759994 182.349375 
L 76.759994 52.712468 
L 86.696194 52.712468 
L 86.696194 61.238918 
" style="fill:none;stroke:#1f77b4;stroke-width:1.5;"/>
    <path clip-path="url(#p52c2912919)" d="M 66.823793 53.180165 
L 66.823793 44.716249 
L 81.728094 44.716249 
L 81.728094 52.712468 
" style="fill:none;stroke:#1f77b4;stroke-width:1.5;"/>
    <path clip-path="url(#p52c2912919)" d="M 48.607426 57.566451 
L 48.607426 39.106847 
L 74.275944 39.106847 
L 74.275944 44.716249 
" style="fill:none;stroke:#1f77b4;stroke-width:1.5;"/>
    <path clip-path="url(#p52c2912919)" d="M 37.015192 182.349375 
L 37.015192 33.96381 
L 61.441685 33.96381 
L 61.441685 39.106847 
" style="fill:none;stroke:#1f77b4;stroke-width:1.5;"/>
    <path clip-path="url(#p52c2912919)" d="M 103.256529 182.349375 
L 103.256529 49.837826 
L 109.880662 49.837826 
L 109.880662 182.349375 
" style="fill:none;stroke:#1f77b4;stroke-width:1.5;"/>
    <path clip-path="url(#p52c2912919)" d="M 96.632395 182.349375 
L 96.632395 38.096148 
L 106.568595 38.096148 
L 106.568595 49.837826 
" style="fill:none;stroke:#1f77b4;stroke-width:1.5;"/>
    <path clip-path="url(#p52c2912919)" d="M 129.753063 182.349375 
L 129.753063 58.482604 
L 142.173314 58.482604 
L 142.173314 69.87645 
" style="fill:none;stroke:#1f77b4;stroke-width:1.5;"/>
    <path clip-path="url(#p52c2912919)" d="M 172.809932 76.762264 
L 172.809932 62.987021 
L 187.714233 62.987021 
L 187.714233 71.935131 
" style="fill:none;stroke:#1f77b4;stroke-width:1.5;"/>
    <path clip-path="url(#p52c2912919)" d="M 162.873732 182.349375 
L 162.873732 54.064697 
L 180.262083 54.064697 
L 180.262083 62.987021 
" style="fill:none;stroke:#1f77b4;stroke-width:1.5;"/>
    <path clip-path="url(#p52c2912919)" d="M 135.963189 58.482604 
L 135.963189 51.557713 
L 171.567907 51.557713 
L 171.567907 54.064697 
" style="fill:none;stroke:#1f77b4;stroke-width:1.5;"/>
    <path clip-path="url(#p52c2912919)" d="M 215.866801 182.349375 
L 215.866801 63.238608 
L 227.459035 63.238608 
L 227.459035 73.982765 
" style="fill:none;stroke:#1f77b4;stroke-width:1.5;"/>
    <path clip-path="url(#p52c2912919)" d="M 209.242668 182.349375 
L 209.242668 59.048036 
L 221.662918 59.048036 
L 221.662918 63.238608 
" style="fill:none;stroke:#1f77b4;stroke-width:1.5;"/>
    <path clip-path="url(#p52c2912919)" d="M 242.363336 182.349375 
L 242.363336 53.117858 
L 254.783587 53.117858 
L 254.783587 73.17936 
" style="fill:none;stroke:#1f77b4;stroke-width:1.5;"/>
    <path clip-path="url(#p52c2912919)" d="M 215.452793 59.048036 
L 215.452793 50.99693 
L 248.573461 50.99693 
L 248.573461 53.117858 
" style="fill:none;stroke:#1f77b4;stroke-width:1.5;"/>
    <path clip-path="url(#p52c2912919)" d="M 202.618534 182.349375 
L 202.618534 43.868924 
L 232.013127 43.868924 
L 232.013127 50.99693 
" style="fill:none;stroke:#1f77b4;stroke-width:1.5;"/>
    <path clip-path="url(#p52c2912919)" d="M 153.765548 51.557713 
L 153.765548 37.617315 
L 217.31583 37.617315 
L 217.31583 43.868924 
" style="fill:none;stroke:#1f77b4;stroke-width:1.5;"/>
    <path clip-path="url(#p52c2912919)" d="M 123.12893 182.349375 
L 123.12893 37.107886 
L 185.540689 37.107886 
L 185.540689 37.617315 
" style="fill:none;stroke:#1f77b4;stroke-width:1.5;"/>
    <path clip-path="url(#p52c2912919)" d="M 116.504796 182.349375 
L 116.504796 34.517591 
L 154.334809 34.517591 
L 154.334809 37.107886 
" style="fill:none;stroke:#1f77b4;stroke-width:1.5;"/>
    <path clip-path="url(#p52c2912919)" d="M 101.600495 38.096148 
L 101.600495 28.859725 
L 135.419803 28.859725 
L 135.419803 34.517591 
" style="fill:none;stroke:#1f77b4;stroke-width:1.5;"/>
    <path clip-path="url(#p52c2912919)" d="M 49.228438 33.96381 
L 49.228438 27.590132 
L 118.510149 27.590132 
L 118.510149 28.859725 
" style="fill:none;stroke:#1f77b4;stroke-width:1.5;"/>
    <path clip-path="url(#p52c2912919)" d="M 275.484004 182.349375 
L 275.484004 43.013224 
L 282.108138 43.013224 
L 282.108138 182.349375 
" style="fill:none;stroke:#1f77b4;stroke-width:1.5;"/>
    <path clip-path="url(#p52c2912919)" d="M 295.356405 182.349375 
L 295.356405 64.220882 
L 301.980539 64.220882 
L 301.980539 182.349375 
" style="fill:none;stroke:#1f77b4;stroke-width:1.5;"/>
    <path clip-path="url(#p52c2912919)" d="M 315.228806 182.349375 
L 315.228806 67.357412 
L 321.85294 67.357412 
L 321.85294 182.349375 
" style="fill:none;stroke:#1f77b4;stroke-width:1.5;"/>
    <path clip-path="url(#p52c2912919)" d="M 308.604673 182.349375 
L 308.604673 61.023211 
L 318.540873 61.023211 
L 318.540873 67.357412 
" style="fill:none;stroke:#1f77b4;stroke-width:1.5;"/>
    <path clip-path="url(#p52c2912919)" d="M 298.668472 64.220882 
L 298.668472 47.969171 
L 313.572773 47.969171 
L 313.572773 61.023211 
" style="fill:none;stroke:#1f77b4;stroke-width:1.5;"/>
    <path clip-path="url(#p52c2912919)" d="M 288.732272 182.349375 
L 288.732272 40.388036 
L 306.120623 40.388036 
L 306.120623 47.969171 
" style="fill:none;stroke:#1f77b4;stroke-width:1.5;"/>
    <path clip-path="url(#p52c2912919)" d="M 278.796071 43.013224 
L 278.796071 38.1417 
L 297.426447 38.1417 
L 297.426447 40.388036 
" style="fill:none;stroke:#1f77b4;stroke-width:1.5;"/>
    <path clip-path="url(#p52c2912919)" d="M 335.101207 182.349375 
L 335.101207 64.058889 
L 345.037408 64.058889 
L 345.037408 82.536483 
" style="fill:none;stroke:#1f77b4;stroke-width:1.5;"/>
    <path clip-path="url(#p52c2912919)" d="M 328.477074 182.349375 
L 328.477074 41.065485 
L 340.069308 41.065485 
L 340.069308 64.058889 
" style="fill:none;stroke:#1f77b4;stroke-width:1.5;"/>
    <path clip-path="url(#p52c2912919)" d="M 354.973609 182.349375 
L 354.973609 58.042989 
L 361.597742 58.042989 
L 361.597742 182.349375 
" style="fill:none;stroke:#1f77b4;stroke-width:1.5;"/>
    <path clip-path="url(#p52c2912919)" d="M 374.432001 72.916242 
L 374.432001 56.814421 
L 406.310645 56.814421 
L 406.310645 68.504943 
" style="fill:none;stroke:#1f77b4;stroke-width:1.5;"/>
    <path clip-path="url(#p52c2912919)" d="M 358.285675 58.042989 
L 358.285675 47.001977 
L 390.371323 47.001977 
L 390.371323 56.814421 
" style="fill:none;stroke:#1f77b4;stroke-width:1.5;"/>
    <path clip-path="url(#p52c2912919)" d="M 421.214945 182.349375 
L 421.214945 44.363196 
L 427.839079 44.363196 
L 427.839079 182.349375 
" style="fill:none;stroke:#1f77b4;stroke-width:1.5;"/>
    <path clip-path="url(#p52c2912919)" d="M 374.328499 47.001977 
L 374.328499 37.544695 
L 424.527012 37.544695 
L 424.527012 44.363196 
" style="fill:none;stroke:#1f77b4;stroke-width:1.5;"/>
    <path clip-path="url(#p52c2912919)" d="M 334.273191 41.065485 
L 334.273191 32.971262 
L 399.427756 32.971262 
L 399.427756 37.544695 
" style="fill:none;stroke:#1f77b4;stroke-width:1.5;"/>
    <path clip-path="url(#p52c2912919)" d="M 288.111259 38.1417 
L 288.111259 25.630244 
L 366.850473 25.630244 
L 366.850473 32.971262 
" style="fill:none;stroke:#1f77b4;stroke-width:1.5;"/>
    <path clip-path="url(#p52c2912919)" d="M 83.869294 27.590132 
L 83.869294 18.969018 
L 327.480866 18.969018 
L 327.480866 25.630244 
" style="fill:none;stroke:#1f77b4;stroke-width:1.5;"/>
   </g>
   <g id="patch_3">
    <path d="M 33.703125 182.349375 
L 33.703125 10.8 
" style="fill:none;stroke:#000000;stroke-linecap:square;stroke-linejoin:miter;stroke-width:0.8;"/>
   </g>
   <g id="patch_4">
    <path d="M 431.151146 182.349375 
L 431.151146 10.8 
" style="fill:none;stroke:#000000;stroke-linecap:square;stroke-linejoin:miter;stroke-width:0.8;"/>
   </g>
   <g id="patch_5">
    <path d="M 33.703125 182.349375 
L 431.151146 182.349375 
" style="fill:none;stroke:#000000;stroke-linecap:square;stroke-linejoin:miter;stroke-width:0.8;"/>
   </g>
   <g id="patch_6">
    <path d="M 33.703125 10.8 
L 431.151146 10.8 
" style="fill:none;stroke:#000000;stroke-linecap:square;stroke-linejoin:miter;stroke-width:0.8;"/>
   </g>
  </g>
 </g>
 <defs>
  <clipPath id="p52c2912919">
   <rect height="171.549375" width="397.448021" x="33.703125" y="10.8"/>
  </clipPath>
 </defs>
</svg>
