<?xml version="1.0" encoding="utf-8" standalone="no"?>
<!DOCTYPE svg PUBLIC "-//W3C//DTD SVG 1.1//EN"
  "http://www.w3.org/Graphics/SVG/1.1/DTD/svg11.dtd">
<svg height="313pt" version="1.1" viewBox="0 0 442 313" width="442pt" xmlns="http://www.w3.org/2000/svg" xmlns:xlink="http://www.w3.org/1999/xlink">
 <metadata>
  <rdf:RDF xmlns:cc="http://creativecommons.org/ns#" xmlns:dc="http://purl.org/dc/elements/1.1/" xmlns:rdf="http://www.w3.org/1999/02/22-rdf-syntax-ns#">
   <cc:Work>
    <dc:type rdf:resource="http://purl.org/dc/dcmitype/StillImage"/>
    <dc:date>2025-02-11T17:06:48.806784</dc:date>
    <dc:format>image/svg+xml</dc:format>
    <dc:creator>
     <cc:Agent>
      <dc:title>Matplotlib v3.4.3, https://matplotlib.org/</dc:title>
     </cc:Agent>
    </dc:creator>
   </cc:Work>
  </rdf:RDF>
 </metadata>
 <defs>
  <style type="text/css">*{stroke-linecap:butt;stroke-linejoin:round;}</style>
 </defs>
 <g id="figure_1">
  <g id="patch_1">
   <path d="M 0 313 
L 442 313 
L 442 0 
L 0 0 
z
" style="fill:#ffffff;"/>
  </g>
  <g id="axes_1">
   <g id="patch_2">
    <path d="M 42.082813 110.946358 
L 431.2 110.946358 
L 431.2 10.8 
L 42.082813 10.8 
z
" style="fill:#ffffff;"/>
   </g>
   <g id="matplotlib.axis_1">
    <g id="xtick_1">
     <g id="line2d_1">
      <defs>
       <path d="M 0 0 
L 0 3.5 
" id="meff0c6f004" style="stroke:#000000;stroke-width:0.8;"/>
      </defs>
      <g>
       <use style="stroke:#000000;stroke-width:0.8;" x="59.036051" xlink:href="#meff0c6f004" y="110.946358"/>
      </g>
     </g>
     <g id="text_1">
      <!-- 2010-01 -->
      <g transform="translate(21.81123 145.418204)rotate(-30)scale(0.1 -0.1)">
       <defs>
        <path d="M 1228 531 
L 3431 531 
L 3431 0 
L 469 0 
L 469 531 
Q 828 903 1448 1529 
Q 2069 2156 2228 2338 
Q 2531 2678 2651 2914 
Q 2772 3150 2772 3378 
Q 2772 3750 2511 3984 
Q 2250 4219 1831 4219 
Q 1534 4219 1204 4116 
Q 875 4013 500 3803 
L 500 4441 
Q 881 4594 1212 4672 
Q 1544 4750 1819 4750 
Q 2544 4750 2975 4387 
Q 3406 4025 3406 3419 
Q 3406 3131 3298 2873 
Q 3191 2616 2906 2266 
Q 2828 2175 2409 1742 
Q 1991 1309 1228 531 
z
" id="DejaVuSans-32" transform="scale(0.015625)"/>
        <path d="M 2034 4250 
Q 1547 4250 1301 3770 
Q 1056 3291 1056 2328 
Q 1056 1369 1301 889 
Q 1547 409 2034 409 
Q 2525 409 2770 889 
Q 3016 1369 3016 2328 
Q 3016 3291 2770 3770 
Q 2525 4250 2034 4250 
z
M 2034 4750 
Q 2819 4750 3233 4129 
Q 3647 3509 3647 2328 
Q 3647 1150 3233 529 
Q 2819 -91 2034 -91 
Q 1250 -91 836 529 
Q 422 1150 422 2328 
Q 422 3509 836 4129 
Q 1250 4750 2034 4750 
z
" id="DejaVuSans-30" transform="scale(0.015625)"/>
        <path d="M 794 531 
L 1825 531 
L 1825 4091 
L 703 3866 
L 703 4441 
L 1819 4666 
L 2450 4666 
L 2450 531 
L 3481 531 
L 3481 0 
L 794 0 
L 794 531 
z
" id="DejaVuSans-31" transform="scale(0.015625)"/>
        <path d="M 313 2009 
L 1997 2009 
L 1997 1497 
L 313 1497 
L 313 2009 
z
" id="DejaVuSans-2d" transform="scale(0.015625)"/>
       </defs>
       <use xlink:href="#DejaVuSans-32"/>
       <use x="63.623047" xlink:href="#DejaVuSans-30"/>
       <use x="127.246094" xlink:href="#DejaVuSans-31"/>
       <use x="190.869141" xlink:href="#DejaVuSans-30"/>
       <use x="254.492188" xlink:href="#DejaVuSans-2d"/>
       <use x="290.576172" xlink:href="#DejaVuSans-30"/>
       <use x="354.199219" xlink:href="#DejaVuSans-31"/>
      </g>
     </g>
    </g>
    <g id="xtick_2">
     <g id="line2d_2">
      <g>
       <use style="stroke:#000000;stroke-width:0.8;" x="103.315072" xlink:href="#meff0c6f004" y="110.946358"/>
      </g>
     </g>
     <g id="text_2">
      <!-- 2010-07 -->
      <g transform="translate(66.090251 145.418204)rotate(-30)scale(0.1 -0.1)">
       <defs>
        <path d="M 525 4666 
L 3525 4666 
L 3525 4397 
L 1831 0 
L 1172 0 
L 2766 4134 
L 525 4134 
L 525 4666 
z
" id="DejaVuSans-37" transform="scale(0.015625)"/>
       </defs>
       <use xlink:href="#DejaVuSans-32"/>
       <use x="63.623047" xlink:href="#DejaVuSans-30"/>
       <use x="127.246094" xlink:href="#DejaVuSans-31"/>
       <use x="190.869141" xlink:href="#DejaVuSans-30"/>
       <use x="254.492188" xlink:href="#DejaVuSans-2d"/>
       <use x="290.576172" xlink:href="#DejaVuSans-30"/>
       <use x="354.199219" xlink:href="#DejaVuSans-37"/>
      </g>
     </g>
    </g>
    <g id="xtick_3">
     <g id="line2d_3">
      <g>
       <use style="stroke:#000000;stroke-width:0.8;" x="148.328" xlink:href="#meff0c6f004" y="110.946358"/>
      </g>
     </g>
     <g id="text_3">
      <!-- 2011-01 -->
      <g transform="translate(111.103179 145.418204)rotate(-30)scale(0.1 -0.1)">
       <use xlink:href="#DejaVuSans-32"/>
       <use x="63.623047" xlink:href="#DejaVuSans-30"/>
       <use x="127.246094" xlink:href="#DejaVuSans-31"/>
       <use x="190.869141" xlink:href="#DejaVuSans-31"/>
       <use x="254.492188" xlink:href="#DejaVuSans-2d"/>
       <use x="290.576172" xlink:href="#DejaVuSans-30"/>
       <use x="354.199219" xlink:href="#DejaVuSans-31"/>
      </g>
     </g>
    </g>
    <g id="xtick_4">
     <g id="line2d_4">
      <g>
       <use style="stroke:#000000;stroke-width:0.8;" x="192.607021" xlink:href="#meff0c6f004" y="110.946358"/>
      </g>
     </g>
     <g id="text_4">
      <!-- 2011-07 -->
      <g transform="translate(155.3822 145.418204)rotate(-30)scale(0.1 -0.1)">
       <use xlink:href="#DejaVuSans-32"/>
       <use x="63.623047" xlink:href="#DejaVuSans-30"/>
       <use x="127.246094" xlink:href="#DejaVuSans-31"/>
       <use x="190.869141" xlink:href="#DejaVuSans-31"/>
       <use x="254.492188" xlink:href="#DejaVuSans-2d"/>
       <use x="290.576172" xlink:href="#DejaVuSans-30"/>
       <use x="354.199219" xlink:href="#DejaVuSans-37"/>
      </g>
     </g>
    </g>
    <g id="xtick_5">
     <g id="line2d_5">
      <g>
       <use style="stroke:#000000;stroke-width:0.8;" x="237.619948" xlink:href="#meff0c6f004" y="110.946358"/>
      </g>
     </g>
     <g id="text_5">
      <!-- 2012-01 -->
      <g transform="translate(200.395127 145.418204)rotate(-30)scale(0.1 -0.1)">
       <use xlink:href="#DejaVuSans-32"/>
       <use x="63.623047" xlink:href="#DejaVuSans-30"/>
       <use x="127.246094" xlink:href="#DejaVuSans-31"/>
       <use x="190.869141" xlink:href="#DejaVuSans-32"/>
       <use x="254.492188" xlink:href="#DejaVuSans-2d"/>
       <use x="290.576172" xlink:href="#DejaVuSans-30"/>
       <use x="354.199219" xlink:href="#DejaVuSans-31"/>
      </g>
     </g>
    </g>
    <g id="xtick_6">
     <g id="line2d_6">
      <g>
       <use style="stroke:#000000;stroke-width:0.8;" x="282.143605" xlink:href="#meff0c6f004" y="110.946358"/>
      </g>
     </g>
     <g id="text_6">
      <!-- 2012-07 -->
      <g transform="translate(244.918784 145.418204)rotate(-30)scale(0.1 -0.1)">
       <use xlink:href="#DejaVuSans-32"/>
       <use x="63.623047" xlink:href="#DejaVuSans-30"/>
       <use x="127.246094" xlink:href="#DejaVuSans-31"/>
       <use x="190.869141" xlink:href="#DejaVuSans-32"/>
       <use x="254.492188" xlink:href="#DejaVuSans-2d"/>
       <use x="290.576172" xlink:href="#DejaVuSans-30"/>
       <use x="354.199219" xlink:href="#DejaVuSans-37"/>
      </g>
     </g>
    </g>
    <g id="xtick_7">
     <g id="line2d_7">
      <g>
       <use style="stroke:#000000;stroke-width:0.8;" x="327.156532" xlink:href="#meff0c6f004" y="110.946358"/>
      </g>
     </g>
     <g id="text_7">
      <!-- 2013-01 -->
      <g transform="translate(289.931711 145.418204)rotate(-30)scale(0.1 -0.1)">
       <defs>
        <path d="M 2597 2516 
Q 3050 2419 3304 2112 
Q 3559 1806 3559 1356 
Q 3559 666 3084 287 
Q 2609 -91 1734 -91 
Q 1441 -91 1130 -33 
Q 819 25 488 141 
L 488 750 
Q 750 597 1062 519 
Q 1375 441 1716 441 
Q 2309 441 2620 675 
Q 2931 909 2931 1356 
Q 2931 1769 2642 2001 
Q 2353 2234 1838 2234 
L 1294 2234 
L 1294 2753 
L 1863 2753 
Q 2328 2753 2575 2939 
Q 2822 3125 2822 3475 
Q 2822 3834 2567 4026 
Q 2313 4219 1838 4219 
Q 1578 4219 1281 4162 
Q 984 4106 628 3988 
L 628 4550 
Q 988 4650 1302 4700 
Q 1616 4750 1894 4750 
Q 2613 4750 3031 4423 
Q 3450 4097 3450 3541 
Q 3450 3153 3228 2886 
Q 3006 2619 2597 2516 
z
" id="DejaVuSans-33" transform="scale(0.015625)"/>
       </defs>
       <use xlink:href="#DejaVuSans-32"/>
       <use x="63.623047" xlink:href="#DejaVuSans-30"/>
       <use x="127.246094" xlink:href="#DejaVuSans-31"/>
       <use x="190.869141" xlink:href="#DejaVuSans-33"/>
       <use x="254.492188" xlink:href="#DejaVuSans-2d"/>
       <use x="290.576172" xlink:href="#DejaVuSans-30"/>
       <use x="354.199219" xlink:href="#DejaVuSans-31"/>
      </g>
     </g>
    </g>
    <g id="xtick_8">
     <g id="line2d_8">
      <g>
       <use style="stroke:#000000;stroke-width:0.8;" x="371.435553" xlink:href="#meff0c6f004" y="110.946358"/>
      </g>
     </g>
     <g id="text_8">
      <!-- 2013-07 -->
      <g transform="translate(334.210732 145.418204)rotate(-30)scale(0.1 -0.1)">
       <use xlink:href="#DejaVuSans-32"/>
       <use x="63.623047" xlink:href="#DejaVuSans-30"/>
       <use x="127.246094" xlink:href="#DejaVuSans-31"/>
       <use x="190.869141" xlink:href="#DejaVuSans-33"/>
       <use x="254.492188" xlink:href="#DejaVuSans-2d"/>
       <use x="290.576172" xlink:href="#DejaVuSans-30"/>
       <use x="354.199219" xlink:href="#DejaVuSans-37"/>
      </g>
     </g>
    </g>
    <g id="xtick_9">
     <g id="line2d_9">
      <g>
       <use style="stroke:#000000;stroke-width:0.8;" x="416.448481" xlink:href="#meff0c6f004" y="110.946358"/>
      </g>
     </g>
     <g id="text_9">
      <!-- 2014-01 -->
      <g transform="translate(379.22366 145.418204)rotate(-30)scale(0.1 -0.1)">
       <defs>
        <path d="M 2419 4116 
L 825 1625 
L 2419 1625 
L 2419 4116 
z
M 2253 4666 
L 3047 4666 
L 3047 1625 
L 3713 1625 
L 3713 1100 
L 3047 1100 
L 3047 0 
L 2419 0 
L 2419 1100 
L 313 1100 
L 313 1709 
L 2253 4666 
z
" id="DejaVuSans-34" transform="scale(0.015625)"/>
       </defs>
       <use xlink:href="#DejaVuSans-32"/>
       <use x="63.623047" xlink:href="#DejaVuSans-30"/>
       <use x="127.246094" xlink:href="#DejaVuSans-31"/>
       <use x="190.869141" xlink:href="#DejaVuSans-34"/>
       <use x="254.492188" xlink:href="#DejaVuSans-2d"/>
       <use x="290.576172" xlink:href="#DejaVuSans-30"/>
       <use x="354.199219" xlink:href="#DejaVuSans-31"/>
      </g>
     </g>
    </g>
    <g id="text_10">
     <!-- time -->
     <g transform="translate(225.345312 158.817704)scale(0.1 -0.1)">
      <defs>
       <path d="M 1172 4494 
L 1172 3500 
L 2356 3500 
L 2356 3053 
L 1172 3053 
L 1172 1153 
Q 1172 725 1289 603 
Q 1406 481 1766 481 
L 2356 481 
L 2356 0 
L 1766 0 
Q 1100 0 847 248 
Q 594 497 594 1153 
L 594 3053 
L 172 3053 
L 172 3500 
L 594 3500 
L 594 4494 
L 1172 4494 
z
" id="DejaVuSans-74" transform="scale(0.015625)"/>
       <path d="M 603 3500 
L 1178 3500 
L 1178 0 
L 603 0 
L 603 3500 
z
M 603 4863 
L 1178 4863 
L 1178 4134 
L 603 4134 
L 603 4863 
z
" id="DejaVuSans-69" transform="scale(0.015625)"/>
       <path d="M 3328 2828 
Q 3544 3216 3844 3400 
Q 4144 3584 4550 3584 
Q 5097 3584 5394 3201 
Q 5691 2819 5691 2113 
L 5691 0 
L 5113 0 
L 5113 2094 
Q 5113 2597 4934 2840 
Q 4756 3084 4391 3084 
Q 3944 3084 3684 2787 
Q 3425 2491 3425 1978 
L 3425 0 
L 2847 0 
L 2847 2094 
Q 2847 2600 2669 2842 
Q 2491 3084 2119 3084 
Q 1678 3084 1418 2786 
Q 1159 2488 1159 1978 
L 1159 0 
L 581 0 
L 581 3500 
L 1159 3500 
L 1159 2956 
Q 1356 3278 1631 3431 
Q 1906 3584 2284 3584 
Q 2666 3584 2933 3390 
Q 3200 3197 3328 2828 
z
" id="DejaVuSans-6d" transform="scale(0.015625)"/>
       <path d="M 3597 1894 
L 3597 1613 
L 953 1613 
Q 991 1019 1311 708 
Q 1631 397 2203 397 
Q 2534 397 2845 478 
Q 3156 559 3463 722 
L 3463 178 
Q 3153 47 2828 -22 
Q 2503 -91 2169 -91 
Q 1331 -91 842 396 
Q 353 884 353 1716 
Q 353 2575 817 3079 
Q 1281 3584 2069 3584 
Q 2775 3584 3186 3129 
Q 3597 2675 3597 1894 
z
M 3022 2063 
Q 3016 2534 2758 2815 
Q 2500 3097 2075 3097 
Q 1594 3097 1305 2825 
Q 1016 2553 972 2059 
L 3022 2063 
z
" id="DejaVuSans-65" transform="scale(0.015625)"/>
      </defs>
      <use xlink:href="#DejaVuSans-74"/>
      <use x="39.208984" xlink:href="#DejaVuSans-69"/>
      <use x="66.992188" xlink:href="#DejaVuSans-6d"/>
      <use x="164.404297" xlink:href="#DejaVuSans-65"/>
     </g>
    </g>
   </g>
   <g id="matplotlib.axis_2">
    <g id="ytick_1">
     <g id="line2d_10">
      <defs>
       <path d="M 0 0 
L -3.5 0 
" id="mad55cc12af" style="stroke:#000000;stroke-width:0.8;"/>
      </defs>
      <g>
       <use style="stroke:#000000;stroke-width:0.8;" x="42.082813" xlink:href="#mad55cc12af" y="104.975204"/>
      </g>
     </g>
     <g id="text_11">
      <!-- 200 -->
      <g transform="translate(15.995313 108.774423)scale(0.1 -0.1)">
       <use xlink:href="#DejaVuSans-32"/>
       <use x="63.623047" xlink:href="#DejaVuSans-30"/>
       <use x="127.246094" xlink:href="#DejaVuSans-30"/>
      </g>
     </g>
    </g>
    <g id="ytick_2">
     <g id="line2d_11">
      <g>
       <use style="stroke:#000000;stroke-width:0.8;" x="42.082813" xlink:href="#mad55cc12af" y="69.275904"/>
      </g>
     </g>
     <g id="text_12">
      <!-- 400 -->
      <g transform="translate(15.995313 73.075123)scale(0.1 -0.1)">
       <use xlink:href="#DejaVuSans-34"/>
       <use x="63.623047" xlink:href="#DejaVuSans-30"/>
       <use x="127.246094" xlink:href="#DejaVuSans-30"/>
      </g>
     </g>
    </g>
    <g id="ytick_3">
     <g id="line2d_12">
      <g>
       <use style="stroke:#000000;stroke-width:0.8;" x="42.082813" xlink:href="#mad55cc12af" y="33.576604"/>
      </g>
     </g>
     <g id="text_13">
      <!-- 600 -->
      <g transform="translate(15.995313 37.375823)scale(0.1 -0.1)">
       <defs>
        <path d="M 2113 2584 
Q 1688 2584 1439 2293 
Q 1191 2003 1191 1497 
Q 1191 994 1439 701 
Q 1688 409 2113 409 
Q 2538 409 2786 701 
Q 3034 994 3034 1497 
Q 3034 2003 2786 2293 
Q 2538 2584 2113 2584 
z
M 3366 4563 
L 3366 3988 
Q 3128 4100 2886 4159 
Q 2644 4219 2406 4219 
Q 1781 4219 1451 3797 
Q 1122 3375 1075 2522 
Q 1259 2794 1537 2939 
Q 1816 3084 2150 3084 
Q 2853 3084 3261 2657 
Q 3669 2231 3669 1497 
Q 3669 778 3244 343 
Q 2819 -91 2113 -91 
Q 1303 -91 875 529 
Q 447 1150 447 2328 
Q 447 3434 972 4092 
Q 1497 4750 2381 4750 
Q 2619 4750 2861 4703 
Q 3103 4656 3366 4563 
z
" id="DejaVuSans-36" transform="scale(0.015625)"/>
       </defs>
       <use xlink:href="#DejaVuSans-36"/>
       <use x="63.623047" xlink:href="#DejaVuSans-30"/>
       <use x="127.246094" xlink:href="#DejaVuSans-30"/>
      </g>
     </g>
    </g>
   </g>
   <g id="line2d_13">
    <path clip-path="url(#pe03eacfe3f)" d="M 59.769957 102.474469 
L 60.014593 102.408426 
L 60.259228 103.017099 
L 60.503864 103.086711 
L 60.748499 102.836815 
L 61.482406 103.170604 
L 61.727041 103.597211 
L 61.971677 103.074216 
L 62.216312 103.291982 
L 62.460948 103.91672 
L 63.43949 102.290618 
L 63.92876 103.534738 
L 64.173396 105.376822 
L 64.907302 104.42722 
L 65.396573 103.568651 
L 65.885844 106.392466 
L 66.864386 105.714181 
L 67.109022 105.112648 
L 67.353657 106.394251 
L 67.598293 105.785578 
L 68.332199 106.024764 
L 68.576835 105.655275 
L 68.82147 105.846266 
L 69.066105 105.212606 
L 69.310741 104.907377 
L 70.289283 104.368317 
L 70.533918 104.520038 
L 70.778554 104.45221 
L 71.023189 104.677116 
L 71.757096 104.900237 
L 72.001731 105.499985 
L 72.246367 104.857397 
L 72.491002 104.618211 
L 72.735638 104.150551 
L 73.469544 103.37052 
L 73.958815 103.309832 
L 74.20345 103.063506 
L 74.448086 101.592695 
L 75.181992 101.569492 
L 75.426628 100.866214 
L 75.671263 100.541353 
L 76.160534 100.227196 
L 76.894441 100.719849 
L 77.139076 100.610966 
L 77.383712 100.669868 
L 77.628347 100.575265 
L 77.872983 101.003657 
L 78.606889 100.557415 
L 78.851524 99.913045 
L 79.09616 99.732762 
L 79.340795 100.218274 
L 79.585431 99.459663 
L 80.319337 99.193704 
L 80.563973 98.576106 
L 80.808608 98.727825 
L 81.053244 98.554686 
L 82.276421 97.917451 
L 82.521057 97.728245 
L 82.765692 97.844268 
L 83.010328 97.515837 
L 83.988869 97.401596 
L 84.47814 96.243154 
L 84.722776 96.51447 
L 85.456682 96.573373 
L 85.701318 97.016045 
L 85.945953 94.404641 
L 86.435224 92.332299 
L 87.169131 92.569698 
L 87.413766 93.901283 
L 87.658402 93.979819 
L 87.903037 92.723203 
L 88.147673 94.070852 
L 88.881579 93.131962 
L 89.126214 94.501031 
L 89.37085 94.981186 
L 89.860121 98.574319 
L 90.594027 95.338177 
L 90.838663 94.886583 
L 91.083298 93.892356 
L 91.572569 95.368525 
L 92.306476 95.297125 
L 92.551111 95.629126 
L 92.795747 96.346684 
L 93.040382 98.235177 
L 93.285018 97.421234 
L 94.018924 96.62871 
L 94.508195 97.101725 
L 94.75283 95.452418 
L 94.997466 94.822323 
L 95.976008 94.117262 
L 96.220643 93.560354 
L 96.465279 93.708508 
L 96.709914 94.986538 
L 97.688456 96.169971 
L 97.933092 97.264153 
L 98.177727 95.959345 
L 98.422363 95.423858 
L 99.156269 95.286415 
L 100.134811 91.753967 
L 100.868717 92.450105 
L 101.113353 91.793237 
L 101.602624 92.658948 
L 101.847259 93.06949 
L 102.581166 92.783894 
L 102.825801 94.949056 
L 103.315072 96.321694 
L 103.559708 96.59658 
L 104.538249 96.294921 
L 104.782885 94.502814 
L 105.02752 94.606344 
L 105.272156 94.333245 
L 106.006062 94.74914 
L 106.250698 95.729087 
L 106.495333 95.563083 
L 107.718511 96.839332 
L 107.963146 95.713019 
L 108.207782 95.293555 
L 108.452417 94.440341 
L 108.697053 94.276125 
L 109.430959 94.393931 
L 109.675594 93.537147 
L 110.164865 94.602774 
L 110.409501 94.75628 
L 111.143407 93.935196 
L 111.388043 93.920916 
L 111.632678 93.733493 
L 112.121949 94.249348 
L 112.855856 93.953046 
L 113.100491 94.370728 
L 113.345127 96.016465 
L 113.589762 95.730869 
L 113.834397 96.211029 
L 114.568304 96.47163 
L 114.812939 95.698739 
L 115.057575 95.502393 
L 115.30221 96.071798 
L 115.546846 96.114638 
L 116.280752 96.800066 
L 116.525388 97.847838 
L 116.770023 97.319491 
L 117.014659 97.785366 
L 117.259294 97.54618 
L 118.237836 97.282003 
L 118.482472 95.991475 
L 118.727107 95.663044 
L 118.971742 94.484964 
L 119.950284 94.656319 
L 120.19492 93.744203 
L 120.684191 93.65674 
L 121.907368 92.441182 
L 122.152004 91.307729 
L 122.396639 91.521925 
L 123.130546 90.118939 
L 123.375181 90.022554 
L 123.619817 89.312136 
L 123.864452 89.103297 
L 124.109087 88.49641 
L 124.842994 88.703466 
L 125.087629 89.470999 
L 125.332265 89.379966 
L 125.5769 90.026124 
L 126.555442 90.93824 
L 126.800078 89.099727 
L 127.289349 89.049747 
L 127.533984 88.184041 
L 128.267891 87.953777 
L 128.512526 87.38616 
L 129.001797 86.713229 
L 129.246432 84.494517 
L 129.980339 83.912619 
L 130.224974 85.431624 
L 130.46961 85.245988 
L 130.714245 85.426266 
L 130.958881 85.792185 
L 131.692787 85.547646 
L 132.182058 85.727925 
L 132.426694 86.190234 
L 132.671329 86.950628 
L 133.405236 86.37944 
L 134.139142 83.864422 
L 134.383777 84.067908 
L 135.117684 83.801949 
L 135.362319 84.255331 
L 135.606955 83.907262 
L 135.85159 84.153588 
L 136.096226 85.69223 
L 136.830132 85.868938 
L 137.074768 86.841745 
L 137.319403 87.036308 
L 137.564039 85.620829 
L 137.808674 85.924271 
L 138.542581 84.740843 
L 138.787216 85.567279 
L 139.031851 84.483807 
L 139.521122 84.448107 
L 140.255029 84.114318 
L 140.499664 85.135317 
L 140.7443 84.198211 
L 140.988935 83.885842 
L 141.233571 84.012575 
L 141.967477 83.52885 
L 142.212113 83.875132 
L 142.456748 83.375344 
L 142.701384 83.598463 
L 142.946019 83.455667 
L 143.679926 83.257534 
L 143.924561 83.50386 
L 144.169196 83.491367 
L 144.413832 83.332504 
L 144.658467 83.44674 
L 145.392374 83.161149 
L 145.881645 82.634584 
L 146.12628 82.913035 
L 147.594093 82.611376 
L 148.083364 83.098671 
L 149.306541 81.056672 
L 149.551177 81.104869 
L 150.529719 79.548378 
L 150.774354 79.692961 
L 151.01899 79.196739 
L 151.263625 78.971833 
L 151.508261 78.472045 
L 152.731438 80.192748 
L 153.220709 82.356128 
L 154.443886 79.298482 
L 154.688522 79.412722 
L 154.933157 80.68183 
L 155.667064 80.107073 
L 155.911699 79.087856 
L 156.40097 79.371664 
L 156.645606 78.825467 
L 157.379512 77.865158 
L 157.868783 76.744198 
L 158.113419 77.390356 
L 158.358054 76.978026 
L 159.336596 76.433612 
L 159.581231 75.857071 
L 159.825867 76.719208 
L 160.070502 78.100769 
L 161.049044 80.233806 
L 161.29368 79.518035 
L 161.538315 79.471625 
L 161.782951 78.529161 
L 162.516857 77.627754 
L 162.761493 78.323892 
L 163.006128 77.822318 
L 163.250764 76.494302 
L 163.495399 76.415766 
L 164.229305 77.24399 
L 164.473941 77.17259 
L 164.718576 77.759845 
L 164.963212 78.795124 
L 165.207847 77.84552 
L 165.941754 77.565281 
L 166.186389 79.01646 
L 166.431025 81.768872 
L 166.67566 80.942436 
L 166.920296 81.651067 
L 167.898838 79.771496 
L 168.143473 80.130275 
L 168.632744 77.925843 
L 169.36665 78.122189 
L 169.611286 78.029373 
L 169.855921 78.445268 
L 170.100557 78.466688 
L 170.345192 79.171749 
L 171.079099 79.773284 
L 171.323734 80.183826 
L 171.56837 80.335549 
L 171.813005 80.328409 
L 172.057641 80.867466 
L 172.791547 81.627864 
L 173.036183 81.342268 
L 173.280818 80.676477 
L 173.770089 82.224042 
L 174.503995 81.440441 
L 175.237902 78.075784 
L 176.216444 77.663454 
L 176.461079 78.125759 
L 176.705715 78.173957 
L 176.95035 78.780844 
L 177.194986 78.177526 
L 177.928892 78.864737 
L 178.418163 78.277482 
L 178.662799 78.780844 
L 178.907434 78.796907 
L 179.64134 78.629121 
L 179.885976 78.298902 
L 180.130611 78.695164 
L 180.375247 78.812974 
L 180.619882 79.896447 
L 181.353789 81.181622 
L 182.087695 79.891089 
L 182.332331 80.838906 
L 183.066237 80.985276 
L 183.310873 81.379751 
L 183.555508 80.560455 
L 183.800144 80.878176 
L 185.023321 78.588068 
L 185.267956 79.00218 
L 185.512592 78.896867 
L 185.757227 79.371664 
L 186.491134 80.335549 
L 186.735769 81.406528 
L 186.980405 81.370828 
L 187.22504 81.504701 
L 187.469676 82.502493 
L 188.203582 82.377548 
L 188.448218 81.335128 
L 188.692853 82.350775 
L 188.937489 82.634584 
L 189.182124 83.509217 
L 189.91603 84.390987 
L 190.160666 82.609594 
L 190.405301 83.089748 
L 190.649937 81.551107 
L 190.894572 82.42217 
L 191.628479 81.406528 
L 191.873114 80.831766 
L 192.11775 81.049532 
L 192.362385 80.758583 
L 192.607021 79.403795 
L 193.830198 77.886578 
L 194.074833 76.915554 
L 194.319469 76.467529 
L 195.053375 77.486741 
L 195.298011 77.531369 
L 195.542646 76.769188 
L 195.787282 76.813811 
L 196.031917 75.537562 
L 197.010459 73.4081 
L 197.255095 71.61421 
L 197.49973 71.544593 
L 197.744366 70.47183 
L 198.478272 69.543651 
L 198.722908 68.66723 
L 198.967543 70.598563 
L 199.456814 70.975192 
L 200.19072 69.85602 
L 200.435356 71.255431 
L 200.679991 70.602133 
L 200.924627 73.31528 
L 201.169262 73.984641 
L 201.903169 77.627754 
L 202.147804 73.915028 
L 202.39244 75.757111 
L 202.637075 73.970361 
L 202.881711 73.38311 
L 203.615617 72.23716 
L 203.860253 72.760155 
L 204.104888 72.767295 
L 204.594159 77.124397 
L 205.328065 77.051214 
L 205.572701 73.988211 
L 205.817336 73.527689 
L 206.061972 73.966791 
L 206.306607 72.206818 
L 207.040514 71.066225 
L 207.285149 71.062655 
L 208.019056 73.907888 
L 208.997598 72.892241 
L 209.242233 72.144345 
L 209.486868 72.106857 
L 209.731504 73.295647 
L 210.46541 72.856546 
L 212.177859 67.199988 
L 212.422494 66.875127 
L 212.66713 67.108955 
L 212.911765 68.951039 
L 213.156401 68.508371 
L 213.890307 68.71007 
L 214.624213 70.959125 
L 214.868849 72.610219 
L 215.847391 74.184556 
L 216.092026 73.158204 
L 216.336662 73.31528 
L 216.581297 74.666499 
L 217.315204 71.273281 
L 217.559839 69.224142 
L 217.804475 68.884996 
L 218.04911 67.771181 
L 218.293746 65.348983 
L 219.027652 65.707757 
L 219.272287 65.306142 
L 219.516923 69.522231 
L 220.006194 70.548583 
L 220.7401 68.245978 
L 220.984736 69.673949 
L 221.718642 68.392348 
L 222.452549 68.422691 
L 222.697184 69.898855 
L 222.94182 69.738209 
L 223.186455 68.72792 
L 223.431091 69.233065 
L 224.164997 69.324098 
L 224.409632 68.163872 
L 224.898903 71.914082 
L 225.143539 72.021182 
L 225.877445 72.977921 
L 226.122081 71.269711 
L 226.366716 71.994404 
L 226.611352 73.30814 
L 226.855987 73.749025 
L 227.589894 74.807512 
L 227.834529 73.468786 
L 228.079165 75.168073 
L 228.568436 75.778531 
L 229.302342 73.538399 
L 229.546977 74.059611 
L 230.036248 71.430357 
L 230.280884 71.114418 
L 231.01479 70.523593 
L 231.504061 71.223301 
L 231.748697 70.943062 
L 231.993332 70.41471 
L 232.727239 70.732436 
L 232.971874 71.273281 
L 233.21651 72.811918 
L 233.461145 73.035041 
L 233.705781 72.66377 
L 234.439687 72.451356 
L 234.684322 69.998815 
L 234.928958 69.909565 
L 235.173593 69.534724 
L 235.418229 68.68151 
L 236.396771 68.110322 
L 236.641406 68.804673 
L 236.886042 68.362001 
L 237.130677 68.383421 
L 238.353855 66.876909 
L 238.843126 65.277582 
L 239.577032 65.397175 
L 239.821667 65.127646 
L 240.310938 65.457865 
L 240.555574 65.739887 
L 241.534116 64.86704 
L 241.778751 64.07987 
L 242.023387 64.322625 
L 242.268022 65.652424 
L 243.001929 64.383316 
L 243.246564 65.632791 
L 243.4912 60.947258 
L 243.735835 61.309607 
L 243.980471 60.836588 
L 244.714377 59.813805 
L 244.959012 59.194425 
L 245.203648 59.246188 
L 245.448283 59.437176 
L 245.692919 58.623233 
L 246.426825 57.857487 
L 246.671461 56.989988 
L 246.916096 55.58879 
L 247.160732 52.645384 
L 247.405367 52.600761 
L 248.139274 50.962159 
L 248.383909 49.737679 
L 248.628545 51.842155 
L 248.87318 51.031777 
L 249.117816 51.04784 
L 250.096357 48.775577 
L 250.340993 49.098661 
L 250.585628 48.5007 
L 250.830264 47.426151 
L 251.56417 46.828181 
L 252.053441 43.850858 
L 252.298077 43.488518 
L 252.542712 43.361781 
L 253.521254 46.024952 
L 253.76589 45.948195 
L 254.010525 43.93119 
L 254.25516 43.363563 
L 254.989067 42.14444 
L 255.478338 35.436536 
L 255.722973 36.154094 
L 255.967609 36.152311 
L 256.946151 32.512767 
L 257.680057 34.281663 
L 258.413964 32.330702 
L 258.658599 30.991971 
L 258.903235 30.431494 
L 259.392505 33.656925 
L 260.126412 30.25121 
L 260.371047 28.343089 
L 260.615683 29.237356 
L 260.860318 27.564846 
L 261.83886 27.109676 
L 262.083496 28.50016 
L 262.572767 29.512242 
L 262.817402 32.643071 
L 263.551309 37.123326 
L 263.795944 31.84519 
L 264.04058 32.087941 
L 264.52985 38.399579 
L 265.263757 38.628059 
L 265.508392 40.666484 
L 265.753028 31.791635 
L 265.997663 32.202181 
L 266.242299 33.04111 
L 266.976205 36.43612 
L 267.220841 36.766334 
L 267.465476 36.079128 
L 267.710112 36.821672 
L 267.954747 39.779357 
L 268.688654 39.024316 
L 268.933289 39.256362 
L 269.42256 38.838685 
L 269.667195 39.518751 
L 270.401102 41.03419 
L 270.890373 43.201135 
L 271.135008 46.049938 
L 271.379644 46.003532 
L 272.11355 40.487993 
L 272.358186 41.257304 
L 272.602821 38.831545 
L 273.092092 40.307709 
L 274.070634 38.526316 
L 274.315269 37.294686 
L 274.559905 37.551717 
L 274.80454 40.539755 
L 275.538447 39.950718 
L 275.783082 40.211314 
L 276.027718 38.67089 
L 276.272353 38.624485 
L 276.516989 37.089418 
L 277.250895 38.722662 
L 277.495531 37.831961 
L 277.740166 38.545944 
L 277.984802 38.658402 
L 278.229437 38.19431 
L 278.963344 36.114828 
L 279.207979 35.82387 
L 279.452614 36.121968 
L 279.69725 37.562432 
L 279.941885 36.771692 
L 280.675792 38.794053 
L 280.920427 38.569147 
L 281.165063 38.128267 
L 281.409698 39.101074 
L 281.654334 36.432545 
L 282.38824 34.911758 
L 282.632876 33.68192 
L 283.122147 31.802349 
L 283.366782 32.527048 
L 284.100689 31.097289 
L 284.834595 33.772948 
L 285.07923 32.689476 
L 286.057772 32.337842 
L 286.302408 32.459213 
L 286.547043 31.020531 
L 286.791679 32.809064 
L 287.525585 32.892962 
L 287.770221 33.412391 
L 288.014856 38.04437 
L 288.259492 38.060432 
L 288.504127 36.225494 
L 289.238034 34.463729 
L 289.482669 31.655984 
L 289.727304 32.361044 
L 289.97194 32.186119 
L 290.216575 30.774205 
L 290.950482 29.551507 
L 291.439753 30.031662 
L 291.929024 29.70323 
L 292.907566 27.920045 
L 293.152201 28.07356 
L 293.396837 27.090039 
L 293.641472 24.989137 
L 294.375378 21.947554 
L 294.620014 23.570093 
L 294.864649 21.283551 
L 295.109285 22.397366 
L 295.35392 22.292057 
L 296.087827 20.067993 
L 296.577098 20.462467 
L 296.821733 22.176035 
L 297.066369 21.931491 
L 298.044911 20.194721 
L 298.289546 21.04079 
L 298.778817 19.218349 
L 299.512723 22.377738 
L 299.757359 22.761497 
L 300.491265 17.283441 
L 301.469807 15.386025 
L 301.714443 15.352107 
L 301.959078 15.959 
L 302.203714 15.710891 
L 302.93762 17.370904 
L 303.182256 20.449969 
L 303.426891 21.942206 
L 303.671527 19.061268 
L 303.916162 21.599485 
L 304.650068 22.975698 
L 304.894704 22.632986 
L 305.139339 20.823033 
L 305.383975 21.65304 
L 305.62861 24.189473 
L 306.362517 26.76339 
L 306.607152 27.177502 
L 306.851788 26.274313 
L 307.096423 28.560855 
L 308.074965 27.372065 
L 308.319601 24.689265 
L 308.564236 25.613875 
L 308.808872 27.750477 
L 309.053507 31.820195 
L 309.787413 27.502368 
L 310.032049 31.191892 
L 310.276684 30.572511 
L 310.765955 32.862619 
L 311.989133 34.411966 
L 312.233768 34.1942 
L 312.478404 37.717721 
L 313.21231 36.321879 
L 313.456946 36.637823 
L 313.946217 44.688014 
L 314.190852 43.026209 
L 314.924758 43.78125 
L 315.169394 43.768752 
L 315.414029 44.843302 
L 315.658665 46.853176 
L 315.9033 46.485469 
L 316.637207 39.693677 
L 316.881842 40.554035 
L 317.126478 40.413018 
L 317.615749 38.66375 
L 318.349655 35.445458 
L 318.594291 36.293319 
L 318.838926 36.621751 
L 319.083562 35.47581 
L 319.328197 36.204074 
L 320.062103 36.041636 
L 320.306739 37.887299 
L 320.551374 44.502373 
L 320.79601 42.994084 
L 321.040645 45.491243 
L 321.774552 46.103492 
L 322.019187 44.038281 
L 322.263823 44.46489 
L 322.508458 46.126695 
L 322.753094 49.678776 
L 323.487 48.065169 
L 323.731636 45.37522 
L 324.220907 47.547522 
L 324.465542 47.975914 
L 325.199448 47.825983 
L 325.688719 49.105801 
L 325.933355 48.738094 
L 326.17799 49.714476 
L 327.401168 42.674575 
L 327.645803 43.911553 
L 327.890439 46.60685 
L 328.624345 47.160187 
L 328.868981 46.908504 
L 329.113616 48.373963 
L 329.358252 47.229805 
L 329.602887 47.80277 
L 330.336793 51.113882 
L 330.581429 53.939482 
L 330.826064 50.339214 
L 331.315335 51.426251 
L 332.293877 50.574825 
L 332.538513 48.925518 
L 332.783148 60.261835 
L 333.027784 62.157463 
L 333.76169 60.381423 
L 334.006326 58.874916 
L 334.740232 59.704923 
L 335.474138 61.721931 
L 335.718774 58.951664 
L 335.963409 59.039127 
L 336.45268 55.892236 
L 337.186587 55.008675 
L 337.431222 57.155991 
L 337.920493 57.38982 
L 338.165129 58.537553 
L 339.143671 58.567895 
L 339.388306 60.556349 
L 339.632941 61.054354 
L 339.877577 60.206497 
L 340.611483 61.636256 
L 340.856119 60.534929 
L 341.34539 61.886147 
L 341.590025 63.837113 
L 342.323932 65.697051 
L 342.568567 63.717525 
L 342.813203 64.695685 
L 343.057838 63.817481 
L 343.302474 63.613995 
L 344.03638 62.516242 
L 344.281016 64.20125 
L 344.525651 64.21553 
L 344.770286 63.474769 
L 345.014922 61.482746 
L 345.748828 59.330076 
L 345.993464 59.549634 
L 346.238099 59.979809 
L 346.482735 59.863786 
L 346.72737 58.225184 
L 347.461277 57.927095 
L 347.705912 58.362627 
L 348.195183 61.661241 
L 349.173725 64.11557 
L 349.418361 63.958494 
L 349.662996 63.565802 
L 350.152267 65.134787 
L 351.130809 64.460069 
L 351.375444 62.905364 
L 351.62008 63.14812 
L 351.864715 63.956706 
L 352.598622 65.732747 
L 352.843257 64.592154 
L 353.087893 68.776113 
L 353.332528 70.694953 
L 353.577164 70.966265 
L 354.31107 69.513303 
L 354.555705 68.181722 
L 354.800341 68.301315 
L 355.044976 67.780103 
L 355.289612 66.205766 
L 356.023518 63.899591 
L 356.268154 61.639826 
L 356.512789 62.262776 
L 357.00206 60.354646 
L 357.735967 58.439384 
L 357.980602 58.805299 
L 358.225238 57.880689 
L 358.714509 59.820945 
L 359.448415 59.505002 
L 359.937686 64.12628 
L 360.182321 63.103493 
L 360.426957 63.339109 
L 361.160863 61.613049 
L 361.405499 62.196734 
L 362.139405 61.216787 
L 363.117947 61.879007 
L 363.362583 61.252487 
L 363.607218 60.069054 
L 363.851854 60.399268 
L 364.58576 60.22256 
L 364.830395 60.474243 
L 365.075031 61.223927 
L 365.319666 62.41093 
L 365.564302 61.812964 
L 366.542844 62.564435 
L 366.787479 63.530102 
L 367.032115 62.857172 
L 367.27675 63.912084 
L 368.010657 63.564015 
L 368.255292 63.605072 
L 368.744563 66.270022 
L 369.723105 68.822523 
L 369.96774 68.80646 
L 370.457011 70.386155 
L 370.701647 69.895285 
L 371.435553 67.630167 
L 371.680189 65.975503 
L 371.924824 65.563178 
L 372.414095 66.166496 
L 373.148002 66.589531 
L 373.392637 65.28651 
L 373.637273 65.575671 
L 373.881908 64.404736 
L 374.126544 64.543962 
L 374.86045 64.377958 
L 375.105085 63.885311 
L 375.349721 63.865674 
L 375.594356 63.606855 
L 375.838992 64.822418 
L 376.572898 64.579662 
L 376.817534 65.886257 
L 377.062169 62.04501 
L 377.306805 62.40379 
L 378.285347 60.745555 
L 378.529982 59.758468 
L 378.774618 59.899486 
L 379.263889 58.112735 
L 379.997795 56.879323 
L 380.24243 57.629006 
L 380.487066 57.677204 
L 380.731701 58.38583 
L 380.976337 59.556774 
L 381.710243 57.252377 
L 381.954879 53.287977 
L 382.199514 51.693997 
L 382.44415 51.799315 
L 382.688785 51.010357 
L 383.422692 50.04469 
L 383.667327 51.235263 
L 384.156598 50.897909 
L 384.401234 51.244185 
L 385.13514 50.896116 
L 385.379775 53.462902 
L 385.624411 53.050573 
L 385.869046 52.907773 
L 386.113682 53.707436 
L 387.092224 53.464685 
L 387.336859 51.66008 
L 387.581495 52.270547 
L 388.560037 50.324934 
L 388.804672 52.382995 
L 389.049308 57.189909 
L 389.293943 56.30099 
L 389.538579 57.691484 
L 390.272485 60.32966 
L 390.51712 59.401476 
L 391.006391 56.370608 
L 391.251027 57.243454 
L 391.984933 53.096979 
L 392.229569 53.371865 
L 392.474204 54.723083 
L 392.71884 53.885937 
L 392.963475 54.505317 
L 393.697382 55.576302 
L 393.942017 53.575351 
L 394.186653 53.289759 
L 394.431288 54.387512 
L 394.675923 54.455337 
L 395.40983 53.612833 
L 395.654465 54.828401 
L 396.143736 53.275479 
L 396.388372 52.709644 
L 397.122278 52.133104 
L 397.856185 50.623022 
L 398.834727 47.613565 
L 399.079362 47.879528 
L 399.568633 45.730429 
L 399.813268 46.792481 
L 400.547175 46.092778 
L 400.79181 48.448928 
L 401.036446 46.981687 
L 401.525717 47.850968 
L 402.259623 46.651473 
L 402.504259 46.883519 
L 402.748894 47.692105 
L 402.99353 49.196829 
L 403.238165 47.756365 
L 403.972072 48.025894 
L 404.461343 47.743868 
L 404.705978 46.399789 
L 404.950613 46.965624 
L 405.68452 48.100869 
L 405.929155 47.936648 
L 406.173791 48.748809 
L 406.418426 47.652839 
L 406.663062 47.892025 
L 407.396968 47.188747 
L 407.886239 43.222555 
L 408.37551 41.417959 
L 409.109417 42.281874 
L 409.354052 39.588369 
L 409.598688 39.82398 
L 409.843323 39.306343 
L 410.087958 40.712899 
L 410.821865 39.568731 
L 411.0665 39.725812 
L 411.311136 40.473713 
L 411.555771 40.620078 
L 411.800407 41.710691 
L 412.534313 41.162701 
L 412.778949 41.61073 
L 413.023584 42.363989 
L 413.26822 43.490301 
L 413.512855 42.676357 
L 413.512855 42.676357 
" style="fill:none;stroke:#1f77b4;stroke-linecap:square;stroke-width:1.5;"/>
   </g>
   <g id="patch_3">
    <path d="M 42.082813 110.946358 
L 42.082813 10.8 
" style="fill:none;stroke:#000000;stroke-linecap:square;stroke-linejoin:miter;stroke-width:0.8;"/>
   </g>
   <g id="patch_4">
    <path d="M 431.2 110.946358 
L 431.2 10.8 
" style="fill:none;stroke:#000000;stroke-linecap:square;stroke-linejoin:miter;stroke-width:0.8;"/>
   </g>
   <g id="patch_5">
    <path d="M 42.082813 110.946358 
L 431.2 110.946358 
" style="fill:none;stroke:#000000;stroke-linecap:square;stroke-linejoin:miter;stroke-width:0.8;"/>
   </g>
   <g id="patch_6">
    <path d="M 42.082813 10.8 
L 431.2 10.8 
" style="fill:none;stroke:#000000;stroke-linecap:square;stroke-linejoin:miter;stroke-width:0.8;"/>
   </g>
   <g id="legend_1">
    <g id="patch_7">
     <path d="M 332.15 33.75625 
L 424.2 33.75625 
Q 426.2 33.75625 426.2 31.75625 
L 426.2 17.8 
Q 426.2 15.8 424.2 15.8 
L 332.15 15.8 
Q 330.15 15.8 330.15 17.8 
L 330.15 31.75625 
Q 330.15 33.75625 332.15 33.75625 
z
" style="fill:#ffffff;opacity:0.8;stroke:#cccccc;stroke-linejoin:miter;"/>
    </g>
    <g id="line2d_14">
     <path d="M 334.15 23.898438 
L 354.15 23.898438 
" style="fill:none;stroke:#1f77b4;stroke-linecap:square;stroke-width:1.5;"/>
    </g>
    <g id="line2d_15"/>
    <g id="text_14">
     <!-- data_values -->
     <g transform="translate(362.15 27.398438)scale(0.1 -0.1)">
      <defs>
       <path d="M 2906 2969 
L 2906 4863 
L 3481 4863 
L 3481 0 
L 2906 0 
L 2906 525 
Q 2725 213 2448 61 
Q 2172 -91 1784 -91 
Q 1150 -91 751 415 
Q 353 922 353 1747 
Q 353 2572 751 3078 
Q 1150 3584 1784 3584 
Q 2172 3584 2448 3432 
Q 2725 3281 2906 2969 
z
M 947 1747 
Q 947 1113 1208 752 
Q 1469 391 1925 391 
Q 2381 391 2643 752 
Q 2906 1113 2906 1747 
Q 2906 2381 2643 2742 
Q 2381 3103 1925 3103 
Q 1469 3103 1208 2742 
Q 947 2381 947 1747 
z
" id="DejaVuSans-64" transform="scale(0.015625)"/>
       <path d="M 2194 1759 
Q 1497 1759 1228 1600 
Q 959 1441 959 1056 
Q 959 750 1161 570 
Q 1363 391 1709 391 
Q 2188 391 2477 730 
Q 2766 1069 2766 1631 
L 2766 1759 
L 2194 1759 
z
M 3341 1997 
L 3341 0 
L 2766 0 
L 2766 531 
Q 2569 213 2275 61 
Q 1981 -91 1556 -91 
Q 1019 -91 701 211 
Q 384 513 384 1019 
Q 384 1609 779 1909 
Q 1175 2209 1959 2209 
L 2766 2209 
L 2766 2266 
Q 2766 2663 2505 2880 
Q 2244 3097 1772 3097 
Q 1472 3097 1187 3025 
Q 903 2953 641 2809 
L 641 3341 
Q 956 3463 1253 3523 
Q 1550 3584 1831 3584 
Q 2591 3584 2966 3190 
Q 3341 2797 3341 1997 
z
" id="DejaVuSans-61" transform="scale(0.015625)"/>
       <path d="M 3263 -1063 
L 3263 -1509 
L -63 -1509 
L -63 -1063 
L 3263 -1063 
z
" id="DejaVuSans-5f" transform="scale(0.015625)"/>
       <path d="M 191 3500 
L 800 3500 
L 1894 563 
L 2988 3500 
L 3597 3500 
L 2284 0 
L 1503 0 
L 191 3500 
z
" id="DejaVuSans-76" transform="scale(0.015625)"/>
       <path d="M 603 4863 
L 1178 4863 
L 1178 0 
L 603 0 
L 603 4863 
z
" id="DejaVuSans-6c" transform="scale(0.015625)"/>
       <path d="M 544 1381 
L 544 3500 
L 1119 3500 
L 1119 1403 
Q 1119 906 1312 657 
Q 1506 409 1894 409 
Q 2359 409 2629 706 
Q 2900 1003 2900 1516 
L 2900 3500 
L 3475 3500 
L 3475 0 
L 2900 0 
L 2900 538 
Q 2691 219 2414 64 
Q 2138 -91 1772 -91 
Q 1169 -91 856 284 
Q 544 659 544 1381 
z
M 1991 3584 
L 1991 3584 
z
" id="DejaVuSans-75" transform="scale(0.015625)"/>
       <path d="M 2834 3397 
L 2834 2853 
Q 2591 2978 2328 3040 
Q 2066 3103 1784 3103 
Q 1356 3103 1142 2972 
Q 928 2841 928 2578 
Q 928 2378 1081 2264 
Q 1234 2150 1697 2047 
L 1894 2003 
Q 2506 1872 2764 1633 
Q 3022 1394 3022 966 
Q 3022 478 2636 193 
Q 2250 -91 1575 -91 
Q 1294 -91 989 -36 
Q 684 19 347 128 
L 347 722 
Q 666 556 975 473 
Q 1284 391 1588 391 
Q 1994 391 2212 530 
Q 2431 669 2431 922 
Q 2431 1156 2273 1281 
Q 2116 1406 1581 1522 
L 1381 1569 
Q 847 1681 609 1914 
Q 372 2147 372 2553 
Q 372 3047 722 3315 
Q 1072 3584 1716 3584 
Q 2034 3584 2315 3537 
Q 2597 3491 2834 3397 
z
" id="DejaVuSans-73" transform="scale(0.015625)"/>
      </defs>
      <use xlink:href="#DejaVuSans-64"/>
      <use x="63.476562" xlink:href="#DejaVuSans-61"/>
      <use x="124.755859" xlink:href="#DejaVuSans-74"/>
      <use x="163.964844" xlink:href="#DejaVuSans-61"/>
      <use x="225.244141" xlink:href="#DejaVuSans-5f"/>
      <use x="275.244141" xlink:href="#DejaVuSans-76"/>
      <use x="334.423828" xlink:href="#DejaVuSans-61"/>
      <use x="395.703125" xlink:href="#DejaVuSans-6c"/>
      <use x="423.486328" xlink:href="#DejaVuSans-75"/>
      <use x="486.865234" xlink:href="#DejaVuSans-65"/>
      <use x="548.388672" xlink:href="#DejaVuSans-73"/>
     </g>
    </g>
   </g>
  </g>
  <g id="axes_2">
   <g id="patch_8">
    <path d="M 42.082813 271.84375 
L 431.2 271.84375 
L 431.2 171.697392 
L 42.082813 171.697392 
z
" style="fill:#ffffff;"/>
   </g>
   <g id="matplotlib.axis_3">
    <g id="xtick_10">
     <g id="line2d_16">
      <g>
       <use style="stroke:#000000;stroke-width:0.8;" x="59.769957" xlink:href="#meff0c6f004" y="271.84375"/>
      </g>
     </g>
     <g id="text_15">
      <!-- 0.00 -->
      <g transform="translate(48.637145 286.442187)scale(0.1 -0.1)">
       <defs>
        <path d="M 684 794 
L 1344 794 
L 1344 0 
L 684 0 
L 684 794 
z
" id="DejaVuSans-2e" transform="scale(0.015625)"/>
       </defs>
       <use xlink:href="#DejaVuSans-30"/>
       <use x="63.623047" xlink:href="#DejaVuSans-2e"/>
       <use x="95.410156" xlink:href="#DejaVuSans-30"/>
       <use x="159.033203" xlink:href="#DejaVuSans-30"/>
      </g>
     </g>
    </g>
    <g id="xtick_11">
     <g id="line2d_17">
      <g>
       <use style="stroke:#000000;stroke-width:0.8;" x="137.848345" xlink:href="#meff0c6f004" y="271.84375"/>
      </g>
     </g>
     <g id="text_16">
      <!-- 0.01 -->
      <g transform="translate(126.715532 286.442187)scale(0.1 -0.1)">
       <use xlink:href="#DejaVuSans-30"/>
       <use x="63.623047" xlink:href="#DejaVuSans-2e"/>
       <use x="95.410156" xlink:href="#DejaVuSans-30"/>
       <use x="159.033203" xlink:href="#DejaVuSans-31"/>
      </g>
     </g>
    </g>
    <g id="xtick_12">
     <g id="line2d_18">
      <g>
       <use style="stroke:#000000;stroke-width:0.8;" x="215.926732" xlink:href="#meff0c6f004" y="271.84375"/>
      </g>
     </g>
     <g id="text_17">
      <!-- 0.02 -->
      <g transform="translate(204.79392 286.442187)scale(0.1 -0.1)">
       <use xlink:href="#DejaVuSans-30"/>
       <use x="63.623047" xlink:href="#DejaVuSans-2e"/>
       <use x="95.410156" xlink:href="#DejaVuSans-30"/>
       <use x="159.033203" xlink:href="#DejaVuSans-32"/>
      </g>
     </g>
    </g>
    <g id="xtick_13">
     <g id="line2d_19">
      <g>
       <use style="stroke:#000000;stroke-width:0.8;" x="294.005119" xlink:href="#meff0c6f004" y="271.84375"/>
      </g>
     </g>
     <g id="text_18">
      <!-- 0.03 -->
      <g transform="translate(282.872307 286.442187)scale(0.1 -0.1)">
       <use xlink:href="#DejaVuSans-30"/>
       <use x="63.623047" xlink:href="#DejaVuSans-2e"/>
       <use x="95.410156" xlink:href="#DejaVuSans-30"/>
       <use x="159.033203" xlink:href="#DejaVuSans-33"/>
      </g>
     </g>
    </g>
    <g id="xtick_14">
     <g id="line2d_20">
      <g>
       <use style="stroke:#000000;stroke-width:0.8;" x="372.083507" xlink:href="#meff0c6f004" y="271.84375"/>
      </g>
     </g>
     <g id="text_19">
      <!-- 0.04 -->
      <g transform="translate(360.950694 286.442187)scale(0.1 -0.1)">
       <use xlink:href="#DejaVuSans-30"/>
       <use x="63.623047" xlink:href="#DejaVuSans-2e"/>
       <use x="95.410156" xlink:href="#DejaVuSans-30"/>
       <use x="159.033203" xlink:href="#DejaVuSans-34"/>
      </g>
     </g>
    </g>
    <g id="text_20">
     <!-- time -->
     <g transform="translate(225.345312 300.120313)scale(0.1 -0.1)">
      <use xlink:href="#DejaVuSans-74"/>
      <use x="39.208984" xlink:href="#DejaVuSans-69"/>
      <use x="66.992188" xlink:href="#DejaVuSans-6d"/>
      <use x="164.404297" xlink:href="#DejaVuSans-65"/>
     </g>
    </g>
   </g>
   <g id="matplotlib.axis_4">
    <g id="ytick_4">
     <g id="line2d_21">
      <g>
       <use style="stroke:#000000;stroke-width:0.8;" x="42.082813" xlink:href="#mad55cc12af" y="266.255084"/>
      </g>
     </g>
     <g id="text_21">
      <!-- −0.2 -->
      <g transform="translate(10.8 270.054303)scale(0.1 -0.1)">
       <defs>
        <path d="M 678 2272 
L 4684 2272 
L 4684 1741 
L 678 1741 
L 678 2272 
z
" id="DejaVuSans-2212" transform="scale(0.015625)"/>
       </defs>
       <use xlink:href="#DejaVuSans-2212"/>
       <use x="83.789062" xlink:href="#DejaVuSans-30"/>
       <use x="147.412109" xlink:href="#DejaVuSans-2e"/>
       <use x="179.199219" xlink:href="#DejaVuSans-32"/>
      </g>
     </g>
    </g>
    <g id="ytick_5">
     <g id="line2d_22">
      <g>
       <use style="stroke:#000000;stroke-width:0.8;" x="42.082813" xlink:href="#mad55cc12af" y="238.805851"/>
      </g>
     </g>
     <g id="text_22">
      <!-- 0.0 -->
      <g transform="translate(19.179688 242.60507)scale(0.1 -0.1)">
       <use xlink:href="#DejaVuSans-30"/>
       <use x="63.623047" xlink:href="#DejaVuSans-2e"/>
       <use x="95.410156" xlink:href="#DejaVuSans-30"/>
      </g>
     </g>
    </g>
    <g id="ytick_6">
     <g id="line2d_23">
      <g>
       <use style="stroke:#000000;stroke-width:0.8;" x="42.082813" xlink:href="#mad55cc12af" y="211.356618"/>
      </g>
     </g>
     <g id="text_23">
      <!-- 0.2 -->
      <g transform="translate(19.179688 215.155836)scale(0.1 -0.1)">
       <use xlink:href="#DejaVuSans-30"/>
       <use x="63.623047" xlink:href="#DejaVuSans-2e"/>
       <use x="95.410156" xlink:href="#DejaVuSans-32"/>
      </g>
     </g>
    </g>
    <g id="ytick_7">
     <g id="line2d_24">
      <g>
       <use style="stroke:#000000;stroke-width:0.8;" x="42.082813" xlink:href="#mad55cc12af" y="183.907385"/>
      </g>
     </g>
     <g id="text_24">
      <!-- 0.4 -->
      <g transform="translate(19.179688 187.706603)scale(0.1 -0.1)">
       <use xlink:href="#DejaVuSans-30"/>
       <use x="63.623047" xlink:href="#DejaVuSans-2e"/>
       <use x="95.410156" xlink:href="#DejaVuSans-34"/>
      </g>
     </g>
    </g>
   </g>
   <g id="line2d_25">
    <path clip-path="url(#p2348698825)" d="M 59.769957 239.762435 
L 61.540442 240.362223 
L 62.95683 240.600456 
L 64.373218 240.593013 
L 68.622382 240.343987 
L 73.933837 240.423059 
L 79.245292 240.373666 
L 89.868202 240.154474 
L 94.117366 239.882567 
L 104.386179 239.38626 
L 124.569707 237.165902 
L 128.818871 236.89399 
L 134.484423 236.844121 
L 137.317199 236.978239 
L 140.149975 237.351851 
L 144.399139 238.144626 
L 146.877818 238.827514 
L 150.064691 239.972744 
L 155.022049 241.979513 
L 159.271213 243.968216 
L 167.061347 247.684494 
L 170.24822 248.792136 
L 173.78919 249.795196 
L 175.913772 250.15846 
L 177.684257 250.246833 
L 179.808839 250.122337 
L 182.641615 249.718753 
L 187.953069 248.692797 
L 191.494039 247.811798 
L 195.035009 246.651953 
L 200.346464 244.679177 
L 202.825143 243.545033 
L 205.303822 242.158279 
L 207.428404 240.734202 
L 209.552986 239.022774 
L 211.323471 237.315805 
L 213.448053 234.9065 
L 215.926732 231.685812 
L 220.529993 225.188937 
L 223.716866 220.866578 
L 225.487351 218.762943 
L 227.257836 217.020256 
L 228.674224 215.954634 
L 230.090612 215.219034 
L 231.152903 214.895735 
L 232.215194 214.773657 
L 233.277485 214.856891 
L 234.339776 215.149829 
L 235.402067 215.656647 
L 236.464358 216.379464 
L 237.880746 217.675107 
L 239.297134 219.331215 
L 240.713522 221.313389 
L 242.484007 224.183653 
L 244.608589 228.078683 
L 248.149559 235.143592 
L 252.044626 242.746827 
L 254.877401 247.774651 
L 257.35608 251.710023 
L 259.480662 254.672699 
L 261.605244 257.24408 
L 263.729826 259.454683 
L 265.854408 261.353849 
L 267.97899 262.981461 
L 270.103572 264.33642 
L 272.228154 265.397301 
L 274.352736 266.191195 
L 276.831415 266.864649 
L 278.955997 267.215985 
L 280.726482 267.288099 
L 282.496967 267.138696 
L 284.621549 266.708258 
L 286.746131 266.044702 
L 288.870713 265.13658 
L 290.995295 263.990163 
L 293.473974 262.418366 
L 295.952653 260.587855 
L 298.077235 258.751275 
L 300.555914 256.319748 
L 304.096884 252.504745 
L 307.991951 248.316882 
L 310.116533 246.358323 
L 312.241115 244.705571 
L 314.365697 243.360578 
L 316.136182 242.535149 
L 317.55257 242.105725 
L 319.323055 241.832448 
L 322.509927 241.68247 
L 324.634509 241.480998 
L 326.404994 241.090646 
L 327.821382 240.561496 
L 329.23777 239.786226 
L 330.654158 238.727213 
L 332.070546 237.360308 
L 333.486934 235.665499 
L 334.903322 233.61677 
L 336.31971 231.185364 
L 337.736098 228.357814 
L 339.506583 224.300734 
L 341.631165 218.824714 
L 344.818038 209.887322 
L 350.129493 194.925454 
L 352.254075 189.665239 
L 354.02456 185.851273 
L 355.440948 183.2356 
L 356.857336 181.042316 
L 358.273724 179.289049 
L 359.336015 178.261462 
L 360.398306 177.468963 
L 361.460597 176.893943 
L 362.522888 176.514478 
L 363.939276 176.272253 
L 365.355664 176.284479 
L 366.772052 176.507177 
L 368.542537 177.022385 
L 371.021216 178.037059 
L 375.978574 180.168032 
L 379.873641 181.75784 
L 381.644126 182.715884 
L 383.414611 183.945529 
L 384.830999 185.169407 
L 386.247387 186.64241 
L 387.663774 188.396524 
L 389.080162 190.457783 
L 390.850647 193.489504 
L 392.621132 197.034475 
L 394.391617 201.078591 
L 396.516199 206.518104 
L 399.348975 214.455474 
L 405.014527 230.518712 
L 407.139109 235.940887 
L 408.909594 239.961862 
L 410.680079 243.436269 
L 412.450564 246.34651 
L 413.512855 247.838826 
L 413.512855 247.838826 
" style="fill:none;stroke:#1f77b4;stroke-linecap:square;stroke-width:1.5;"/>
   </g>
   <g id="patch_9">
    <path d="M 42.082813 271.84375 
L 42.082813 171.697392 
" style="fill:none;stroke:#000000;stroke-linecap:square;stroke-linejoin:miter;stroke-width:0.8;"/>
   </g>
   <g id="patch_10">
    <path d="M 431.2 271.84375 
L 431.2 171.697392 
" style="fill:none;stroke:#000000;stroke-linecap:square;stroke-linejoin:miter;stroke-width:0.8;"/>
   </g>
   <g id="patch_11">
    <path d="M 42.082813 271.84375 
L 431.2 271.84375 
" style="fill:none;stroke:#000000;stroke-linecap:square;stroke-linejoin:miter;stroke-width:0.8;"/>
   </g>
   <g id="patch_12">
    <path d="M 42.082813 171.697392 
L 431.2 171.697392 
" style="fill:none;stroke:#000000;stroke-linecap:square;stroke-linejoin:miter;stroke-width:0.8;"/>
   </g>
   <g id="legend_2">
    <g id="patch_13">
     <path d="M 49.082813 194.653642 
L 141.132812 194.653642 
Q 143.132812 194.653642 143.132812 192.653642 
L 143.132812 178.697392 
Q 143.132812 176.697392 141.132812 176.697392 
L 49.082813 176.697392 
Q 47.082813 176.697392 47.082813 178.697392 
L 47.082813 192.653642 
Q 47.082813 194.653642 49.082813 194.653642 
z
" style="fill:#ffffff;opacity:0.8;stroke:#cccccc;stroke-linejoin:miter;"/>
    </g>
    <g id="line2d_26">
     <path d="M 51.082813 184.795829 
L 71.082813 184.795829 
" style="fill:none;stroke:#1f77b4;stroke-linecap:square;stroke-width:1.5;"/>
    </g>
    <g id="line2d_27"/>
    <g id="text_25">
     <!-- data_values -->
     <g transform="translate(79.082813 188.295829)scale(0.1 -0.1)">
      <use xlink:href="#DejaVuSans-64"/>
      <use x="63.476562" xlink:href="#DejaVuSans-61"/>
      <use x="124.755859" xlink:href="#DejaVuSans-74"/>
      <use x="163.964844" xlink:href="#DejaVuSans-61"/>
      <use x="225.244141" xlink:href="#DejaVuSans-5f"/>
      <use x="275.244141" xlink:href="#DejaVuSans-76"/>
      <use x="334.423828" xlink:href="#DejaVuSans-61"/>
      <use x="395.703125" xlink:href="#DejaVuSans-6c"/>
      <use x="423.486328" xlink:href="#DejaVuSans-75"/>
      <use x="486.865234" xlink:href="#DejaVuSans-65"/>
      <use x="548.388672" xlink:href="#DejaVuSans-73"/>
     </g>
    </g>
   </g>
  </g>
 </g>
 <defs>
  <clipPath id="pe03eacfe3f">
   <rect height="100.146358" width="389.117187" x="42.082813" y="10.8"/>
  </clipPath>
  <clipPath id="p2348698825">
   <rect height="100.146358" width="389.117187" x="42.082813" y="171.697392"/>
  </clipPath>
 </defs>
</svg>
