<?xml version="1.0" encoding="utf-8" standalone="no"?>
<!DOCTYPE svg PUBLIC "-//W3C//DTD SVG 1.1//EN"
  "http://www.w3.org/Graphics/SVG/1.1/DTD/svg11.dtd">
<svg height="313pt" version="1.1" viewBox="0 0 442 313" width="442pt" xmlns="http://www.w3.org/2000/svg" xmlns:xlink="http://www.w3.org/1999/xlink">
 <metadata>
  <rdf:RDF xmlns:cc="http://creativecommons.org/ns#" xmlns:dc="http://purl.org/dc/elements/1.1/" xmlns:rdf="http://www.w3.org/1999/02/22-rdf-syntax-ns#">
   <cc:Work>
    <dc:type rdf:resource="http://purl.org/dc/dcmitype/StillImage"/>
    <dc:date>2025-02-11T17:03:57.915063</dc:date>
    <dc:format>image/svg+xml</dc:format>
    <dc:creator>
     <cc:Agent>
      <dc:title>Matplotlib v3.4.3, https://matplotlib.org/</dc:title>
     </cc:Agent>
    </dc:creator>
   </cc:Work>
  </rdf:RDF>
 </metadata>
 <defs>
  <style type="text/css">*{stroke-linecap:butt;stroke-linejoin:round;}</style>
 </defs>
 <g id="figure_1">
  <g id="patch_1">
   <path d="M 0 313 
L 442 313 
L 442 0 
L 0 0 
z
" style="fill:#ffffff;"/>
  </g>
  <g id="axes_1">
   <g id="patch_2">
    <path d="M 42.082813 134.421875 
L 431.2 134.421875 
L 431.2 10.8 
L 42.082813 10.8 
z
" style="fill:#ffffff;"/>
   </g>
   <g id="matplotlib.axis_1">
    <g id="xtick_1">
     <g id="line2d_1">
      <defs>
       <path d="M 0 0 
L 0 3.5 
" id="m69afda8c35" style="stroke:#000000;stroke-width:0.8;"/>
      </defs>
      <g>
       <use style="stroke:#000000;stroke-width:0.8;" x="59.769957" xlink:href="#m69afda8c35" y="134.421875"/>
      </g>
     </g>
     <g id="text_1">
      <!-- 0 -->
      <g transform="translate(56.588707 149.020312)scale(0.1 -0.1)">
       <defs>
        <path d="M 2034 4250 
Q 1547 4250 1301 3770 
Q 1056 3291 1056 2328 
Q 1056 1369 1301 889 
Q 1547 409 2034 409 
Q 2525 409 2770 889 
Q 3016 1369 3016 2328 
Q 3016 3291 2770 3770 
Q 2525 4250 2034 4250 
z
M 2034 4750 
Q 2819 4750 3233 4129 
Q 3647 3509 3647 2328 
Q 3647 1150 3233 529 
Q 2819 -91 2034 -91 
Q 1250 -91 836 529 
Q 422 1150 422 2328 
Q 422 3509 836 4129 
Q 1250 4750 2034 4750 
z
" id="DejaVuSans-30" transform="scale(0.015625)"/>
       </defs>
       <use xlink:href="#DejaVuSans-30"/>
      </g>
     </g>
    </g>
    <g id="xtick_2">
     <g id="line2d_2">
      <g>
       <use style="stroke:#000000;stroke-width:0.8;" x="130.589356" xlink:href="#m69afda8c35" y="134.421875"/>
      </g>
     </g>
     <g id="text_2">
      <!-- 200 -->
      <g transform="translate(121.045606 149.020312)scale(0.1 -0.1)">
       <defs>
        <path d="M 1228 531 
L 3431 531 
L 3431 0 
L 469 0 
L 469 531 
Q 828 903 1448 1529 
Q 2069 2156 2228 2338 
Q 2531 2678 2651 2914 
Q 2772 3150 2772 3378 
Q 2772 3750 2511 3984 
Q 2250 4219 1831 4219 
Q 1534 4219 1204 4116 
Q 875 4013 500 3803 
L 500 4441 
Q 881 4594 1212 4672 
Q 1544 4750 1819 4750 
Q 2544 4750 2975 4387 
Q 3406 4025 3406 3419 
Q 3406 3131 3298 2873 
Q 3191 2616 2906 2266 
Q 2828 2175 2409 1742 
Q 1991 1309 1228 531 
z
" id="DejaVuSans-32" transform="scale(0.015625)"/>
       </defs>
       <use xlink:href="#DejaVuSans-32"/>
       <use x="63.623047" xlink:href="#DejaVuSans-30"/>
       <use x="127.246094" xlink:href="#DejaVuSans-30"/>
      </g>
     </g>
    </g>
    <g id="xtick_3">
     <g id="line2d_3">
      <g>
       <use style="stroke:#000000;stroke-width:0.8;" x="201.408755" xlink:href="#m69afda8c35" y="134.421875"/>
      </g>
     </g>
     <g id="text_3">
      <!-- 400 -->
      <g transform="translate(191.865005 149.020312)scale(0.1 -0.1)">
       <defs>
        <path d="M 2419 4116 
L 825 1625 
L 2419 1625 
L 2419 4116 
z
M 2253 4666 
L 3047 4666 
L 3047 1625 
L 3713 1625 
L 3713 1100 
L 3047 1100 
L 3047 0 
L 2419 0 
L 2419 1100 
L 313 1100 
L 313 1709 
L 2253 4666 
z
" id="DejaVuSans-34" transform="scale(0.015625)"/>
       </defs>
       <use xlink:href="#DejaVuSans-34"/>
       <use x="63.623047" xlink:href="#DejaVuSans-30"/>
       <use x="127.246094" xlink:href="#DejaVuSans-30"/>
      </g>
     </g>
    </g>
    <g id="xtick_4">
     <g id="line2d_4">
      <g>
       <use style="stroke:#000000;stroke-width:0.8;" x="272.228154" xlink:href="#m69afda8c35" y="134.421875"/>
      </g>
     </g>
     <g id="text_4">
      <!-- 600 -->
      <g transform="translate(262.684404 149.020312)scale(0.1 -0.1)">
       <defs>
        <path d="M 2113 2584 
Q 1688 2584 1439 2293 
Q 1191 2003 1191 1497 
Q 1191 994 1439 701 
Q 1688 409 2113 409 
Q 2538 409 2786 701 
Q 3034 994 3034 1497 
Q 3034 2003 2786 2293 
Q 2538 2584 2113 2584 
z
M 3366 4563 
L 3366 3988 
Q 3128 4100 2886 4159 
Q 2644 4219 2406 4219 
Q 1781 4219 1451 3797 
Q 1122 3375 1075 2522 
Q 1259 2794 1537 2939 
Q 1816 3084 2150 3084 
Q 2853 3084 3261 2657 
Q 3669 2231 3669 1497 
Q 3669 778 3244 343 
Q 2819 -91 2113 -91 
Q 1303 -91 875 529 
Q 447 1150 447 2328 
Q 447 3434 972 4092 
Q 1497 4750 2381 4750 
Q 2619 4750 2861 4703 
Q 3103 4656 3366 4563 
z
" id="DejaVuSans-36" transform="scale(0.015625)"/>
       </defs>
       <use xlink:href="#DejaVuSans-36"/>
       <use x="63.623047" xlink:href="#DejaVuSans-30"/>
       <use x="127.246094" xlink:href="#DejaVuSans-30"/>
      </g>
     </g>
    </g>
    <g id="xtick_5">
     <g id="line2d_5">
      <g>
       <use style="stroke:#000000;stroke-width:0.8;" x="343.047553" xlink:href="#m69afda8c35" y="134.421875"/>
      </g>
     </g>
     <g id="text_5">
      <!-- 800 -->
      <g transform="translate(333.503803 149.020312)scale(0.1 -0.1)">
       <defs>
        <path d="M 2034 2216 
Q 1584 2216 1326 1975 
Q 1069 1734 1069 1313 
Q 1069 891 1326 650 
Q 1584 409 2034 409 
Q 2484 409 2743 651 
Q 3003 894 3003 1313 
Q 3003 1734 2745 1975 
Q 2488 2216 2034 2216 
z
M 1403 2484 
Q 997 2584 770 2862 
Q 544 3141 544 3541 
Q 544 4100 942 4425 
Q 1341 4750 2034 4750 
Q 2731 4750 3128 4425 
Q 3525 4100 3525 3541 
Q 3525 3141 3298 2862 
Q 3072 2584 2669 2484 
Q 3125 2378 3379 2068 
Q 3634 1759 3634 1313 
Q 3634 634 3220 271 
Q 2806 -91 2034 -91 
Q 1263 -91 848 271 
Q 434 634 434 1313 
Q 434 1759 690 2068 
Q 947 2378 1403 2484 
z
M 1172 3481 
Q 1172 3119 1398 2916 
Q 1625 2713 2034 2713 
Q 2441 2713 2670 2916 
Q 2900 3119 2900 3481 
Q 2900 3844 2670 4047 
Q 2441 4250 2034 4250 
Q 1625 4250 1398 4047 
Q 1172 3844 1172 3481 
z
" id="DejaVuSans-38" transform="scale(0.015625)"/>
       </defs>
       <use xlink:href="#DejaVuSans-38"/>
       <use x="63.623047" xlink:href="#DejaVuSans-30"/>
       <use x="127.246094" xlink:href="#DejaVuSans-30"/>
      </g>
     </g>
    </g>
    <g id="xtick_6">
     <g id="line2d_6">
      <g>
       <use style="stroke:#000000;stroke-width:0.8;" x="413.866952" xlink:href="#m69afda8c35" y="134.421875"/>
      </g>
     </g>
     <g id="text_6">
      <!-- 1000 -->
      <g transform="translate(401.141952 149.020312)scale(0.1 -0.1)">
       <defs>
        <path d="M 794 531 
L 1825 531 
L 1825 4091 
L 703 3866 
L 703 4441 
L 1819 4666 
L 2450 4666 
L 2450 531 
L 3481 531 
L 3481 0 
L 794 0 
L 794 531 
z
" id="DejaVuSans-31" transform="scale(0.015625)"/>
       </defs>
       <use xlink:href="#DejaVuSans-31"/>
       <use x="63.623047" xlink:href="#DejaVuSans-30"/>
       <use x="127.246094" xlink:href="#DejaVuSans-30"/>
       <use x="190.869141" xlink:href="#DejaVuSans-30"/>
      </g>
     </g>
    </g>
   </g>
   <g id="matplotlib.axis_2">
    <g id="ytick_1">
     <g id="line2d_7">
      <defs>
       <path d="M 0 0 
L -3.5 0 
" id="m7c1cdfbc33" style="stroke:#000000;stroke-width:0.8;"/>
      </defs>
      <g>
       <use style="stroke:#000000;stroke-width:0.8;" x="42.082813" xlink:href="#m7c1cdfbc33" y="127.051011"/>
      </g>
     </g>
     <g id="text_7">
      <!-- 200 -->
      <g transform="translate(15.995313 130.850229)scale(0.1 -0.1)">
       <use xlink:href="#DejaVuSans-32"/>
       <use x="63.623047" xlink:href="#DejaVuSans-30"/>
       <use x="127.246094" xlink:href="#DejaVuSans-30"/>
      </g>
     </g>
    </g>
    <g id="ytick_2">
     <g id="line2d_8">
      <g>
       <use style="stroke:#000000;stroke-width:0.8;" x="42.082813" xlink:href="#m7c1cdfbc33" y="105.017187"/>
      </g>
     </g>
     <g id="text_8">
      <!-- 300 -->
      <g transform="translate(15.995313 108.816405)scale(0.1 -0.1)">
       <defs>
        <path d="M 2597 2516 
Q 3050 2419 3304 2112 
Q 3559 1806 3559 1356 
Q 3559 666 3084 287 
Q 2609 -91 1734 -91 
Q 1441 -91 1130 -33 
Q 819 25 488 141 
L 488 750 
Q 750 597 1062 519 
Q 1375 441 1716 441 
Q 2309 441 2620 675 
Q 2931 909 2931 1356 
Q 2931 1769 2642 2001 
Q 2353 2234 1838 2234 
L 1294 2234 
L 1294 2753 
L 1863 2753 
Q 2328 2753 2575 2939 
Q 2822 3125 2822 3475 
Q 2822 3834 2567 4026 
Q 2313 4219 1838 4219 
Q 1578 4219 1281 4162 
Q 984 4106 628 3988 
L 628 4550 
Q 988 4650 1302 4700 
Q 1616 4750 1894 4750 
Q 2613 4750 3031 4423 
Q 3450 4097 3450 3541 
Q 3450 3153 3228 2886 
Q 3006 2619 2597 2516 
z
" id="DejaVuSans-33" transform="scale(0.015625)"/>
       </defs>
       <use xlink:href="#DejaVuSans-33"/>
       <use x="63.623047" xlink:href="#DejaVuSans-30"/>
       <use x="127.246094" xlink:href="#DejaVuSans-30"/>
      </g>
     </g>
    </g>
    <g id="ytick_3">
     <g id="line2d_9">
      <g>
       <use style="stroke:#000000;stroke-width:0.8;" x="42.082813" xlink:href="#m7c1cdfbc33" y="82.983363"/>
      </g>
     </g>
     <g id="text_9">
      <!-- 400 -->
      <g transform="translate(15.995313 86.782581)scale(0.1 -0.1)">
       <use xlink:href="#DejaVuSans-34"/>
       <use x="63.623047" xlink:href="#DejaVuSans-30"/>
       <use x="127.246094" xlink:href="#DejaVuSans-30"/>
      </g>
     </g>
    </g>
    <g id="ytick_4">
     <g id="line2d_10">
      <g>
       <use style="stroke:#000000;stroke-width:0.8;" x="42.082813" xlink:href="#m7c1cdfbc33" y="60.949539"/>
      </g>
     </g>
     <g id="text_10">
      <!-- 500 -->
      <g transform="translate(15.995313 64.748758)scale(0.1 -0.1)">
       <defs>
        <path d="M 691 4666 
L 3169 4666 
L 3169 4134 
L 1269 4134 
L 1269 2991 
Q 1406 3038 1543 3061 
Q 1681 3084 1819 3084 
Q 2600 3084 3056 2656 
Q 3513 2228 3513 1497 
Q 3513 744 3044 326 
Q 2575 -91 1722 -91 
Q 1428 -91 1123 -41 
Q 819 9 494 109 
L 494 744 
Q 775 591 1075 516 
Q 1375 441 1709 441 
Q 2250 441 2565 725 
Q 2881 1009 2881 1497 
Q 2881 1984 2565 2268 
Q 2250 2553 1709 2553 
Q 1456 2553 1204 2497 
Q 953 2441 691 2322 
L 691 4666 
z
" id="DejaVuSans-35" transform="scale(0.015625)"/>
       </defs>
       <use xlink:href="#DejaVuSans-35"/>
       <use x="63.623047" xlink:href="#DejaVuSans-30"/>
       <use x="127.246094" xlink:href="#DejaVuSans-30"/>
      </g>
     </g>
    </g>
    <g id="ytick_5">
     <g id="line2d_11">
      <g>
       <use style="stroke:#000000;stroke-width:0.8;" x="42.082813" xlink:href="#m7c1cdfbc33" y="38.915715"/>
      </g>
     </g>
     <g id="text_11">
      <!-- 600 -->
      <g transform="translate(15.995313 42.714934)scale(0.1 -0.1)">
       <use xlink:href="#DejaVuSans-36"/>
       <use x="63.623047" xlink:href="#DejaVuSans-30"/>
       <use x="127.246094" xlink:href="#DejaVuSans-30"/>
      </g>
     </g>
    </g>
    <g id="ytick_6">
     <g id="line2d_12">
      <g>
       <use style="stroke:#000000;stroke-width:0.8;" x="42.082813" xlink:href="#m7c1cdfbc33" y="16.881891"/>
      </g>
     </g>
     <g id="text_12">
      <!-- 700 -->
      <g transform="translate(15.995313 20.68111)scale(0.1 -0.1)">
       <defs>
        <path d="M 525 4666 
L 3525 4666 
L 3525 4397 
L 1831 0 
L 1172 0 
L 2766 4134 
L 525 4134 
L 525 4666 
z
" id="DejaVuSans-37" transform="scale(0.015625)"/>
       </defs>
       <use xlink:href="#DejaVuSans-37"/>
       <use x="63.623047" xlink:href="#DejaVuSans-30"/>
       <use x="127.246094" xlink:href="#DejaVuSans-30"/>
      </g>
     </g>
    </g>
   </g>
   <g id="line2d_13">
    <path clip-path="url(#p35015c48d9)" d="M 59.769957 123.964072 
L 60.124054 123.882548 
L 60.478151 124.633901 
L 60.832248 124.719832 
L 61.186345 124.411357 
L 61.894539 125.349999 
L 62.248636 124.704408 
L 62.602733 124.973221 
L 62.95683 125.744405 
L 63.310927 123.737125 
L 64.019121 125.272882 
L 64.373218 127.546772 
L 64.727315 126.374572 
L 65.435509 125.314744 
L 66.143703 128.800495 
L 66.4978 128.212193 
L 66.851897 127.963211 
L 67.205994 127.220672 
L 67.560091 128.802699 
L 67.914188 128.051346 
L 68.268285 128.3466 
L 68.622382 127.890498 
L 68.976479 128.12626 
L 69.330576 127.344062 
L 69.684673 126.967284 
L 70.03877 126.301861 
L 70.392867 126.489147 
L 70.746964 126.40542 
L 71.455158 126.95847 
L 71.809255 127.698805 
L 72.163352 126.905587 
L 72.517449 126.610333 
L 72.871546 126.033049 
L 73.225643 125.070169 
L 73.57974 125.101017 
L 73.933837 124.995255 
L 74.287934 124.691187 
L 74.642031 122.8756 
L 74.996128 122.846958 
L 75.350225 121.978823 
L 75.704322 121.57781 
L 76.412516 121.190012 
L 76.766613 121.798148 
L 77.12071 121.663741 
L 77.474807 121.736452 
L 77.828904 121.619672 
L 78.183001 122.148485 
L 78.537098 121.597638 
L 78.891195 120.80222 
L 79.245292 120.579676 
L 79.599389 121.178998 
L 79.953486 120.242559 
L 80.307583 119.914257 
L 80.66168 119.151887 
L 81.015777 119.33917 
L 81.369874 119.125445 
L 81.723971 118.570192 
L 82.432165 118.105277 
L 82.786262 118.248497 
L 83.140359 117.843077 
L 83.848553 117.702057 
L 84.556747 116.272062 
L 84.910844 116.606978 
L 85.264941 116.679688 
L 85.619038 117.226128 
L 85.973135 114.002579 
L 86.327232 112.405128 
L 86.681329 111.444455 
L 87.035426 111.737503 
L 87.389523 113.381229 
L 87.74362 113.478174 
L 88.097717 111.926992 
L 88.451814 113.590546 
L 88.805911 112.431569 
L 89.160008 114.121564 
L 89.514105 114.714273 
L 90.222299 119.14968 
L 90.576396 115.154948 
L 90.930493 114.597494 
L 91.28459 113.370208 
L 91.992784 115.192409 
L 92.346881 115.104272 
L 92.700978 115.514099 
L 93.055075 116.399861 
L 93.409172 118.73104 
L 94.117366 116.747997 
L 94.82556 117.331892 
L 95.179657 115.295967 
L 96.241948 112.960382 
L 96.596045 113.143264 
L 97.304239 115.82698 
L 97.658336 116.181724 
L 98.012433 117.532396 
L 98.36653 115.921725 
L 98.720627 115.260712 
L 99.074724 115.091051 
L 99.428821 113.899021 
L 99.782918 112.233266 
L 100.137015 111.215304 
L 100.491112 110.730555 
L 100.845209 111.589876 
L 101.199306 110.77903 
L 101.9075 111.847674 
L 102.261597 112.354452 
L 102.615694 112.001909 
L 102.969791 114.674611 
L 103.323888 115.69698 
L 103.677985 116.369013 
L 104.032082 116.708336 
L 104.386179 116.335964 
L 104.740276 114.123765 
L 105.094373 114.251564 
L 105.44847 113.914448 
L 105.802567 114.427833 
L 106.156664 115.637491 
L 106.510761 115.432575 
L 107.218955 116.056131 
L 107.573052 117.007991 
L 107.927149 115.617657 
L 108.281246 115.099865 
L 108.635343 114.046648 
L 108.98944 113.843938 
L 109.343537 113.989358 
L 109.697634 112.931734 
L 110.405828 114.247157 
L 110.759925 114.436646 
L 111.114022 113.423091 
L 111.468119 113.405463 
L 111.822216 113.174106 
L 112.53041 113.810883 
L 112.884507 113.445125 
L 113.238604 113.960717 
L 113.592701 115.992235 
L 113.946798 115.639691 
L 114.300895 116.232406 
L 114.654992 116.554095 
L 115.009089 115.600029 
L 115.363186 115.357658 
L 115.717283 116.060538 
L 116.07138 116.113421 
L 116.425477 116.959521 
L 116.779574 118.252904 
L 117.133671 117.600705 
L 117.487768 118.175786 
L 118.195962 117.686636 
L 118.550059 117.55443 
L 118.904156 115.961387 
L 119.258252 115.555967 
L 119.612349 114.10173 
L 119.966446 114.313254 
L 120.320543 113.187326 
L 121.028737 113.079361 
L 121.382834 112.279536 
L 121.736931 112.054791 
L 122.091028 111.578862 
L 122.445125 110.179714 
L 122.799222 110.44412 
L 123.153319 108.712257 
L 123.507416 108.593278 
L 123.861513 107.716329 
L 124.21561 107.458536 
L 124.569707 106.709387 
L 124.923804 106.964979 
L 125.277901 107.912432 
L 125.631998 107.80006 
L 125.986095 108.597685 
L 126.340192 108.868698 
L 126.694289 109.723612 
L 127.048386 107.45413 
L 127.75658 107.392434 
L 128.110677 106.323795 
L 128.464774 106.039555 
L 128.818871 105.338881 
L 129.527065 104.508208 
L 129.881162 101.769402 
L 130.235259 101.051101 
L 130.589356 102.926178 
L 130.943453 102.697027 
L 131.29755 102.919565 
L 131.651647 103.37126 
L 132.005744 103.069398 
L 132.359841 103.243466 
L 132.713938 103.291936 
L 133.068035 103.862616 
L 133.422132 104.801255 
L 133.776229 104.096174 
L 134.130326 102.95482 
L 134.484423 102.196857 
L 134.83852 100.991605 
L 135.192617 101.242791 
L 135.546714 100.914488 
L 135.900811 101.474148 
L 136.254908 101.044488 
L 136.609005 101.348555 
L 136.963102 103.247873 
L 137.317199 103.466004 
L 137.671296 104.666849 
L 138.025393 104.90702 
L 138.37949 103.159736 
L 138.733587 103.534308 
L 139.087684 102.07347 
L 139.441781 103.093633 
L 139.795878 101.756182 
L 140.149975 101.712113 
L 140.504072 101.30008 
L 140.858169 102.560414 
L 141.212266 101.403638 
L 141.566363 101.018046 
L 141.92046 101.174487 
L 142.274557 100.577372 
L 142.628654 101.004826 
L 142.982751 100.387882 
L 143.336848 100.663303 
L 144.045042 100.242456 
L 144.399139 100.546524 
L 144.753236 100.531103 
L 145.107333 100.335 
L 145.46143 100.476014 
L 146.523721 99.473478 
L 146.877818 99.817202 
L 147.586012 99.405169 
L 147.940109 99.444831 
L 148.648303 100.046353 
L 149.0024 98.501785 
L 149.356497 98.1228 
L 149.710594 97.525685 
L 150.064691 97.58518 
L 150.418788 97.058569 
L 150.772885 95.663828 
L 151.126982 95.842303 
L 151.481079 95.229761 
L 151.835176 94.952134 
L 152.189273 94.335191 
L 152.54337 96.060434 
L 152.897467 96.459247 
L 153.605661 99.129749 
L 153.959758 96.765521 
L 154.313855 95.895186 
L 154.667952 95.355354 
L 155.022049 95.496373 
L 155.376146 97.062976 
L 155.730243 96.353488 
L 156.08434 95.095354 
L 156.792534 95.445691 
L 157.146631 94.771459 
L 157.500728 93.586041 
L 158.208922 92.202315 
L 158.563019 92.99994 
L 159.271213 91.977571 
L 159.62531 91.818923 
L 159.979407 91.107235 
L 160.333504 92.171467 
L 160.687601 93.876882 
L 161.041698 96.509929 
L 161.395795 95.626373 
L 161.749892 95.569084 
L 162.458086 93.292987 
L 162.812183 94.152309 
L 163.16628 93.533159 
L 163.520377 91.89384 
L 163.874474 91.796895 
L 164.228571 92.819264 
L 164.582668 92.731127 
L 164.936765 93.456041 
L 165.290862 94.734003 
L 165.644959 93.5618 
L 165.999056 93.21587 
L 166.353153 95.007223 
L 166.70725 98.404834 
L 167.061347 97.384671 
L 167.415444 98.259413 
L 167.769541 96.357895 
L 168.123638 95.939249 
L 168.477735 96.38213 
L 169.185929 93.660952 
L 169.540026 93.903324 
L 169.894123 93.788751 
L 170.24822 94.302136 
L 170.602317 94.328577 
L 171.310511 95.941455 
L 171.664608 96.448233 
L 172.018705 96.635522 
L 172.372802 96.626708 
L 172.726899 97.292127 
L 173.080996 98.230772 
L 173.435093 97.878228 
L 173.78919 97.056368 
L 174.497384 98.966701 
L 174.851481 97.999414 
L 175.913772 93.84604 
L 176.267869 93.337056 
L 176.621966 93.90773 
L 176.976063 93.967226 
L 177.33016 94.716376 
L 177.684257 93.971633 
L 178.038354 94.819934 
L 178.746548 94.095019 
L 179.100645 94.716376 
L 179.454742 94.736204 
L 179.808839 94.529087 
L 180.162936 94.12146 
L 180.517033 94.610611 
L 180.87113 94.756037 
L 181.579324 97.679925 
L 182.287518 96.232302 
L 182.641615 96.086876 
L 182.995712 97.256872 
L 183.349809 97.437553 
L 183.703906 97.924497 
L 184.058003 96.913148 
L 184.4121 97.305347 
L 184.766197 96.774335 
L 185.120294 94.478411 
L 185.474391 94.989595 
L 185.828488 94.859596 
L 186.182585 95.445691 
L 186.890778 97.957552 
L 187.244875 97.913483 
L 187.598972 98.078738 
L 187.953069 99.310424 
L 188.307166 99.15619 
L 188.661263 97.869414 
L 189.01536 99.123141 
L 189.369457 99.473478 
L 190.077651 101.641603 
L 190.431748 99.44263 
L 190.785845 100.035339 
L 191.139942 98.136021 
L 191.494039 99.211273 
L 191.848136 97.957552 
L 192.202233 97.248058 
L 192.55633 97.516871 
L 192.910427 97.15772 
L 193.618621 94.125867 
L 193.972718 93.612482 
L 194.326815 92.413838 
L 194.680912 91.860791 
L 195.035009 93.118919 
L 195.389106 93.174008 
L 195.743203 92.233163 
L 196.0973 92.288246 
L 196.805494 88.756222 
L 197.159591 88.084196 
L 197.513688 85.869796 
L 197.867785 85.783859 
L 198.930076 82.232008 
L 199.284173 84.616069 
L 199.63827 84.78573 
L 199.992367 85.080985 
L 200.346464 83.699464 
L 200.700561 85.426915 
L 201.054658 84.620476 
L 201.408755 87.969617 
L 201.762852 88.795884 
L 202.116949 93.292987 
L 202.471046 88.709953 
L 202.825143 90.983843 
L 203.17924 88.778257 
L 203.533337 88.053348 
L 203.887434 86.638773 
L 204.241531 87.284365 
L 204.595628 87.293178 
L 205.303822 92.671637 
L 205.657919 92.581299 
L 206.012016 88.800291 
L 206.366113 88.231817 
L 206.72021 88.77385 
L 207.074307 86.601318 
L 207.428404 85.193357 
L 207.782501 85.18895 
L 208.844792 88.701139 
L 209.552986 86.524201 
L 209.907083 86.477926 
L 210.26118 87.945383 
L 210.615277 87.40335 
L 211.677568 84.534545 
L 212.031665 82.873192 
L 212.385762 80.420827 
L 212.739859 80.019814 
L 213.093956 80.308455 
L 213.448053 82.582345 
L 213.80215 82.035911 
L 214.156247 82.28489 
L 214.510344 83.146412 
L 214.864441 83.642175 
L 215.218538 85.061151 
L 215.926732 88.579954 
L 216.280829 89.042663 
L 216.634926 87.775721 
L 216.989023 87.969617 
L 217.34312 89.637578 
L 217.697217 85.448949 
L 218.051314 82.919467 
L 218.405411 82.500821 
L 218.759508 81.125914 
L 219.113605 78.135923 
L 219.467702 78.578798 
L 219.821799 78.083041 
L 220.175896 83.287431 
L 220.88409 84.554373 
L 221.238187 81.712009 
L 221.592284 83.474714 
L 221.946381 82.851158 
L 222.300478 81.949974 
L 223.008672 81.930146 
L 223.362769 83.752341 
L 223.716866 83.554038 
L 224.070963 82.306924 
L 224.42506 82.930481 
L 224.779157 83.042853 
L 225.133254 81.610657 
L 225.841448 86.239961 
L 226.195545 86.372167 
L 226.549642 87.553177 
L 226.903739 85.444542 
L 227.257836 86.339112 
L 227.611933 87.960804 
L 227.96603 88.505037 
L 228.320127 89.811646 
L 228.674224 88.159107 
L 229.028321 90.256728 
L 229.382418 91.010284 
L 229.736515 88.245038 
L 230.090612 88.888428 
L 230.444709 86.905386 
L 230.798806 85.642845 
L 231.152903 85.252846 
L 231.507 84.523525 
L 232.215194 85.387253 
L 232.569291 85.041323 
L 232.923388 84.389119 
L 233.277485 84.781324 
L 233.631582 85.448949 
L 233.985679 87.348261 
L 234.339776 87.623687 
L 234.693873 87.165385 
L 235.04797 86.903179 
L 235.402067 83.875733 
L 235.756164 83.765562 
L 236.110261 83.302853 
L 236.818455 81.544554 
L 237.172552 82.401669 
L 237.526649 81.855229 
L 237.880746 81.881671 
L 238.234843 80.508964 
L 238.58894 80.022015 
L 239.297134 78.047786 
L 239.651231 78.195413 
L 240.005328 77.862703 
L 240.713522 78.27033 
L 241.067619 78.61846 
L 241.775813 76.569315 
L 242.12991 76.868976 
L 242.484007 78.510495 
L 242.838104 76.943892 
L 243.192201 78.48626 
L 243.546298 72.702381 
L 243.900395 73.149669 
L 244.254492 72.565769 
L 244.608589 71.303234 
L 244.962686 70.538663 
L 245.316783 70.60256 
L 245.67088 70.838318 
L 246.733171 67.81748 
L 247.087268 66.087823 
L 247.441365 62.454448 
L 247.795462 62.399365 
L 248.503656 58.865141 
L 248.857753 61.462932 
L 249.21185 60.462592 
L 249.565947 60.48242 
L 249.920044 57.677511 
L 250.274141 58.07633 
L 250.628238 57.3382 
L 250.982335 56.011763 
L 251.336432 55.273622 
L 252.044626 51.598378 
L 252.398723 51.151102 
L 252.75282 50.994655 
L 253.106917 53.643117 
L 253.461013 54.282107 
L 253.81511 54.187356 
L 254.169207 51.697542 
L 254.523304 50.996856 
L 254.877401 49.491955 
L 255.231498 45.944505 
L 255.585595 41.211637 
L 255.939692 42.0974 
L 256.293789 42.095199 
L 256.647886 38.673342 
L 257.001983 37.602503 
L 258.064274 39.786049 
L 258.772468 35.725213 
L 259.126565 35.033353 
L 259.480662 36.743181 
L 259.834759 39.014865 
L 260.188856 34.810809 
L 260.542953 32.455401 
L 260.89705 33.559295 
L 261.251147 31.494728 
L 261.605244 30.932861 
L 261.959341 32.649291 
L 262.313438 33.142849 
L 262.667535 33.898617 
L 263.021632 37.76335 
L 263.375729 43.293831 
L 263.729826 36.778436 
L 264.083923 37.078091 
L 264.792117 44.869254 
L 265.146214 45.151293 
L 265.500311 47.667548 
L 265.854408 36.712328 
L 266.208505 37.219111 
L 266.562602 38.254695 
L 266.916699 42.445536 
L 267.270796 42.853156 
L 267.624893 42.004861 
L 267.97899 42.921466 
L 268.333087 46.572469 
L 268.687184 45.640437 
L 269.041281 45.926878 
L 269.749475 45.411292 
L 270.103572 46.250773 
L 270.457669 48.12145 
L 270.811766 49.234157 
L 271.165863 50.796352 
L 271.51996 54.312949 
L 271.874057 54.255665 
L 272.228154 47.447217 
L 272.582251 48.396864 
L 272.936348 45.402478 
L 273.290445 46.557042 
L 273.644542 47.224673 
L 274.352736 43.505361 
L 274.706833 43.822643 
L 275.06093 47.511113 
L 275.415027 46.783998 
L 275.769124 47.105682 
L 276.123221 45.204163 
L 276.477318 45.14688 
L 276.831415 43.251975 
L 277.185512 45.268072 
L 277.539609 44.168579 
L 277.893706 45.049929 
L 278.247803 45.188748 
L 278.6019 44.615867 
L 278.955997 42.04893 
L 279.310094 41.689767 
L 279.664191 42.057744 
L 280.018288 43.83587 
L 280.372385 42.85977 
L 280.726482 45.356197 
L 281.080579 45.078571 
L 281.434676 44.534343 
L 281.788773 45.735188 
L 282.14287 42.441123 
L 283.205161 36.725554 
L 283.559258 37.62013 
L 283.913355 35.855219 
L 284.267452 37.106733 
L 284.621549 37.939613 
L 284.975646 39.158085 
L 285.329743 37.820634 
L 285.68384 37.393174 
L 286.037937 37.386572 
L 286.392034 37.536394 
L 286.746131 35.760468 
L 287.100228 37.968255 
L 287.454325 38.071819 
L 287.808422 38.713009 
L 288.162519 44.430779 
L 288.516616 44.450607 
L 289.22481 40.010793 
L 289.578907 36.544878 
L 289.933004 37.415214 
L 290.287101 37.199283 
L 290.995295 33.947087 
L 291.703489 34.539796 
L 292.411683 34.134376 
L 292.76578 32.305568 
L 293.119877 31.933191 
L 293.473974 32.122692 
L 293.828071 30.908621 
L 294.182168 28.315242 
L 294.536265 24.560675 
L 294.890362 26.563557 
L 295.244459 23.741022 
L 295.598556 25.115928 
L 295.952653 24.985935 
L 296.30675 22.240522 
L 297.014944 22.727466 
L 297.369041 24.842715 
L 297.723138 24.540847 
L 298.077235 22.396957 
L 298.431332 23.441355 
L 299.139526 21.191711 
L 299.493623 25.091699 
L 299.84772 25.565417 
L 300.201817 23.538306 
L 300.555914 20.632045 
L 301.264108 16.930361 
L 301.618205 16.461044 
L 301.972302 16.419176 
L 302.326399 17.168331 
L 302.680496 16.862063 
L 303.034593 18.911203 
L 303.38869 22.712039 
L 303.742787 24.554074 
L 304.096884 20.997809 
L 304.450981 24.131014 
L 304.805078 25.829829 
L 305.159175 25.406781 
L 305.513272 23.172554 
L 305.867369 24.197123 
L 306.575563 30.505402 
L 306.92966 31.016586 
L 307.283757 29.901678 
L 307.637854 32.724214 
L 307.991951 32.369464 
L 308.346048 31.256757 
L 308.700145 27.945077 
L 309.054242 29.086426 
L 309.408339 31.723873 
L 309.762436 36.747582 
L 310.116533 31.417605 
L 310.47063 35.971998 
L 310.824727 35.207427 
L 311.887018 39.946896 
L 312.241115 39.678083 
L 312.595212 44.02756 
L 312.949309 42.304516 
L 313.303406 42.694521 
L 314.0116 52.631774 
L 314.365697 50.580422 
L 314.719794 51.512453 
L 315.073891 51.497026 
L 315.427988 52.823463 
L 315.782085 55.304476 
L 316.136182 54.850575 
L 316.490279 46.466704 
L 316.844376 47.528741 
L 317.198473 47.354667 
L 317.55257 45.19535 
L 317.906667 41.222651 
L 318.260764 42.269262 
L 318.614861 42.674681 
L 318.968958 41.260119 
L 319.323055 42.159096 
L 319.677152 41.958581 
L 320.031249 44.236889 
L 320.385346 52.402617 
L 320.739442 50.540766 
L 321.093539 53.623289 
L 321.447636 54.379058 
L 321.801733 51.829736 
L 322.15583 52.356348 
L 322.509927 54.407699 
L 322.864024 58.792431 
L 323.218121 56.800574 
L 323.572218 53.480069 
L 323.926315 55.152442 
L 324.280412 56.161585 
L 324.634509 56.690397 
L 324.988606 56.50532 
L 325.342703 58.085144 
L 325.6968 57.631242 
L 326.050897 58.836499 
L 326.759091 50.14636 
L 327.113188 51.673301 
L 327.467285 55.000408 
L 327.821382 55.683454 
L 328.175479 55.372774 
L 328.529576 57.181754 
L 328.883673 55.769391 
L 329.23777 56.476667 
L 329.945964 64.051898 
L 330.300061 59.607683 
L 331.008255 60.949536 
L 331.362352 59.898525 
L 331.716449 57.8626 
L 332.070546 71.856287 
L 332.424643 74.196274 
L 333.132837 70.144258 
L 334.195128 71.168827 
L 334.549225 73.658648 
L 334.903322 70.238996 
L 335.257419 70.346962 
L 335.611516 67.951886 
L 336.31971 65.371722 
L 336.673807 68.022396 
L 337.382001 68.311037 
L 337.736098 69.727812 
L 338.090195 69.765267 
L 338.444292 72.219838 
L 338.798389 72.834581 
L 339.152486 71.787977 
L 339.506583 73.552889 
L 339.86068 72.193397 
L 340.568874 73.861358 
L 341.277068 78.565584 
L 341.631165 76.122033 
L 341.985262 77.329484 
L 342.339359 76.245419 
L 342.693456 75.994234 
L 343.047553 74.639155 
L 343.40165 76.719148 
L 343.755747 76.736776 
L 344.109844 75.822372 
L 344.818038 70.706113 
L 345.172135 70.977138 
L 345.526232 71.50815 
L 345.880329 71.36493 
L 346.234426 69.34222 
L 346.588523 68.974256 
L 346.94262 69.511881 
L 347.650814 73.583731 
L 348.004911 76.613383 
L 348.359008 76.419487 
L 348.713105 75.934744 
L 349.421299 77.871517 
L 349.775396 77.208299 
L 350.129493 77.038637 
L 350.48359 75.119491 
L 350.837687 75.419152 
L 351.191784 76.417281 
L 351.545881 78.609646 
L 351.899978 77.201685 
L 352.254075 82.366414 
L 352.608172 84.735054 
L 352.962269 85.069965 
L 353.670463 81.632692 
L 354.02456 81.780319 
L 354.378657 81.136928 
L 354.732754 79.193547 
L 355.440948 73.557296 
L 355.795045 74.326273 
L 356.503239 71.970853 
L 356.857336 69.606632 
L 357.211433 70.058321 
L 357.56553 68.916972 
L 357.919627 70.474767 
L 358.273724 71.312048 
L 358.627821 70.922043 
L 358.981918 73.319325 
L 359.336015 76.626604 
L 359.690112 75.364064 
L 360.044209 75.654911 
L 360.398306 73.524241 
L 360.752403 74.244749 
L 361.1065 73.872378 
L 361.460597 73.69831 
L 361.814694 73.035091 
L 362.168791 73.852544 
L 362.522888 73.07916 
L 362.876985 71.618316 
L 363.231082 72.025936 
L 363.585179 71.807805 
L 363.939276 72.118486 
L 364.293373 73.043905 
L 364.64747 74.509155 
L 365.001567 73.77102 
L 365.355664 74.41441 
L 365.709761 74.698645 
L 366.063858 75.890675 
L 366.417955 75.060002 
L 366.772052 76.362198 
L 367.126149 75.932537 
L 367.480246 75.983219 
L 368.18844 79.272865 
L 368.542537 80.008794 
L 368.896634 82.423703 
L 369.250731 82.403875 
L 369.958925 84.353869 
L 370.313022 83.747934 
L 371.021216 78.909308 
L 371.375313 78.400329 
L 372.083507 79.667271 
L 372.437604 78.058806 
L 372.791701 78.41575 
L 373.145798 76.970334 
L 373.499895 77.142196 
L 373.853992 76.937279 
L 374.208089 76.329149 
L 374.562186 76.304909 
L 374.916283 75.98542 
L 375.27038 77.485925 
L 375.624477 77.186264 
L 375.978574 78.799142 
L 376.332671 74.05746 
L 376.686768 74.500341 
L 377.040865 73.951695 
L 377.749059 71.234925 
L 378.103156 71.408999 
L 378.457253 70.494595 
L 379.165447 67.680873 
L 379.519544 68.606291 
L 379.873641 68.665787 
L 380.227738 69.540523 
L 380.581835 70.985951 
L 380.935932 68.141375 
L 381.290029 63.247672 
L 381.644126 61.280044 
L 381.998223 61.41005 
L 382.706417 59.24412 
L 383.060514 60.713777 
L 383.414611 60.429537 
L 383.768708 60.297343 
L 384.122805 60.724791 
L 384.476902 60.295131 
L 384.830999 63.463602 
L 385.185096 62.954618 
L 385.539193 62.778344 
L 385.89329 63.765458 
L 386.247387 63.465803 
L 386.601484 61.238176 
L 386.955581 61.991744 
L 387.309678 61.341741 
L 387.663774 59.590056 
L 388.017871 62.130552 
L 388.371968 68.064264 
L 388.726065 66.966972 
L 389.080162 68.683414 
L 389.434259 71.940011 
L 389.788356 70.79425 
L 390.49655 67.052909 
L 390.850647 68.130361 
L 391.204744 63.011901 
L 391.558841 63.351224 
L 391.912938 65.019185 
L 392.267035 63.985801 
L 392.621132 64.750372 
L 392.975229 66.072408 
L 393.329326 63.60241 
L 393.683423 63.249872 
L 394.03752 64.604951 
L 394.391617 64.688676 
L 394.745714 63.648679 
L 395.099811 65.14919 
L 395.453908 63.904277 
L 397.932587 58.990734 
L 398.286684 56.243109 
L 398.640781 56.571417 
L 398.994878 55.449897 
L 399.348975 53.918543 
L 399.703072 55.229553 
L 400.057169 54.365831 
L 400.411266 57.274292 
L 400.765363 55.463111 
L 401.473557 56.536163 
L 401.827654 55.055491 
L 402.181751 55.341931 
L 402.535848 56.34006 
L 402.889945 58.19751 
L 403.244042 56.419384 
L 403.598139 56.752093 
L 404.306333 56.403957 
L 404.66043 54.74481 
L 405.014527 55.443283 
L 405.368624 56.844643 
L 405.722721 56.641927 
L 406.076818 57.644469 
L 406.430915 56.29159 
L 406.785012 56.586844 
L 407.139109 55.718709 
L 407.847303 50.822794 
L 408.2014 48.595179 
L 408.555497 49.661605 
L 408.909594 46.33671 
L 409.263691 46.627552 
L 409.617788 45.988574 
L 409.971885 47.724843 
L 410.325982 46.31247 
L 410.680079 46.506372 
L 411.034176 47.429589 
L 411.388273 47.610265 
L 411.74237 48.95653 
L 412.096467 48.280085 
L 412.450564 48.833138 
L 412.804661 49.762969 
L 413.158758 51.153303 
L 413.512855 50.148561 
L 413.512855 50.148561 
" style="fill:none;stroke:#1f77b4;stroke-linecap:square;stroke-width:1.5;"/>
   </g>
   <g id="patch_3">
    <path d="M 42.082813 134.421875 
L 42.082813 10.8 
" style="fill:none;stroke:#000000;stroke-linecap:square;stroke-linejoin:miter;stroke-width:0.8;"/>
   </g>
   <g id="patch_4">
    <path d="M 431.2 134.421875 
L 431.2 10.8 
" style="fill:none;stroke:#000000;stroke-linecap:square;stroke-linejoin:miter;stroke-width:0.8;"/>
   </g>
   <g id="patch_5">
    <path d="M 42.082813 134.421875 
L 431.2 134.421875 
" style="fill:none;stroke:#000000;stroke-linecap:square;stroke-linejoin:miter;stroke-width:0.8;"/>
   </g>
   <g id="patch_6">
    <path d="M 42.082813 10.8 
L 431.2 10.8 
" style="fill:none;stroke:#000000;stroke-linecap:square;stroke-linejoin:miter;stroke-width:0.8;"/>
   </g>
   <g id="legend_1">
    <g id="patch_7">
     <path d="M 332.15 33.75625 
L 424.2 33.75625 
Q 426.2 33.75625 426.2 31.75625 
L 426.2 17.8 
Q 426.2 15.8 424.2 15.8 
L 332.15 15.8 
Q 330.15 15.8 330.15 17.8 
L 330.15 31.75625 
Q 330.15 33.75625 332.15 33.75625 
z
" style="fill:#ffffff;opacity:0.8;stroke:#cccccc;stroke-linejoin:miter;"/>
    </g>
    <g id="line2d_14">
     <path d="M 334.15 23.898438 
L 354.15 23.898438 
" style="fill:none;stroke:#1f77b4;stroke-linecap:square;stroke-width:1.5;"/>
    </g>
    <g id="line2d_15"/>
    <g id="text_13">
     <!-- data_values -->
     <g transform="translate(362.15 27.398438)scale(0.1 -0.1)">
      <defs>
       <path d="M 2906 2969 
L 2906 4863 
L 3481 4863 
L 3481 0 
L 2906 0 
L 2906 525 
Q 2725 213 2448 61 
Q 2172 -91 1784 -91 
Q 1150 -91 751 415 
Q 353 922 353 1747 
Q 353 2572 751 3078 
Q 1150 3584 1784 3584 
Q 2172 3584 2448 3432 
Q 2725 3281 2906 2969 
z
M 947 1747 
Q 947 1113 1208 752 
Q 1469 391 1925 391 
Q 2381 391 2643 752 
Q 2906 1113 2906 1747 
Q 2906 2381 2643 2742 
Q 2381 3103 1925 3103 
Q 1469 3103 1208 2742 
Q 947 2381 947 1747 
z
" id="DejaVuSans-64" transform="scale(0.015625)"/>
       <path d="M 2194 1759 
Q 1497 1759 1228 1600 
Q 959 1441 959 1056 
Q 959 750 1161 570 
Q 1363 391 1709 391 
Q 2188 391 2477 730 
Q 2766 1069 2766 1631 
L 2766 1759 
L 2194 1759 
z
M 3341 1997 
L 3341 0 
L 2766 0 
L 2766 531 
Q 2569 213 2275 61 
Q 1981 -91 1556 -91 
Q 1019 -91 701 211 
Q 384 513 384 1019 
Q 384 1609 779 1909 
Q 1175 2209 1959 2209 
L 2766 2209 
L 2766 2266 
Q 2766 2663 2505 2880 
Q 2244 3097 1772 3097 
Q 1472 3097 1187 3025 
Q 903 2953 641 2809 
L 641 3341 
Q 956 3463 1253 3523 
Q 1550 3584 1831 3584 
Q 2591 3584 2966 3190 
Q 3341 2797 3341 1997 
z
" id="DejaVuSans-61" transform="scale(0.015625)"/>
       <path d="M 1172 4494 
L 1172 3500 
L 2356 3500 
L 2356 3053 
L 1172 3053 
L 1172 1153 
Q 1172 725 1289 603 
Q 1406 481 1766 481 
L 2356 481 
L 2356 0 
L 1766 0 
Q 1100 0 847 248 
Q 594 497 594 1153 
L 594 3053 
L 172 3053 
L 172 3500 
L 594 3500 
L 594 4494 
L 1172 4494 
z
" id="DejaVuSans-74" transform="scale(0.015625)"/>
       <path d="M 3263 -1063 
L 3263 -1509 
L -63 -1509 
L -63 -1063 
L 3263 -1063 
z
" id="DejaVuSans-5f" transform="scale(0.015625)"/>
       <path d="M 191 3500 
L 800 3500 
L 1894 563 
L 2988 3500 
L 3597 3500 
L 2284 0 
L 1503 0 
L 191 3500 
z
" id="DejaVuSans-76" transform="scale(0.015625)"/>
       <path d="M 603 4863 
L 1178 4863 
L 1178 0 
L 603 0 
L 603 4863 
z
" id="DejaVuSans-6c" transform="scale(0.015625)"/>
       <path d="M 544 1381 
L 544 3500 
L 1119 3500 
L 1119 1403 
Q 1119 906 1312 657 
Q 1506 409 1894 409 
Q 2359 409 2629 706 
Q 2900 1003 2900 1516 
L 2900 3500 
L 3475 3500 
L 3475 0 
L 2900 0 
L 2900 538 
Q 2691 219 2414 64 
Q 2138 -91 1772 -91 
Q 1169 -91 856 284 
Q 544 659 544 1381 
z
M 1991 3584 
L 1991 3584 
z
" id="DejaVuSans-75" transform="scale(0.015625)"/>
       <path d="M 3597 1894 
L 3597 1613 
L 953 1613 
Q 991 1019 1311 708 
Q 1631 397 2203 397 
Q 2534 397 2845 478 
Q 3156 559 3463 722 
L 3463 178 
Q 3153 47 2828 -22 
Q 2503 -91 2169 -91 
Q 1331 -91 842 396 
Q 353 884 353 1716 
Q 353 2575 817 3079 
Q 1281 3584 2069 3584 
Q 2775 3584 3186 3129 
Q 3597 2675 3597 1894 
z
M 3022 2063 
Q 3016 2534 2758 2815 
Q 2500 3097 2075 3097 
Q 1594 3097 1305 2825 
Q 1016 2553 972 2059 
L 3022 2063 
z
" id="DejaVuSans-65" transform="scale(0.015625)"/>
       <path d="M 2834 3397 
L 2834 2853 
Q 2591 2978 2328 3040 
Q 2066 3103 1784 3103 
Q 1356 3103 1142 2972 
Q 928 2841 928 2578 
Q 928 2378 1081 2264 
Q 1234 2150 1697 2047 
L 1894 2003 
Q 2506 1872 2764 1633 
Q 3022 1394 3022 966 
Q 3022 478 2636 193 
Q 2250 -91 1575 -91 
Q 1294 -91 989 -36 
Q 684 19 347 128 
L 347 722 
Q 666 556 975 473 
Q 1284 391 1588 391 
Q 1994 391 2212 530 
Q 2431 669 2431 922 
Q 2431 1156 2273 1281 
Q 2116 1406 1581 1522 
L 1381 1569 
Q 847 1681 609 1914 
Q 372 2147 372 2553 
Q 372 3047 722 3315 
Q 1072 3584 1716 3584 
Q 2034 3584 2315 3537 
Q 2597 3491 2834 3397 
z
" id="DejaVuSans-73" transform="scale(0.015625)"/>
      </defs>
      <use xlink:href="#DejaVuSans-64"/>
      <use x="63.476562" xlink:href="#DejaVuSans-61"/>
      <use x="124.755859" xlink:href="#DejaVuSans-74"/>
      <use x="163.964844" xlink:href="#DejaVuSans-61"/>
      <use x="225.244141" xlink:href="#DejaVuSans-5f"/>
      <use x="275.244141" xlink:href="#DejaVuSans-76"/>
      <use x="334.423828" xlink:href="#DejaVuSans-61"/>
      <use x="395.703125" xlink:href="#DejaVuSans-6c"/>
      <use x="423.486328" xlink:href="#DejaVuSans-75"/>
      <use x="486.865234" xlink:href="#DejaVuSans-65"/>
      <use x="548.388672" xlink:href="#DejaVuSans-73"/>
     </g>
    </g>
   </g>
  </g>
  <g id="axes_2">
   <g id="patch_8">
    <path d="M 42.082813 285.521875 
L 431.2 285.521875 
L 431.2 161.9 
L 42.082813 161.9 
z
" style="fill:#ffffff;"/>
   </g>
   <g id="matplotlib.axis_3">
    <g id="xtick_7">
     <g id="line2d_16">
      <g>
       <use style="stroke:#000000;stroke-width:0.8;" x="59.769957" xlink:href="#m69afda8c35" y="285.521875"/>
      </g>
     </g>
     <g id="text_14">
      <!-- 0 -->
      <g transform="translate(56.588707 300.120313)scale(0.1 -0.1)">
       <use xlink:href="#DejaVuSans-30"/>
      </g>
     </g>
    </g>
    <g id="xtick_8">
     <g id="line2d_17">
      <g>
       <use style="stroke:#000000;stroke-width:0.8;" x="130.589356" xlink:href="#m69afda8c35" y="285.521875"/>
      </g>
     </g>
     <g id="text_15">
      <!-- 200 -->
      <g transform="translate(121.045606 300.120313)scale(0.1 -0.1)">
       <use xlink:href="#DejaVuSans-32"/>
       <use x="63.623047" xlink:href="#DejaVuSans-30"/>
       <use x="127.246094" xlink:href="#DejaVuSans-30"/>
      </g>
     </g>
    </g>
    <g id="xtick_9">
     <g id="line2d_18">
      <g>
       <use style="stroke:#000000;stroke-width:0.8;" x="201.408755" xlink:href="#m69afda8c35" y="285.521875"/>
      </g>
     </g>
     <g id="text_16">
      <!-- 400 -->
      <g transform="translate(191.865005 300.120313)scale(0.1 -0.1)">
       <use xlink:href="#DejaVuSans-34"/>
       <use x="63.623047" xlink:href="#DejaVuSans-30"/>
       <use x="127.246094" xlink:href="#DejaVuSans-30"/>
      </g>
     </g>
    </g>
    <g id="xtick_10">
     <g id="line2d_19">
      <g>
       <use style="stroke:#000000;stroke-width:0.8;" x="272.228154" xlink:href="#m69afda8c35" y="285.521875"/>
      </g>
     </g>
     <g id="text_17">
      <!-- 600 -->
      <g transform="translate(262.684404 300.120313)scale(0.1 -0.1)">
       <use xlink:href="#DejaVuSans-36"/>
       <use x="63.623047" xlink:href="#DejaVuSans-30"/>
       <use x="127.246094" xlink:href="#DejaVuSans-30"/>
      </g>
     </g>
    </g>
    <g id="xtick_11">
     <g id="line2d_20">
      <g>
       <use style="stroke:#000000;stroke-width:0.8;" x="343.047553" xlink:href="#m69afda8c35" y="285.521875"/>
      </g>
     </g>
     <g id="text_18">
      <!-- 800 -->
      <g transform="translate(333.503803 300.120313)scale(0.1 -0.1)">
       <use xlink:href="#DejaVuSans-38"/>
       <use x="63.623047" xlink:href="#DejaVuSans-30"/>
       <use x="127.246094" xlink:href="#DejaVuSans-30"/>
      </g>
     </g>
    </g>
    <g id="xtick_12">
     <g id="line2d_21">
      <g>
       <use style="stroke:#000000;stroke-width:0.8;" x="413.866952" xlink:href="#m69afda8c35" y="285.521875"/>
      </g>
     </g>
     <g id="text_19">
      <!-- 1000 -->
      <g transform="translate(401.141952 300.120313)scale(0.1 -0.1)">
       <use xlink:href="#DejaVuSans-31"/>
       <use x="63.623047" xlink:href="#DejaVuSans-30"/>
       <use x="127.246094" xlink:href="#DejaVuSans-30"/>
       <use x="190.869141" xlink:href="#DejaVuSans-30"/>
      </g>
     </g>
    </g>
   </g>
   <g id="matplotlib.axis_4">
    <g id="ytick_7">
     <g id="line2d_22">
      <g>
       <use style="stroke:#000000;stroke-width:0.8;" x="42.082813" xlink:href="#m7c1cdfbc33" y="278.623158"/>
      </g>
     </g>
     <g id="text_20">
      <!-- −0.2 -->
      <g transform="translate(10.8 282.422377)scale(0.1 -0.1)">
       <defs>
        <path d="M 678 2272 
L 4684 2272 
L 4684 1741 
L 678 1741 
L 678 2272 
z
" id="DejaVuSans-2212" transform="scale(0.015625)"/>
        <path d="M 684 794 
L 1344 794 
L 1344 0 
L 684 0 
L 684 794 
z
" id="DejaVuSans-2e" transform="scale(0.015625)"/>
       </defs>
       <use xlink:href="#DejaVuSans-2212"/>
       <use x="83.789062" xlink:href="#DejaVuSans-30"/>
       <use x="147.412109" xlink:href="#DejaVuSans-2e"/>
       <use x="179.199219" xlink:href="#DejaVuSans-32"/>
      </g>
     </g>
    </g>
    <g id="ytick_8">
     <g id="line2d_23">
      <g>
       <use style="stroke:#000000;stroke-width:0.8;" x="42.082813" xlink:href="#m7c1cdfbc33" y="244.739493"/>
      </g>
     </g>
     <g id="text_21">
      <!-- 0.0 -->
      <g transform="translate(19.179688 248.538712)scale(0.1 -0.1)">
       <use xlink:href="#DejaVuSans-30"/>
       <use x="63.623047" xlink:href="#DejaVuSans-2e"/>
       <use x="95.410156" xlink:href="#DejaVuSans-30"/>
      </g>
     </g>
    </g>
    <g id="ytick_9">
     <g id="line2d_24">
      <g>
       <use style="stroke:#000000;stroke-width:0.8;" x="42.082813" xlink:href="#m7c1cdfbc33" y="210.855828"/>
      </g>
     </g>
     <g id="text_22">
      <!-- 0.2 -->
      <g transform="translate(19.179688 214.655047)scale(0.1 -0.1)">
       <use xlink:href="#DejaVuSans-30"/>
       <use x="63.623047" xlink:href="#DejaVuSans-2e"/>
       <use x="95.410156" xlink:href="#DejaVuSans-32"/>
      </g>
     </g>
    </g>
    <g id="ytick_10">
     <g id="line2d_25">
      <g>
       <use style="stroke:#000000;stroke-width:0.8;" x="42.082813" xlink:href="#m7c1cdfbc33" y="176.972163"/>
      </g>
     </g>
     <g id="text_23">
      <!-- 0.4 -->
      <g transform="translate(19.179688 180.771382)scale(0.1 -0.1)">
       <use xlink:href="#DejaVuSans-30"/>
       <use x="63.623047" xlink:href="#DejaVuSans-2e"/>
       <use x="95.410156" xlink:href="#DejaVuSans-34"/>
      </g>
     </g>
    </g>
   </g>
   <g id="line2d_26">
    <path clip-path="url(#p1f913a5891)" d="M 59.769957 245.920312 
L 61.540442 246.660697 
L 62.602733 246.912248 
L 63.665024 246.981832 
L 65.435509 246.824692 
L 67.560091 246.632102 
L 69.684673 246.69292 
L 72.517449 246.778582 
L 83.848553 246.647404 
L 87.389523 246.636053 
L 90.576396 246.327681 
L 94.117366 246.068605 
L 104.032082 245.504019 
L 111.468119 244.384691 
L 119.258252 243.380171 
L 126.694289 242.50655 
L 129.881162 242.349021 
L 135.546714 242.346381 
L 138.025393 242.574437 
L 140.858169 243.088253 
L 144.399139 243.923269 
L 146.523721 244.628472 
L 149.356497 245.84837 
L 154.313855 248.277879 
L 157.854825 250.267143 
L 163.874474 253.952665 
L 166.70725 255.526215 
L 169.185929 256.640595 
L 172.726899 257.976211 
L 174.851481 258.569535 
L 176.621966 258.826373 
L 178.392451 258.841087 
L 180.517033 258.607094 
L 183.703906 257.979225 
L 188.661263 256.751521 
L 191.494039 255.856543 
L 194.680912 254.578233 
L 199.992367 252.168359 
L 202.471046 250.807521 
L 204.595628 249.401224 
L 206.72021 247.739917 
L 208.490695 246.114998 
L 210.26118 244.205133 
L 212.031665 241.961375 
L 214.156247 238.837142 
L 216.634926 234.74619 
L 224.42506 221.512153 
L 226.195545 219.07654 
L 227.611933 217.481968 
L 229.028321 216.265286 
L 230.090612 215.623642 
L 231.152903 215.224556 
L 232.215194 215.073862 
L 233.277485 215.176608 
L 234.339776 215.538214 
L 235.402067 216.163836 
L 236.464358 217.05609 
L 237.526649 218.212597 
L 238.943037 220.149038 
L 240.359425 222.499933 
L 242.12991 225.942771 
L 244.254492 230.662877 
L 247.441365 238.452182 
L 251.690529 248.786851 
L 254.523304 255.069897 
L 257.001983 260.012036 
L 259.126565 263.750157 
L 261.251147 267.003213 
L 263.375729 269.802298 
L 265.500311 272.206425 
L 267.624893 274.269923 
L 269.749475 276.000788 
L 271.51996 277.167929 
L 273.290445 278.090177 
L 275.415027 278.937824 
L 277.539609 279.553811 
L 279.310094 279.848904 
L 281.080579 279.88279 
L 282.851064 279.646853 
L 284.621549 279.182562 
L 286.392034 278.520122 
L 288.162519 277.650897 
L 290.287101 276.327904 
L 292.76578 274.470221 
L 295.244459 272.312405 
L 297.369041 270.151278 
L 299.84772 267.248498 
L 303.034593 263.097001 
L 308.346048 256.050767 
L 310.47063 253.69673 
L 312.595212 251.71763 
L 314.365697 250.361903 
L 315.782085 249.51591 
L 317.198473 248.921506 
L 318.614861 248.57383 
L 320.385346 248.390833 
L 324.280412 248.103369 
L 326.050897 247.682653 
L 327.467285 247.096256 
L 328.883673 246.220273 
L 330.300061 245.003915 
L 331.716449 243.413845 
L 333.132837 241.425563 
L 334.549225 239.009279 
L 335.965613 236.128789 
L 337.382001 232.760205 
L 339.152486 227.887923 
L 341.277068 221.245603 
L 344.109844 211.548016 
L 350.48359 189.435725 
L 352.608172 183.082518 
L 354.378657 178.517553 
L 355.795045 175.415925 
L 357.211433 172.843167 
L 358.627821 170.815152 
L 359.690112 169.64537 
L 360.752403 168.759351 
L 361.814694 168.133177 
L 362.876985 167.738714 
L 363.939276 167.547264 
L 365.355664 167.562356 
L 366.772052 167.837257 
L 368.18844 168.324092 
L 369.958925 169.153966 
L 381.290029 175.240839 
L 382.706417 176.366446 
L 384.122805 177.73874 
L 385.539193 179.398154 
L 386.955581 181.385312 
L 388.371968 183.736892 
L 389.788356 186.479107 
L 391.558841 190.475069 
L 393.329326 195.101487 
L 395.099811 200.326319 
L 397.224393 207.263856 
L 400.765363 219.735747 
L 405.014527 234.509749 
L 407.139109 241.202947 
L 408.909594 246.166488 
L 410.680079 250.455338 
L 412.096467 253.383169 
L 413.512855 255.889907 
L 413.512855 255.889907 
" style="fill:none;stroke:#1f77b4;stroke-linecap:square;stroke-width:1.5;"/>
   </g>
   <g id="patch_9">
    <path d="M 42.082813 285.521875 
L 42.082813 161.9 
" style="fill:none;stroke:#000000;stroke-linecap:square;stroke-linejoin:miter;stroke-width:0.8;"/>
   </g>
   <g id="patch_10">
    <path d="M 431.2 285.521875 
L 431.2 161.9 
" style="fill:none;stroke:#000000;stroke-linecap:square;stroke-linejoin:miter;stroke-width:0.8;"/>
   </g>
   <g id="patch_11">
    <path d="M 42.082813 285.521875 
L 431.2 285.521875 
" style="fill:none;stroke:#000000;stroke-linecap:square;stroke-linejoin:miter;stroke-width:0.8;"/>
   </g>
   <g id="patch_12">
    <path d="M 42.082813 161.9 
L 431.2 161.9 
" style="fill:none;stroke:#000000;stroke-linecap:square;stroke-linejoin:miter;stroke-width:0.8;"/>
   </g>
   <g id="legend_2">
    <g id="patch_13">
     <path d="M 49.082813 184.85625 
L 141.132812 184.85625 
Q 143.132812 184.85625 143.132812 182.85625 
L 143.132812 168.9 
Q 143.132812 166.9 141.132812 166.9 
L 49.082813 166.9 
Q 47.082813 166.9 47.082813 168.9 
L 47.082813 182.85625 
Q 47.082813 184.85625 49.082813 184.85625 
z
" style="fill:#ffffff;opacity:0.8;stroke:#cccccc;stroke-linejoin:miter;"/>
    </g>
    <g id="line2d_27">
     <path d="M 51.082813 174.998437 
L 71.082813 174.998437 
" style="fill:none;stroke:#1f77b4;stroke-linecap:square;stroke-width:1.5;"/>
    </g>
    <g id="line2d_28"/>
    <g id="text_24">
     <!-- data_values -->
     <g transform="translate(79.082813 178.498437)scale(0.1 -0.1)">
      <use xlink:href="#DejaVuSans-64"/>
      <use x="63.476562" xlink:href="#DejaVuSans-61"/>
      <use x="124.755859" xlink:href="#DejaVuSans-74"/>
      <use x="163.964844" xlink:href="#DejaVuSans-61"/>
      <use x="225.244141" xlink:href="#DejaVuSans-5f"/>
      <use x="275.244141" xlink:href="#DejaVuSans-76"/>
      <use x="334.423828" xlink:href="#DejaVuSans-61"/>
      <use x="395.703125" xlink:href="#DejaVuSans-6c"/>
      <use x="423.486328" xlink:href="#DejaVuSans-75"/>
      <use x="486.865234" xlink:href="#DejaVuSans-65"/>
      <use x="548.388672" xlink:href="#DejaVuSans-73"/>
     </g>
    </g>
   </g>
  </g>
 </g>
 <defs>
  <clipPath id="p35015c48d9">
   <rect height="123.621875" width="389.117187" x="42.082813" y="10.8"/>
  </clipPath>
  <clipPath id="p1f913a5891">
   <rect height="123.621875" width="389.117187" x="42.082813" y="161.9"/>
  </clipPath>
 </defs>
</svg>
